<mxfile host="app.diagrams.net" modified="2020-04-21T13:41:25.122Z" agent="5.0 (Macintosh; Intel Mac OS X 10_15_4) AppleWebKit/605.1.15 (KHTML, like Gecko) Version/13.1 Safari/605.1.15" etag="AZFyp8JeaF9h0FNvEFW1" version="13.0.0" type="github">
  <diagram id="Zp4T81enw31dGjMTrHqn" name="Page-1">
    <mxGraphModel dx="2893" dy="1202" grid="1" gridSize="10" guides="1" tooltips="1" connect="1" arrows="1" fold="1" page="1" pageScale="1" pageWidth="827" pageHeight="1169" math="0" shadow="0">
      <root>
        <mxCell id="0" />
        <mxCell id="1" parent="0" />
        <mxCell id="2tFBRqaM1ZA4eUpaGNYp-62" value="" style="group" parent="1" vertex="1" connectable="0">
          <mxGeometry x="80" y="440" width="200" height="300" as="geometry" />
        </mxCell>
        <mxCell id="2tFBRqaM1ZA4eUpaGNYp-63" value="" style="group" parent="2tFBRqaM1ZA4eUpaGNYp-62" vertex="1" connectable="0">
          <mxGeometry width="200" height="300" as="geometry" />
        </mxCell>
        <mxCell id="2tFBRqaM1ZA4eUpaGNYp-64" value="" style="group" parent="2tFBRqaM1ZA4eUpaGNYp-63" vertex="1" connectable="0">
          <mxGeometry width="200" height="300" as="geometry" />
        </mxCell>
        <mxCell id="2tFBRqaM1ZA4eUpaGNYp-65" value="" style="shape=card;whiteSpace=wrap;html=1;shadow=1;strokeColor=#540054;strokeWidth=3;fillColor=none;gradientColor=#E69CDC;fontFamily=Tahoma;fontSize=16;fontColor=#000000;align=left;flipH=1;" parent="2tFBRqaM1ZA4eUpaGNYp-64" vertex="1">
          <mxGeometry x="30" y="29" width="170" height="220" as="geometry" />
        </mxCell>
        <mxCell id="2tFBRqaM1ZA4eUpaGNYp-66" value="" style="shape=image;verticalLabelPosition=bottom;verticalAlign=top;imageAspect=0;aspect=fixed;image=data:image/svg+xml,PHN2ZyB4bWxuczpkYz0iaHR0cDovL3B1cmwub3JnL2RjL2VsZW1lbnRzLzEuMS8iIHhtbG5zOmNjPSJodHRwOi8vY3JlYXRpdmVjb21tb25zLm9yZy9ucyMiIHhtbG5zOnJkZj0iaHR0cDovL3d3dy53My5vcmcvMTk5OS8wMi8yMi1yZGYtc3ludGF4LW5zIyIgeG1sbnM6c3ZnPSJodHRwOi8vd3d3LnczLm9yZy8yMDAwL3N2ZyIgeG1sbnM9Imh0dHA6Ly93d3cudzMub3JnLzIwMDAvc3ZnIiB4bWxuczp4bGluaz0iaHR0cDovL3d3dy53My5vcmcvMTk5OS94bGluayIgeG1sbnM6c29kaXBvZGk9Imh0dHA6Ly9zb2RpcG9kaS5zb3VyY2Vmb3JnZS5uZXQvRFREL3NvZGlwb2RpLTAuZHRkIiB4bWxuczppbmtzY2FwZT0iaHR0cDovL3d3dy5pbmtzY2FwZS5vcmcvbmFtZXNwYWNlcy9pbmtzY2FwZSIgd2lkdGg9IjEzNC4zMjQ0bW0iIGhlaWdodD0iMTMyLjg2NTY5bW0iIHZpZXdCb3g9IjAgMCAxMzQuMzI0NCAxMzIuODY1NjkiIHZlcnNpb249IjEuMSIgaWQ9InN2ZzgyMCIgaW5rc2NhcGU6dmVyc2lvbj0iMC45Mi40ICg1ZGE2ODljMzEzLCAyMDE5LTAxLTE0KSIgc29kaXBvZGk6ZG9jbmFtZT0iSW50cm9kdWN0b3J5IGFjdCAtIEdyb3VwIG9mIHRvcGljcy5zdmciPiYjeGE7ICA8ZGVmcyBpZD0iZGVmczgxNCI+JiN4YTsgICAgPGxpbmVhckdyYWRpZW50IGlua3NjYXBlOmNvbGxlY3Q9ImFsd2F5cyIgaWQ9ImxpbmVhckdyYWRpZW50MTgxNSI+JiN4YTsgICAgICA8c3RvcCBzdHlsZT0ic3RvcC1jb2xvcjojNjYzNzY2O3N0b3Atb3BhY2l0eToxIiBvZmZzZXQ9IjAiIGlkPSJzdG9wMTgxMSIvPiYjeGE7ICAgICAgPHN0b3Agc3R5bGU9InN0b3AtY29sb3I6I2FmNzZiZDtzdG9wLW9wYWNpdHk6MSIgb2Zmc2V0PSIxIiBpZD0ic3RvcDE4MTMiLz4mI3hhOyAgICA8L2xpbmVhckdyYWRpZW50PiYjeGE7ICAgIDxmaWx0ZXIgaW5rc2NhcGU6Y29sbGVjdD0iYWx3YXlzIiBzdHlsZT0iY29sb3ItaW50ZXJwb2xhdGlvbi1maWx0ZXJzOnNSR0IiIGlkPSJmaWx0ZXIxNjgzIiB4PSItMC4wNDcxOTY2MTIiIHdpZHRoPSIxLjA5NDM5MzMiIHk9Ii0wLjA0NjQwOTk5OCIgaGVpZ2h0PSIxLjA5MjgyIj4mI3hhOyAgICAgIDxmZUdhdXNzaWFuQmx1ciBpbmtzY2FwZTpjb2xsZWN0PSJhbHdheXMiIHN0ZERldmlhdGlvbj0iMC40Mzg1NDY4NyIgaWQ9ImZlR2F1c3NpYW5CbHVyMTY4NSIvPiYjeGE7ICAgIDwvZmlsdGVyPiYjeGE7ICAgIDxsaW5lYXJHcmFkaWVudCBpbmtzY2FwZTpjb2xsZWN0PSJhbHdheXMiIHhsaW5rOmhyZWY9IiNsaW5lYXJHcmFkaWVudDE4MTUiIGlkPSJsaW5lYXJHcmFkaWVudDE4NTciIHgxPSIxNTEuMzc5NDciIHkxPSI5MS43NTg5MjYiIHgyPSIxNDYuODQzNzUiIHkyPSIxMDUuOTMzMDQiIGdyYWRpZW50VW5pdHM9InVzZXJTcGFjZU9uVXNlIi8+JiN4YTsgIDwvZGVmcz4mI3hhOyAgPHNvZGlwb2RpOm5hbWVkdmlldyBpZD0iYmFzZSIgcGFnZWNvbG9yPSIjZmZmZmZmIiBib3JkZXJjb2xvcj0iIzY2NjY2NiIgYm9yZGVyb3BhY2l0eT0iMS4wIiBpbmtzY2FwZTpwYWdlb3BhY2l0eT0iMC4wIiBpbmtzY2FwZTpwYWdlc2hhZG93PSIyIiBpbmtzY2FwZTp6b29tPSIwLjM1IiBpbmtzY2FwZTpjeD0iODI2LjYzNzc4IiBpbmtzY2FwZTpjeT0iOTM5LjU5NSIgaW5rc2NhcGU6ZG9jdW1lbnQtdW5pdHM9Im1tIiBpbmtzY2FwZTpjdXJyZW50LWxheWVyPSJsYXllcjQiIHNob3dncmlkPSJmYWxzZSIgaW5rc2NhcGU6d2luZG93LXdpZHRoPSIxOTIwIiBpbmtzY2FwZTp3aW5kb3ctaGVpZ2h0PSIxMDEzIiBpbmtzY2FwZTp3aW5kb3cteD0iLTkiIGlua3NjYXBlOndpbmRvdy15PSItOSIgaW5rc2NhcGU6d2luZG93LW1heGltaXplZD0iMSIvPiYjeGE7ICA8bWV0YWRhdGEgaWQ9Im1ldGFkYXRhODE3Ij4mI3hhOyAgICA8cmRmOlJERj4mI3hhOyAgICAgIDxjYzpXb3JrIHJkZjphYm91dD0iIj4mI3hhOyAgICAgICAgPGRjOmZvcm1hdD5pbWFnZS9zdmcreG1sPC9kYzpmb3JtYXQ+JiN4YTsgICAgICAgIDxkYzp0eXBlIHJkZjpyZXNvdXJjZT0iaHR0cDovL3B1cmwub3JnL2RjL2RjbWl0eXBlL1N0aWxsSW1hZ2UiLz4mI3hhOyAgICAgICAgPGRjOnRpdGxlLz4mI3hhOyAgICAgIDwvY2M6V29yaz4mI3hhOyAgICA8L3JkZjpSREY+JiN4YTsgIDwvbWV0YWRhdGE+JiN4YTsgIDxnIGlua3NjYXBlOmxhYmVsPSJUb3BpYyIgaW5rc2NhcGU6Z3JvdXBtb2RlPSJsYXllciIgaWQ9ImxheWVyMSIgc3R5bGU9ImRpc3BsYXk6bm9uZSIgdHJhbnNmb3JtPSJ0cmFuc2xhdGUoLTE0My4zMDkxOCwtMTY0LjkxMTYyKSI+JiN4YTsgICAgPHJlY3Qgcnk9IjEwLjU1NDE1MSIgeT0iMTMzLjU0NSIgeD0iMTIuMzI1MjQ1IiBoZWlnaHQ9IjgwLjQyOTkwOSIgd2lkdGg9IjEzNC44NTg0NiIgaWQ9InJlY3QxMzY5IiBzdHlsZT0ib3BhY2l0eToxO2ZpbGw6bm9uZTtmaWxsLW9wYWNpdHk6MTtzdHJva2U6IzY2Mzc2NjtzdHJva2Utd2lkdGg6MS4zNjQxNDQ0NDtzdHJva2UtbWl0ZXJsaW1pdDo0O3N0cm9rZS1kYXNoYXJyYXk6bm9uZTtzdHJva2Utb3BhY2l0eToxIi8+JiN4YTsgIDwvZz4mI3hhOyAgPGcgaW5rc2NhcGU6Z3JvdXBtb2RlPSJsYXllciIgaWQ9ImxheWVyNiIgaW5rc2NhcGU6bGFiZWw9InRyYW5zaXRpb24gYWN0IiBzdHlsZT0iZGlzcGxheTpub25lIiB0cmFuc2Zvcm09InRyYW5zbGF0ZSgtMTQzLjMwOTE4LC0xNjQuOTExNjIpIj4mI3hhOyAgICA8ZyBzdHlsZT0iZGlzcGxheTppbmxpbmUiIGlkPSJnMTg3OSI+JiN4YTsgICAgICA8ZWxsaXBzZSByeT0iMjAuNjYxMzgxIiByeD0iMjIuMzYyMjc0IiBjeT0iMTQ4LjY0NDM1IiBjeD0iMTYwLjY4NzEyIiBpZD0iY2lyY2xlMTg1OSIgc3R5bGU9Im9wYWNpdHk6MTtmaWxsOiNmZmZmZmY7ZmlsbC1vcGFjaXR5OjE7c3Ryb2tlOiM2NjM3NjY7c3Ryb2tlLXdpZHRoOjAuODYxOTAxNDY7c3Ryb2tlLW1pdGVybGltaXQ6NDtzdHJva2UtZGFzaGFycmF5Om5vbmU7c3Ryb2tlLW9wYWNpdHk6MSIvPiYjeGE7ICAgICAgPHBhdGggaW5rc2NhcGU6Y29ubmVjdG9yLWN1cnZhdHVyZT0iMCIgaWQ9InBhdGgxODYxIiBkPSJtIDE0My44MjcyNCwxNDAuOTQ3MzEgMzQuMzA1ODMsLTAuMTczNDMgMC4yMDc5MiwtMC4wODY2IiBzdHlsZT0iZmlsbDojZmZmZmZmO2ZpbGwtb3BhY2l0eToxO3N0cm9rZTojNjYzNzY2O3N0cm9rZS13aWR0aDoxLjAwNDc3MzAyO3N0cm9rZS1saW5lY2FwOmJ1dHQ7c3Ryb2tlLWxpbmVqb2luOm1pdGVyO3N0cm9rZS1taXRlcmxpbWl0OjQ7c3Ryb2tlLWRhc2hhcnJheTpub25lO3N0cm9rZS1vcGFjaXR5OjEiLz4mI3hhOyAgICAgIDxwYXRoIHN0eWxlPSJmaWxsOiNmZmZmZmY7ZmlsbC1vcGFjaXR5OjE7c3Ryb2tlOiM2NjM3NjY7c3Ryb2tlLXdpZHRoOjEuMDA0NzczMDI7c3Ryb2tlLWxpbmVjYXA6YnV0dDtzdHJva2UtbGluZWpvaW46bWl0ZXI7c3Ryb2tlLW1pdGVybGltaXQ6NDtzdHJva2UtZGFzaGFycmF5Om5vbmU7c3Ryb2tlLW9wYWNpdHk6MSIgZD0ibSAxNDMuNDgyNjMsMTQ5LjEyNjQzIDM0LjMwNTg0LC0wLjE3MzQ0IDAuMjA3OTIsLTAuMDg2NiIgaWQ9InBhdGgxODYzIiBpbmtzY2FwZTpjb25uZWN0b3ItY3VydmF0dXJlPSIwIi8+JiN4YTsgICAgICA8cGF0aCBpbmtzY2FwZTpjb25uZWN0b3ItY3VydmF0dXJlPSIwIiBpZD0icGF0aDE4NjUiIGQ9Im0gMTQzLjY1NDkzLDE1Ny41MjY2IDM0LjMwNTg0LC0wLjE3MzQzIDAuMjA3OTIsLTAuMDg2NiIgc3R5bGU9ImZpbGw6I2ZmZmZmZjtmaWxsLW9wYWNpdHk6MTtzdHJva2U6IzY2Mzc2NjtzdHJva2Utd2lkdGg6MS4wMDQ3NzMwMjtzdHJva2UtbGluZWNhcDpidXR0O3N0cm9rZS1saW5lam9pbjptaXRlcjtzdHJva2UtbWl0ZXJsaW1pdDo0O3N0cm9rZS1kYXNoYXJyYXk6bm9uZTtzdHJva2Utb3BhY2l0eToxIi8+JiN4YTsgICAgPC9nPiYjeGE7ICA8L2c+JiN4YTsgIDxnIGlua3NjYXBlOmdyb3VwbW9kZT0ibGF5ZXIiIGlkPSJsYXllcjUiIGlua3NjYXBlOmxhYmVsPSJJbnRyb18gbXVsdGlwbGUgZ3JvdXBzIG9mIHRvcGljcyIgc3R5bGU9ImRpc3BsYXk6bm9uZSIgdHJhbnNmb3JtPSJ0cmFuc2xhdGUoLTE0My4zMDkxOCwtMTY0LjkxMTYyKSI+JiN4YTsgICAgPGcgc3R5bGU9ImRpc3BsYXk6aW5saW5lIiBpZD0iZzE4ODciIHRyYW5zZm9ybT0ibWF0cml4KDIuNjQwMTIxNCwwLDAsMi42MTE0NTA2LC0yMTQuMzE0MDEsLTM4MC45OTQ3OCkiPiYjeGE7ICAgICAgPGNpcmNsZSByPSIyNC45MzkwNTgiIGN5PSIyMTMuMjc4MjciIGN4PSIxNjEuMjU0MDkiIGlkPSJwYXRoMTc0OSIgc3R5bGU9Im9wYWNpdHk6MTtmaWxsOiNmZmZmZmY7ZmlsbC1vcGFjaXR5OjE7c3Ryb2tlOiM2NjM3NjY7c3Ryb2tlLXdpZHRoOjE7c3Ryb2tlLW1pdGVybGltaXQ6NDtzdHJva2UtZGFzaGFycmF5Om5vbmU7c3Ryb2tlLW9wYWNpdHk6MSIvPiYjeGE7ICAgICAgPGNpcmNsZSBzdHlsZT0ib3BhY2l0eToxO2ZpbGw6I2ZmZmZmZjtmaWxsLW9wYWNpdHk6MTtzdHJva2U6IzY2Mzc2NjtzdHJva2Utd2lkdGg6MC44ODExMzUxNztzdHJva2UtbWl0ZXJsaW1pdDo0O3N0cm9rZS1kYXNoYXJyYXk6bm9uZTtzdHJva2Utb3BhY2l0eToxIiBpZD0iY2lyY2xlMTc1MSIgY3g9IjE2MS4yNTQwOSIgY3k9IjIxMy4yNzgyNyIgcj0iMjEuOTc0NjgyIi8+JiN4YTsgICAgICA8cGF0aCBzb2RpcG9kaTpub2RldHlwZXM9ImNjYyIgaW5rc2NhcGU6Y29ubmVjdG9yLWN1cnZhdHVyZT0iMCIgaWQ9InBhdGgxNzU1IiBkPSJtIDEzOS4wMDA3NCwyMDEuOTM4OTkgYyA5LjgyNDQ3LC0xNy44NTE2OSAzNS42NDQzLC0xNy43MDI0NiA0NC42OTU2OSwwIHoiIHN0eWxlPSJmaWxsOiM2NjM3NjY7ZmlsbC1vcGFjaXR5OjE7c3Ryb2tlOiM2NjM3NjY7c3Ryb2tlLXdpZHRoOjAuMjY0NTgzMzJweDtzdHJva2UtbGluZWNhcDpidXR0O3N0cm9rZS1saW5lam9pbjptaXRlcjtzdHJva2Utb3BhY2l0eToxIi8+JiN4YTsgICAgICA8cGF0aCBpbmtzY2FwZTpjb25uZWN0b3ItY3VydmF0dXJlPSIwIiBpZD0icGF0aDE3NTciIGQ9Im0gMTQ1LjYxNTMyLDIxMC4wNjU0OCAzMS4xODMwNCwtMC4xODg5OSAwLjE4ODk5LC0wLjA5NDUiIHN0eWxlPSJmaWxsOiNmZmZmZmY7ZmlsbC1vcGFjaXR5OjE7c3Ryb2tlOiM2NjM3NjY7c3Ryb2tlLXdpZHRoOjE7c3Ryb2tlLWxpbmVjYXA6YnV0dDtzdHJva2UtbGluZWpvaW46bWl0ZXI7c3Ryb2tlLW1pdGVybGltaXQ6NDtzdHJva2UtZGFzaGFycmF5Om5vbmU7c3Ryb2tlLW9wYWNpdHk6MSIvPiYjeGE7ICAgICAgPHBhdGggc3R5bGU9ImZpbGw6I2ZmZmZmZjtmaWxsLW9wYWNpdHk6MTtzdHJva2U6IzY2Mzc2NjtzdHJva2Utd2lkdGg6MTtzdHJva2UtbGluZWNhcDpidXR0O3N0cm9rZS1saW5lam9pbjptaXRlcjtzdHJva2UtbWl0ZXJsaW1pdDo0O3N0cm9rZS1kYXNoYXJyYXk6bm9uZTtzdHJva2Utb3BhY2l0eToxIiBkPSJtIDE0NS42MTUzMiwyMTYuODY5MDQgMzEuMTgzMDQsLTAuMTg4OTkgMC4xODg5OSwtMC4wOTQ1IiBpZD0icGF0aDE3NTkiIGlua3NjYXBlOmNvbm5lY3Rvci1jdXJ2YXR1cmU9IjAiLz4mI3hhOyAgICAgIDxwYXRoIGlua3NjYXBlOmNvbm5lY3Rvci1jdXJ2YXR1cmU9IjAiIGlkPSJwYXRoMTc2MSIgZD0ibSAxNDUuNDI2MzQsMjIzLjg2MTYxIDMxLjE4MzA0LC0wLjE4ODk5IDAuMTg4OTksLTAuMDk0NSIgc3R5bGU9ImZpbGw6I2ZmZmZmZjtmaWxsLW9wYWNpdHk6MTtzdHJva2U6IzY2Mzc2NjtzdHJva2Utd2lkdGg6MTtzdHJva2UtbGluZWNhcDpidXR0O3N0cm9rZS1saW5lam9pbjptaXRlcjtzdHJva2UtbWl0ZXJsaW1pdDo0O3N0cm9rZS1kYXNoYXJyYXk6bm9uZTtzdHJva2Utb3BhY2l0eToxIi8+JiN4YTsgICAgPC9nPiYjeGE7ICA8L2c+JiN4YTsgIDxnIGlua3NjYXBlOmdyb3VwbW9kZT0ibGF5ZXIiIGlkPSJsYXllcjQiIGlua3NjYXBlOmxhYmVsPSJJbnRyb19Hcm91cCBvZiB0b3BpY3MiIHN0eWxlPSJkaXNwbGF5OmlubGluZSIgdHJhbnNmb3JtPSJ0cmFuc2xhdGUoLTE0My4zMDkxOCwtMTY0LjkxMTYyKSI+JiN4YTsgICAgPGcgc3R5bGU9ImRpc3BsYXk6aW5saW5lIiBpZD0iZzE4OTQiIHRyYW5zZm9ybT0ibWF0cml4KDIuNjQwMTIxNCwwLDAsMi42MTE0NTA2LC0yMTIuNzY0MjIsLTQ3MC4yMjY0MykiPiYjeGE7ICAgICAgPGNpcmNsZSBzdHlsZT0ib3BhY2l0eToxO2ZpbGw6I2ZmZmZmZjtmaWxsLW9wYWNpdHk6MTtzdHJva2U6IzY2Mzc2NjtzdHJva2Utd2lkdGg6MTtzdHJva2UtbWl0ZXJsaW1pdDo0O3N0cm9rZS1kYXNoYXJyYXk6bm9uZTtzdHJva2Utb3BhY2l0eToxIiBpZD0iY2lyY2xlMTc3NyIgY3g9IjE2MC4zMDkxNCIgY3k9IjI2OC42NTE3OSIgcj0iMjQuOTM5MDU4Ii8+JiN4YTsgICAgICA8cGF0aCBzdHlsZT0iZmlsbDojNjYzNzY2O2ZpbGwtb3BhY2l0eToxO3N0cm9rZTojNjYzNzY2O3N0cm9rZS13aWR0aDowLjI2NDU4MzMycHg7c3Ryb2tlLWxpbmVjYXA6YnV0dDtzdHJva2UtbGluZWpvaW46bWl0ZXI7c3Ryb2tlLW9wYWNpdHk6MSIgZD0ibSAxMzguMDU1OCwyNTcuMzEyNSBjIDkuODI0NDcsLTE3Ljg1MTY5IDM1LjY0NDMsLTE3LjcwMjQ2IDQ0LjY5NTY5LDAgeiIgaWQ9InBhdGgxNzgxIiBpbmtzY2FwZTpjb25uZWN0b3ItY3VydmF0dXJlPSIwIiBzb2RpcG9kaTpub2RldHlwZXM9ImNjYyIvPiYjeGE7ICAgICAgPHBhdGggc3R5bGU9ImZpbGw6I2ZmZmZmZjtmaWxsLW9wYWNpdHk6MTtzdHJva2U6IzY2Mzc2NjtzdHJva2Utd2lkdGg6MC45NzI5ODQ2MTtzdHJva2UtbGluZWNhcDpidXR0O3N0cm9rZS1saW5lam9pbjptaXRlcjtzdHJva2UtbWl0ZXJsaW1pdDo0O3N0cm9rZS1kYXNoYXJyYXk6bm9uZTtzdHJva2Utb3BhY2l0eToxIiBkPSJtIDE0MS45NzQwNywyNjUuNjk2ODggMzcuNjI4MjYsLTAuMTQ4MjcgMC4yMjgwNiwtMC4wNzQxIiBpZD0icGF0aDE3ODMiIGlua3NjYXBlOmNvbm5lY3Rvci1jdXJ2YXR1cmU9IjAiLz4mI3hhOyAgICAgIDxwYXRoIGlua3NjYXBlOmNvbm5lY3Rvci1jdXJ2YXR1cmU9IjAiIGlkPSJwYXRoMTc4OSIgZD0ibSAxNDEuNTk2MDksMjcyLjY4OTQ0IDM3LjYyODI2LC0wLjE0ODI3IDAuMjI4MDYsLTAuMDc0MSIgc3R5bGU9ImZpbGw6I2ZmZmZmZjtmaWxsLW9wYWNpdHk6MTtzdHJva2U6IzY2Mzc2NjtzdHJva2Utd2lkdGg6MC45NzI5ODQ2MTtzdHJva2UtbGluZWNhcDpidXR0O3N0cm9rZS1saW5lam9pbjptaXRlcjtzdHJva2UtbWl0ZXJsaW1pdDo0O3N0cm9rZS1kYXNoYXJyYXk6bm9uZTtzdHJva2Utb3BhY2l0eToxIi8+JiN4YTsgICAgICA8cGF0aCBzdHlsZT0iZmlsbDojZmZmZmZmO2ZpbGwtb3BhY2l0eToxO3N0cm9rZTojNjYzNzY2O3N0cm9rZS13aWR0aDowLjk3Mjk4NDYxO3N0cm9rZS1saW5lY2FwOmJ1dHQ7c3Ryb2tlLWxpbmVqb2luOm1pdGVyO3N0cm9rZS1taXRlcmxpbWl0OjQ7c3Ryb2tlLWRhc2hhcnJheTpub25lO3N0cm9rZS1vcGFjaXR5OjEiIGQ9Im0gMTQxLjc4NTA4LDI3OS44NzA5OSAzNy42MjgyNiwtMC4xNDgyNyAwLjIyODA2LC0wLjA3NDEiIGlkPSJwYXRoMTc5MSIgaW5rc2NhcGU6Y29ubmVjdG9yLWN1cnZhdHVyZT0iMCIvPiYjeGE7ICAgIDwvZz4mI3hhOyAgPC9nPiYjeGE7ICA8ZyBpbmtzY2FwZTpncm91cG1vZGU9ImxheWVyIiBpZD0ibGF5ZXIzIiBpbmtzY2FwZTpsYWJlbD0iRGlhbG9ndWUgQWN0IiBzdHlsZT0iZGlzcGxheTpub25lIiB0cmFuc2Zvcm09InRyYW5zbGF0ZSgtMTQzLjMwOTE4LC0xNjQuOTExNjIpIj4mI3hhOyAgICA8ZyBzdHlsZT0iZGlzcGxheTppbmxpbmUiIGlkPSJnMTg2OSI+JiN4YTsgICAgICA8ZWxsaXBzZSBzdHlsZT0ib3BhY2l0eToxO2ZpbGw6Izk5OTk5OTtmaWxsLW9wYWNpdHk6MTtzdHJva2U6Izk5OTk5OTtzdHJva2Utd2lkdGg6MS41O3N0cm9rZS1taXRlcmxpbWl0OjQ7c3Ryb2tlLWRhc2hhcnJheTpub25lO3N0cm9rZS1vcGFjaXR5OjE7ZmlsdGVyOnVybCgjZmlsdGVyMTY4MykiIGlkPSJlbGxpcHNlMTQ4MyIgY3g9IjE0NS43MDk4MSIgY3k9Ijk3LjA1MDU4MyIgcng9IjExLjE1MDI5NyIgcnk9IjExLjMzOTI4NiIvPiYjeGE7ICAgICAgPGVsbGlwc2Ugcnk9IjExLjMzOTI4NiIgcng9IjExLjE1MDI5NyIgY3k9Ijk0LjYwNzE3OCIgY3g9IjE0Ny4zMDk1MSIgaWQ9InBhdGgxMzc5IiBzdHlsZT0ib3BhY2l0eToxO2ZpbGw6dXJsKCNsaW5lYXJHcmFkaWVudDE4NTcpO2ZpbGwtb3BhY2l0eToxO3N0cm9rZTojNjYzNzY2O3N0cm9rZS13aWR0aDoxLjU7c3Ryb2tlLW1pdGVybGltaXQ6NDtzdHJva2UtZGFzaGFycmF5Om5vbmU7c3Ryb2tlLW9wYWNpdHk6MSIvPiYjeGE7ICAgIDwvZz4mI3hhOyAgPC9nPiYjeGE7ICA8ZyBpbmtzY2FwZTpncm91cG1vZGU9ImxheWVyIiBpZD0ibGF5ZXIyIiBpbmtzY2FwZTpsYWJlbD0iTXVsdGlwbGUgdG9waWMiIHN0eWxlPSJkaXNwbGF5Om5vbmUiIHRyYW5zZm9ybT0idHJhbnNsYXRlKC0xNDMuMzA5MTgsLTE2NC45MTE2MikiPiYjeGE7ICAgIDxyZWN0IHN0eWxlPSJvcGFjaXR5OjE7ZmlsbDpub25lO2ZpbGwtb3BhY2l0eToxO3N0cm9rZTojNjYzNzY2O3N0cm9rZS13aWR0aDoxLjM3NDg0NTg2O3N0cm9rZS1taXRlcmxpbWl0OjQ7c3Ryb2tlLWRhc2hhcnJheTpub25lO3N0cm9rZS1vcGFjaXR5OjEiIGlkPSJyZWN0MTM2NSIgd2lkdGg9IjEzNS45NjcyMSIgaGVpZ2h0PSI4MS4wMzA1NjMiIHg9IjEzLjA3NzYxMyIgeT0iMTMzLjI2NDQ3IiByeT0iMTAuNjMyOTciLz4mI3hhOyAgICA8cmVjdCByeT0iOS40NDgwNTYyIiB5PSIxMzcuOTcwNTUiIHg9IjE5LjY2NDk2OCIgaGVpZ2h0PSI3Mi4wMDA2OTQiIHdpZHRoPSIxMjIuNzkyNDkiIGlkPSJyZWN0MTM2NyIgc3R5bGU9Im9wYWNpdHk6MTtmaWxsOm5vbmU7ZmlsbC1vcGFjaXR5OjE7c3Ryb2tlOiM2NjM3NjY7c3Ryb2tlLXdpZHRoOjEuMzQyNzU5MDE7c3Ryb2tlLW1pdGVybGltaXQ6NDtzdHJva2UtZGFzaGFycmF5Om5vbmU7c3Ryb2tlLW9wYWNpdHk6MSIvPiYjeGE7ICA8L2c+JiN4YTs8L3N2Zz4=;shadow=1;strokeColor=#540054;strokeWidth=3;fillColor=none;gradientColor=#E69CDC;fontFamily=Tahoma;fontSize=16;fontColor=#000000;align=left;" parent="2tFBRqaM1ZA4eUpaGNYp-64" vertex="1">
          <mxGeometry width="90.68" height="90" as="geometry" />
        </mxCell>
        <mxCell id="2tFBRqaM1ZA4eUpaGNYp-67" value="&lt;font style=&quot;font-size: 24px&quot;&gt;All Services&lt;/font&gt;" style="text;html=1;strokeColor=none;fillColor=none;align=center;verticalAlign=middle;whiteSpace=wrap;rounded=0;shadow=1;fontFamily=Tahoma;fontSize=16;fontColor=#000000;" parent="2tFBRqaM1ZA4eUpaGNYp-64" vertex="1">
          <mxGeometry x="95" y="129" width="40" height="20" as="geometry" />
        </mxCell>
        <mxCell id="2tFBRqaM1ZA4eUpaGNYp-68" value="" style="html=1;shadow=0;dashed=0;align=center;verticalAlign=middle;shape=mxgraph.arrows2.quadArrow;dy=10;dx=20;notch=24;arrowHead=10;strokeColor=#540054;strokeWidth=3;fillColor=#540054;gradientColor=#E69CDC;fontFamily=Tahoma;fontSize=16;fontColor=#000000;" parent="2tFBRqaM1ZA4eUpaGNYp-64" vertex="1">
          <mxGeometry x="-20" y="190" width="110" height="110" as="geometry" />
        </mxCell>
        <mxCell id="2tFBRqaM1ZA4eUpaGNYp-173" value="" style="endArrow=classic;html=1;shadow=0;strokeColor=#660066;strokeWidth=2;fillColor=#660066;gradientColor=#E69CDC;fontFamily=Tahoma;fontSize=16;fontColor=#000000;shape=link;width=9.310344827586206;exitX=0.5;exitY=1;exitDx=0;exitDy=0;exitPerimeter=0;entryX=0;entryY=0.5;entryDx=0;entryDy=0;entryPerimeter=0;" parent="2tFBRqaM1ZA4eUpaGNYp-64" target="2tFBRqaM1ZA4eUpaGNYp-171" edge="1">
          <mxGeometry width="50" height="50" relative="1" as="geometry">
            <mxPoint x="99.5" y="249" as="sourcePoint" />
            <mxPoint x="99.5" y="348" as="targetPoint" />
          </mxGeometry>
        </mxCell>
        <mxCell id="2tFBRqaM1ZA4eUpaGNYp-75" value="" style="group;fontSize=15;" parent="1" vertex="1" connectable="0">
          <mxGeometry x="730" y="50" width="220" height="270" as="geometry" />
        </mxCell>
        <mxCell id="2tFBRqaM1ZA4eUpaGNYp-70" value="" style="group;fillColor=#f5f5f5;strokeColor=#666666;fontColor=#333333;" parent="2tFBRqaM1ZA4eUpaGNYp-75" vertex="1" connectable="0">
          <mxGeometry y="50" width="170" height="220" as="geometry" />
        </mxCell>
        <mxCell id="2tFBRqaM1ZA4eUpaGNYp-71" value="" style="shape=card;whiteSpace=wrap;html=1;shadow=1;strokeColor=#540054;strokeWidth=3;fillColor=none;gradientColor=#E69CDC;fontFamily=Tahoma;fontSize=16;fontColor=#000000;align=left;flipH=1;" parent="2tFBRqaM1ZA4eUpaGNYp-70" vertex="1">
          <mxGeometry width="170" height="220" as="geometry" />
        </mxCell>
        <mxCell id="2tFBRqaM1ZA4eUpaGNYp-72" value="&lt;font style=&quot;font-size: 24px&quot;&gt;Home&lt;/font&gt;" style="text;html=1;strokeColor=none;fillColor=none;align=center;verticalAlign=middle;whiteSpace=wrap;rounded=0;shadow=1;fontFamily=Tahoma;fontSize=16;fontColor=#000000;" parent="2tFBRqaM1ZA4eUpaGNYp-70" vertex="1">
          <mxGeometry x="50" y="107" width="40" height="20" as="geometry" />
        </mxCell>
        <mxCell id="2tFBRqaM1ZA4eUpaGNYp-74" value="" style="html=1;shadow=0;dashed=0;align=center;verticalAlign=middle;shape=mxgraph.arrows2.quadArrow;dy=10;dx=20;notch=24;arrowHead=10;strokeColor=#540054;strokeWidth=3;fillColor=#540054;gradientColor=#E69CDC;fontFamily=Tahoma;fontSize=16;fontColor=#000000;" parent="2tFBRqaM1ZA4eUpaGNYp-75" vertex="1">
          <mxGeometry x="110" width="110" height="110" as="geometry" />
        </mxCell>
        <mxCell id="2tFBRqaM1ZA4eUpaGNYp-77" value="" style="endArrow=classic;html=1;shadow=0;strokeColor=#660066;strokeWidth=3;fillColor=#660066;gradientColor=#E69CDC;fontFamily=Tahoma;fontSize=16;fontColor=#000000;exitX=0.5;exitY=1;exitDx=0;exitDy=0;exitPerimeter=0;entryX=0.5;entryY=0;entryDx=0;entryDy=0;entryPerimeter=0;" parent="1" source="2tFBRqaM1ZA4eUpaGNYp-71" target="2tFBRqaM1ZA4eUpaGNYp-65" edge="1">
          <mxGeometry width="50" height="50" relative="1" as="geometry">
            <mxPoint x="400" y="370" as="sourcePoint" />
            <mxPoint x="480" y="400" as="targetPoint" />
            <Array as="points">
              <mxPoint x="815" y="360" />
              <mxPoint x="195" y="360" />
            </Array>
          </mxGeometry>
        </mxCell>
        <mxCell id="2tFBRqaM1ZA4eUpaGNYp-79" value="" style="group" parent="1" vertex="1" connectable="0">
          <mxGeometry x="480" y="440" width="200" height="300" as="geometry" />
        </mxCell>
        <mxCell id="2tFBRqaM1ZA4eUpaGNYp-80" value="" style="group" parent="2tFBRqaM1ZA4eUpaGNYp-79" vertex="1" connectable="0">
          <mxGeometry width="200" height="300" as="geometry" />
        </mxCell>
        <mxCell id="2tFBRqaM1ZA4eUpaGNYp-81" value="" style="group" parent="2tFBRqaM1ZA4eUpaGNYp-80" vertex="1" connectable="0">
          <mxGeometry width="200" height="300" as="geometry" />
        </mxCell>
        <mxCell id="2tFBRqaM1ZA4eUpaGNYp-82" value="" style="shape=card;whiteSpace=wrap;html=1;shadow=1;strokeColor=#540054;strokeWidth=3;fillColor=none;gradientColor=#E69CDC;fontFamily=Tahoma;fontSize=16;fontColor=#000000;align=left;flipH=1;" parent="2tFBRqaM1ZA4eUpaGNYp-81" vertex="1">
          <mxGeometry x="30" y="29" width="170" height="220" as="geometry" />
        </mxCell>
        <mxCell id="2tFBRqaM1ZA4eUpaGNYp-83" value="" style="shape=image;verticalLabelPosition=bottom;verticalAlign=top;imageAspect=0;aspect=fixed;image=data:image/svg+xml,PHN2ZyB4bWxuczpkYz0iaHR0cDovL3B1cmwub3JnL2RjL2VsZW1lbnRzLzEuMS8iIHhtbG5zOmNjPSJodHRwOi8vY3JlYXRpdmVjb21tb25zLm9yZy9ucyMiIHhtbG5zOnJkZj0iaHR0cDovL3d3dy53My5vcmcvMTk5OS8wMi8yMi1yZGYtc3ludGF4LW5zIyIgeG1sbnM6c3ZnPSJodHRwOi8vd3d3LnczLm9yZy8yMDAwL3N2ZyIgeG1sbnM9Imh0dHA6Ly93d3cudzMub3JnLzIwMDAvc3ZnIiB4bWxuczp4bGluaz0iaHR0cDovL3d3dy53My5vcmcvMTk5OS94bGluayIgeG1sbnM6c29kaXBvZGk9Imh0dHA6Ly9zb2RpcG9kaS5zb3VyY2Vmb3JnZS5uZXQvRFREL3NvZGlwb2RpLTAuZHRkIiB4bWxuczppbmtzY2FwZT0iaHR0cDovL3d3dy5pbmtzY2FwZS5vcmcvbmFtZXNwYWNlcy9pbmtzY2FwZSIgd2lkdGg9IjEzNC4zMjQ0bW0iIGhlaWdodD0iMTMyLjg2NTY5bW0iIHZpZXdCb3g9IjAgMCAxMzQuMzI0NCAxMzIuODY1NjkiIHZlcnNpb249IjEuMSIgaWQ9InN2ZzgyMCIgaW5rc2NhcGU6dmVyc2lvbj0iMC45Mi40ICg1ZGE2ODljMzEzLCAyMDE5LTAxLTE0KSIgc29kaXBvZGk6ZG9jbmFtZT0iSW50cm9kdWN0b3J5IGFjdCAtIEdyb3VwIG9mIHRvcGljcy5zdmciPiYjeGE7ICA8ZGVmcyBpZD0iZGVmczgxNCI+JiN4YTsgICAgPGxpbmVhckdyYWRpZW50IGlua3NjYXBlOmNvbGxlY3Q9ImFsd2F5cyIgaWQ9ImxpbmVhckdyYWRpZW50MTgxNSI+JiN4YTsgICAgICA8c3RvcCBzdHlsZT0ic3RvcC1jb2xvcjojNjYzNzY2O3N0b3Atb3BhY2l0eToxIiBvZmZzZXQ9IjAiIGlkPSJzdG9wMTgxMSIvPiYjeGE7ICAgICAgPHN0b3Agc3R5bGU9InN0b3AtY29sb3I6I2FmNzZiZDtzdG9wLW9wYWNpdHk6MSIgb2Zmc2V0PSIxIiBpZD0ic3RvcDE4MTMiLz4mI3hhOyAgICA8L2xpbmVhckdyYWRpZW50PiYjeGE7ICAgIDxmaWx0ZXIgaW5rc2NhcGU6Y29sbGVjdD0iYWx3YXlzIiBzdHlsZT0iY29sb3ItaW50ZXJwb2xhdGlvbi1maWx0ZXJzOnNSR0IiIGlkPSJmaWx0ZXIxNjgzIiB4PSItMC4wNDcxOTY2MTIiIHdpZHRoPSIxLjA5NDM5MzMiIHk9Ii0wLjA0NjQwOTk5OCIgaGVpZ2h0PSIxLjA5MjgyIj4mI3hhOyAgICAgIDxmZUdhdXNzaWFuQmx1ciBpbmtzY2FwZTpjb2xsZWN0PSJhbHdheXMiIHN0ZERldmlhdGlvbj0iMC40Mzg1NDY4NyIgaWQ9ImZlR2F1c3NpYW5CbHVyMTY4NSIvPiYjeGE7ICAgIDwvZmlsdGVyPiYjeGE7ICAgIDxsaW5lYXJHcmFkaWVudCBpbmtzY2FwZTpjb2xsZWN0PSJhbHdheXMiIHhsaW5rOmhyZWY9IiNsaW5lYXJHcmFkaWVudDE4MTUiIGlkPSJsaW5lYXJHcmFkaWVudDE4NTciIHgxPSIxNTEuMzc5NDciIHkxPSI5MS43NTg5MjYiIHgyPSIxNDYuODQzNzUiIHkyPSIxMDUuOTMzMDQiIGdyYWRpZW50VW5pdHM9InVzZXJTcGFjZU9uVXNlIi8+JiN4YTsgIDwvZGVmcz4mI3hhOyAgPHNvZGlwb2RpOm5hbWVkdmlldyBpZD0iYmFzZSIgcGFnZWNvbG9yPSIjZmZmZmZmIiBib3JkZXJjb2xvcj0iIzY2NjY2NiIgYm9yZGVyb3BhY2l0eT0iMS4wIiBpbmtzY2FwZTpwYWdlb3BhY2l0eT0iMC4wIiBpbmtzY2FwZTpwYWdlc2hhZG93PSIyIiBpbmtzY2FwZTp6b29tPSIwLjM1IiBpbmtzY2FwZTpjeD0iODI2LjYzNzc4IiBpbmtzY2FwZTpjeT0iOTM5LjU5NSIgaW5rc2NhcGU6ZG9jdW1lbnQtdW5pdHM9Im1tIiBpbmtzY2FwZTpjdXJyZW50LWxheWVyPSJsYXllcjQiIHNob3dncmlkPSJmYWxzZSIgaW5rc2NhcGU6d2luZG93LXdpZHRoPSIxOTIwIiBpbmtzY2FwZTp3aW5kb3ctaGVpZ2h0PSIxMDEzIiBpbmtzY2FwZTp3aW5kb3cteD0iLTkiIGlua3NjYXBlOndpbmRvdy15PSItOSIgaW5rc2NhcGU6d2luZG93LW1heGltaXplZD0iMSIvPiYjeGE7ICA8bWV0YWRhdGEgaWQ9Im1ldGFkYXRhODE3Ij4mI3hhOyAgICA8cmRmOlJERj4mI3hhOyAgICAgIDxjYzpXb3JrIHJkZjphYm91dD0iIj4mI3hhOyAgICAgICAgPGRjOmZvcm1hdD5pbWFnZS9zdmcreG1sPC9kYzpmb3JtYXQ+JiN4YTsgICAgICAgIDxkYzp0eXBlIHJkZjpyZXNvdXJjZT0iaHR0cDovL3B1cmwub3JnL2RjL2RjbWl0eXBlL1N0aWxsSW1hZ2UiLz4mI3hhOyAgICAgICAgPGRjOnRpdGxlLz4mI3hhOyAgICAgIDwvY2M6V29yaz4mI3hhOyAgICA8L3JkZjpSREY+JiN4YTsgIDwvbWV0YWRhdGE+JiN4YTsgIDxnIGlua3NjYXBlOmxhYmVsPSJUb3BpYyIgaW5rc2NhcGU6Z3JvdXBtb2RlPSJsYXllciIgaWQ9ImxheWVyMSIgc3R5bGU9ImRpc3BsYXk6bm9uZSIgdHJhbnNmb3JtPSJ0cmFuc2xhdGUoLTE0My4zMDkxOCwtMTY0LjkxMTYyKSI+JiN4YTsgICAgPHJlY3Qgcnk9IjEwLjU1NDE1MSIgeT0iMTMzLjU0NSIgeD0iMTIuMzI1MjQ1IiBoZWlnaHQ9IjgwLjQyOTkwOSIgd2lkdGg9IjEzNC44NTg0NiIgaWQ9InJlY3QxMzY5IiBzdHlsZT0ib3BhY2l0eToxO2ZpbGw6bm9uZTtmaWxsLW9wYWNpdHk6MTtzdHJva2U6IzY2Mzc2NjtzdHJva2Utd2lkdGg6MS4zNjQxNDQ0NDtzdHJva2UtbWl0ZXJsaW1pdDo0O3N0cm9rZS1kYXNoYXJyYXk6bm9uZTtzdHJva2Utb3BhY2l0eToxIi8+JiN4YTsgIDwvZz4mI3hhOyAgPGcgaW5rc2NhcGU6Z3JvdXBtb2RlPSJsYXllciIgaWQ9ImxheWVyNiIgaW5rc2NhcGU6bGFiZWw9InRyYW5zaXRpb24gYWN0IiBzdHlsZT0iZGlzcGxheTpub25lIiB0cmFuc2Zvcm09InRyYW5zbGF0ZSgtMTQzLjMwOTE4LC0xNjQuOTExNjIpIj4mI3hhOyAgICA8ZyBzdHlsZT0iZGlzcGxheTppbmxpbmUiIGlkPSJnMTg3OSI+JiN4YTsgICAgICA8ZWxsaXBzZSByeT0iMjAuNjYxMzgxIiByeD0iMjIuMzYyMjc0IiBjeT0iMTQ4LjY0NDM1IiBjeD0iMTYwLjY4NzEyIiBpZD0iY2lyY2xlMTg1OSIgc3R5bGU9Im9wYWNpdHk6MTtmaWxsOiNmZmZmZmY7ZmlsbC1vcGFjaXR5OjE7c3Ryb2tlOiM2NjM3NjY7c3Ryb2tlLXdpZHRoOjAuODYxOTAxNDY7c3Ryb2tlLW1pdGVybGltaXQ6NDtzdHJva2UtZGFzaGFycmF5Om5vbmU7c3Ryb2tlLW9wYWNpdHk6MSIvPiYjeGE7ICAgICAgPHBhdGggaW5rc2NhcGU6Y29ubmVjdG9yLWN1cnZhdHVyZT0iMCIgaWQ9InBhdGgxODYxIiBkPSJtIDE0My44MjcyNCwxNDAuOTQ3MzEgMzQuMzA1ODMsLTAuMTczNDMgMC4yMDc5MiwtMC4wODY2IiBzdHlsZT0iZmlsbDojZmZmZmZmO2ZpbGwtb3BhY2l0eToxO3N0cm9rZTojNjYzNzY2O3N0cm9rZS13aWR0aDoxLjAwNDc3MzAyO3N0cm9rZS1saW5lY2FwOmJ1dHQ7c3Ryb2tlLWxpbmVqb2luOm1pdGVyO3N0cm9rZS1taXRlcmxpbWl0OjQ7c3Ryb2tlLWRhc2hhcnJheTpub25lO3N0cm9rZS1vcGFjaXR5OjEiLz4mI3hhOyAgICAgIDxwYXRoIHN0eWxlPSJmaWxsOiNmZmZmZmY7ZmlsbC1vcGFjaXR5OjE7c3Ryb2tlOiM2NjM3NjY7c3Ryb2tlLXdpZHRoOjEuMDA0NzczMDI7c3Ryb2tlLWxpbmVjYXA6YnV0dDtzdHJva2UtbGluZWpvaW46bWl0ZXI7c3Ryb2tlLW1pdGVybGltaXQ6NDtzdHJva2UtZGFzaGFycmF5Om5vbmU7c3Ryb2tlLW9wYWNpdHk6MSIgZD0ibSAxNDMuNDgyNjMsMTQ5LjEyNjQzIDM0LjMwNTg0LC0wLjE3MzQ0IDAuMjA3OTIsLTAuMDg2NiIgaWQ9InBhdGgxODYzIiBpbmtzY2FwZTpjb25uZWN0b3ItY3VydmF0dXJlPSIwIi8+JiN4YTsgICAgICA8cGF0aCBpbmtzY2FwZTpjb25uZWN0b3ItY3VydmF0dXJlPSIwIiBpZD0icGF0aDE4NjUiIGQ9Im0gMTQzLjY1NDkzLDE1Ny41MjY2IDM0LjMwNTg0LC0wLjE3MzQzIDAuMjA3OTIsLTAuMDg2NiIgc3R5bGU9ImZpbGw6I2ZmZmZmZjtmaWxsLW9wYWNpdHk6MTtzdHJva2U6IzY2Mzc2NjtzdHJva2Utd2lkdGg6MS4wMDQ3NzMwMjtzdHJva2UtbGluZWNhcDpidXR0O3N0cm9rZS1saW5lam9pbjptaXRlcjtzdHJva2UtbWl0ZXJsaW1pdDo0O3N0cm9rZS1kYXNoYXJyYXk6bm9uZTtzdHJva2Utb3BhY2l0eToxIi8+JiN4YTsgICAgPC9nPiYjeGE7ICA8L2c+JiN4YTsgIDxnIGlua3NjYXBlOmdyb3VwbW9kZT0ibGF5ZXIiIGlkPSJsYXllcjUiIGlua3NjYXBlOmxhYmVsPSJJbnRyb18gbXVsdGlwbGUgZ3JvdXBzIG9mIHRvcGljcyIgc3R5bGU9ImRpc3BsYXk6bm9uZSIgdHJhbnNmb3JtPSJ0cmFuc2xhdGUoLTE0My4zMDkxOCwtMTY0LjkxMTYyKSI+JiN4YTsgICAgPGcgc3R5bGU9ImRpc3BsYXk6aW5saW5lIiBpZD0iZzE4ODciIHRyYW5zZm9ybT0ibWF0cml4KDIuNjQwMTIxNCwwLDAsMi42MTE0NTA2LC0yMTQuMzE0MDEsLTM4MC45OTQ3OCkiPiYjeGE7ICAgICAgPGNpcmNsZSByPSIyNC45MzkwNTgiIGN5PSIyMTMuMjc4MjciIGN4PSIxNjEuMjU0MDkiIGlkPSJwYXRoMTc0OSIgc3R5bGU9Im9wYWNpdHk6MTtmaWxsOiNmZmZmZmY7ZmlsbC1vcGFjaXR5OjE7c3Ryb2tlOiM2NjM3NjY7c3Ryb2tlLXdpZHRoOjE7c3Ryb2tlLW1pdGVybGltaXQ6NDtzdHJva2UtZGFzaGFycmF5Om5vbmU7c3Ryb2tlLW9wYWNpdHk6MSIvPiYjeGE7ICAgICAgPGNpcmNsZSBzdHlsZT0ib3BhY2l0eToxO2ZpbGw6I2ZmZmZmZjtmaWxsLW9wYWNpdHk6MTtzdHJva2U6IzY2Mzc2NjtzdHJva2Utd2lkdGg6MC44ODExMzUxNztzdHJva2UtbWl0ZXJsaW1pdDo0O3N0cm9rZS1kYXNoYXJyYXk6bm9uZTtzdHJva2Utb3BhY2l0eToxIiBpZD0iY2lyY2xlMTc1MSIgY3g9IjE2MS4yNTQwOSIgY3k9IjIxMy4yNzgyNyIgcj0iMjEuOTc0NjgyIi8+JiN4YTsgICAgICA8cGF0aCBzb2RpcG9kaTpub2RldHlwZXM9ImNjYyIgaW5rc2NhcGU6Y29ubmVjdG9yLWN1cnZhdHVyZT0iMCIgaWQ9InBhdGgxNzU1IiBkPSJtIDEzOS4wMDA3NCwyMDEuOTM4OTkgYyA5LjgyNDQ3LC0xNy44NTE2OSAzNS42NDQzLC0xNy43MDI0NiA0NC42OTU2OSwwIHoiIHN0eWxlPSJmaWxsOiM2NjM3NjY7ZmlsbC1vcGFjaXR5OjE7c3Ryb2tlOiM2NjM3NjY7c3Ryb2tlLXdpZHRoOjAuMjY0NTgzMzJweDtzdHJva2UtbGluZWNhcDpidXR0O3N0cm9rZS1saW5lam9pbjptaXRlcjtzdHJva2Utb3BhY2l0eToxIi8+JiN4YTsgICAgICA8cGF0aCBpbmtzY2FwZTpjb25uZWN0b3ItY3VydmF0dXJlPSIwIiBpZD0icGF0aDE3NTciIGQ9Im0gMTQ1LjYxNTMyLDIxMC4wNjU0OCAzMS4xODMwNCwtMC4xODg5OSAwLjE4ODk5LC0wLjA5NDUiIHN0eWxlPSJmaWxsOiNmZmZmZmY7ZmlsbC1vcGFjaXR5OjE7c3Ryb2tlOiM2NjM3NjY7c3Ryb2tlLXdpZHRoOjE7c3Ryb2tlLWxpbmVjYXA6YnV0dDtzdHJva2UtbGluZWpvaW46bWl0ZXI7c3Ryb2tlLW1pdGVybGltaXQ6NDtzdHJva2UtZGFzaGFycmF5Om5vbmU7c3Ryb2tlLW9wYWNpdHk6MSIvPiYjeGE7ICAgICAgPHBhdGggc3R5bGU9ImZpbGw6I2ZmZmZmZjtmaWxsLW9wYWNpdHk6MTtzdHJva2U6IzY2Mzc2NjtzdHJva2Utd2lkdGg6MTtzdHJva2UtbGluZWNhcDpidXR0O3N0cm9rZS1saW5lam9pbjptaXRlcjtzdHJva2UtbWl0ZXJsaW1pdDo0O3N0cm9rZS1kYXNoYXJyYXk6bm9uZTtzdHJva2Utb3BhY2l0eToxIiBkPSJtIDE0NS42MTUzMiwyMTYuODY5MDQgMzEuMTgzMDQsLTAuMTg4OTkgMC4xODg5OSwtMC4wOTQ1IiBpZD0icGF0aDE3NTkiIGlua3NjYXBlOmNvbm5lY3Rvci1jdXJ2YXR1cmU9IjAiLz4mI3hhOyAgICAgIDxwYXRoIGlua3NjYXBlOmNvbm5lY3Rvci1jdXJ2YXR1cmU9IjAiIGlkPSJwYXRoMTc2MSIgZD0ibSAxNDUuNDI2MzQsMjIzLjg2MTYxIDMxLjE4MzA0LC0wLjE4ODk5IDAuMTg4OTksLTAuMDk0NSIgc3R5bGU9ImZpbGw6I2ZmZmZmZjtmaWxsLW9wYWNpdHk6MTtzdHJva2U6IzY2Mzc2NjtzdHJva2Utd2lkdGg6MTtzdHJva2UtbGluZWNhcDpidXR0O3N0cm9rZS1saW5lam9pbjptaXRlcjtzdHJva2UtbWl0ZXJsaW1pdDo0O3N0cm9rZS1kYXNoYXJyYXk6bm9uZTtzdHJva2Utb3BhY2l0eToxIi8+JiN4YTsgICAgPC9nPiYjeGE7ICA8L2c+JiN4YTsgIDxnIGlua3NjYXBlOmdyb3VwbW9kZT0ibGF5ZXIiIGlkPSJsYXllcjQiIGlua3NjYXBlOmxhYmVsPSJJbnRyb19Hcm91cCBvZiB0b3BpY3MiIHN0eWxlPSJkaXNwbGF5OmlubGluZSIgdHJhbnNmb3JtPSJ0cmFuc2xhdGUoLTE0My4zMDkxOCwtMTY0LjkxMTYyKSI+JiN4YTsgICAgPGcgc3R5bGU9ImRpc3BsYXk6aW5saW5lIiBpZD0iZzE4OTQiIHRyYW5zZm9ybT0ibWF0cml4KDIuNjQwMTIxNCwwLDAsMi42MTE0NTA2LC0yMTIuNzY0MjIsLTQ3MC4yMjY0MykiPiYjeGE7ICAgICAgPGNpcmNsZSBzdHlsZT0ib3BhY2l0eToxO2ZpbGw6I2ZmZmZmZjtmaWxsLW9wYWNpdHk6MTtzdHJva2U6IzY2Mzc2NjtzdHJva2Utd2lkdGg6MTtzdHJva2UtbWl0ZXJsaW1pdDo0O3N0cm9rZS1kYXNoYXJyYXk6bm9uZTtzdHJva2Utb3BhY2l0eToxIiBpZD0iY2lyY2xlMTc3NyIgY3g9IjE2MC4zMDkxNCIgY3k9IjI2OC42NTE3OSIgcj0iMjQuOTM5MDU4Ii8+JiN4YTsgICAgICA8cGF0aCBzdHlsZT0iZmlsbDojNjYzNzY2O2ZpbGwtb3BhY2l0eToxO3N0cm9rZTojNjYzNzY2O3N0cm9rZS13aWR0aDowLjI2NDU4MzMycHg7c3Ryb2tlLWxpbmVjYXA6YnV0dDtzdHJva2UtbGluZWpvaW46bWl0ZXI7c3Ryb2tlLW9wYWNpdHk6MSIgZD0ibSAxMzguMDU1OCwyNTcuMzEyNSBjIDkuODI0NDcsLTE3Ljg1MTY5IDM1LjY0NDMsLTE3LjcwMjQ2IDQ0LjY5NTY5LDAgeiIgaWQ9InBhdGgxNzgxIiBpbmtzY2FwZTpjb25uZWN0b3ItY3VydmF0dXJlPSIwIiBzb2RpcG9kaTpub2RldHlwZXM9ImNjYyIvPiYjeGE7ICAgICAgPHBhdGggc3R5bGU9ImZpbGw6I2ZmZmZmZjtmaWxsLW9wYWNpdHk6MTtzdHJva2U6IzY2Mzc2NjtzdHJva2Utd2lkdGg6MC45NzI5ODQ2MTtzdHJva2UtbGluZWNhcDpidXR0O3N0cm9rZS1saW5lam9pbjptaXRlcjtzdHJva2UtbWl0ZXJsaW1pdDo0O3N0cm9rZS1kYXNoYXJyYXk6bm9uZTtzdHJva2Utb3BhY2l0eToxIiBkPSJtIDE0MS45NzQwNywyNjUuNjk2ODggMzcuNjI4MjYsLTAuMTQ4MjcgMC4yMjgwNiwtMC4wNzQxIiBpZD0icGF0aDE3ODMiIGlua3NjYXBlOmNvbm5lY3Rvci1jdXJ2YXR1cmU9IjAiLz4mI3hhOyAgICAgIDxwYXRoIGlua3NjYXBlOmNvbm5lY3Rvci1jdXJ2YXR1cmU9IjAiIGlkPSJwYXRoMTc4OSIgZD0ibSAxNDEuNTk2MDksMjcyLjY4OTQ0IDM3LjYyODI2LC0wLjE0ODI3IDAuMjI4MDYsLTAuMDc0MSIgc3R5bGU9ImZpbGw6I2ZmZmZmZjtmaWxsLW9wYWNpdHk6MTtzdHJva2U6IzY2Mzc2NjtzdHJva2Utd2lkdGg6MC45NzI5ODQ2MTtzdHJva2UtbGluZWNhcDpidXR0O3N0cm9rZS1saW5lam9pbjptaXRlcjtzdHJva2UtbWl0ZXJsaW1pdDo0O3N0cm9rZS1kYXNoYXJyYXk6bm9uZTtzdHJva2Utb3BhY2l0eToxIi8+JiN4YTsgICAgICA8cGF0aCBzdHlsZT0iZmlsbDojZmZmZmZmO2ZpbGwtb3BhY2l0eToxO3N0cm9rZTojNjYzNzY2O3N0cm9rZS13aWR0aDowLjk3Mjk4NDYxO3N0cm9rZS1saW5lY2FwOmJ1dHQ7c3Ryb2tlLWxpbmVqb2luOm1pdGVyO3N0cm9rZS1taXRlcmxpbWl0OjQ7c3Ryb2tlLWRhc2hhcnJheTpub25lO3N0cm9rZS1vcGFjaXR5OjEiIGQ9Im0gMTQxLjc4NTA4LDI3OS44NzA5OSAzNy42MjgyNiwtMC4xNDgyNyAwLjIyODA2LC0wLjA3NDEiIGlkPSJwYXRoMTc5MSIgaW5rc2NhcGU6Y29ubmVjdG9yLWN1cnZhdHVyZT0iMCIvPiYjeGE7ICAgIDwvZz4mI3hhOyAgPC9nPiYjeGE7ICA8ZyBpbmtzY2FwZTpncm91cG1vZGU9ImxheWVyIiBpZD0ibGF5ZXIzIiBpbmtzY2FwZTpsYWJlbD0iRGlhbG9ndWUgQWN0IiBzdHlsZT0iZGlzcGxheTpub25lIiB0cmFuc2Zvcm09InRyYW5zbGF0ZSgtMTQzLjMwOTE4LC0xNjQuOTExNjIpIj4mI3hhOyAgICA8ZyBzdHlsZT0iZGlzcGxheTppbmxpbmUiIGlkPSJnMTg2OSI+JiN4YTsgICAgICA8ZWxsaXBzZSBzdHlsZT0ib3BhY2l0eToxO2ZpbGw6Izk5OTk5OTtmaWxsLW9wYWNpdHk6MTtzdHJva2U6Izk5OTk5OTtzdHJva2Utd2lkdGg6MS41O3N0cm9rZS1taXRlcmxpbWl0OjQ7c3Ryb2tlLWRhc2hhcnJheTpub25lO3N0cm9rZS1vcGFjaXR5OjE7ZmlsdGVyOnVybCgjZmlsdGVyMTY4MykiIGlkPSJlbGxpcHNlMTQ4MyIgY3g9IjE0NS43MDk4MSIgY3k9Ijk3LjA1MDU4MyIgcng9IjExLjE1MDI5NyIgcnk9IjExLjMzOTI4NiIvPiYjeGE7ICAgICAgPGVsbGlwc2Ugcnk9IjExLjMzOTI4NiIgcng9IjExLjE1MDI5NyIgY3k9Ijk0LjYwNzE3OCIgY3g9IjE0Ny4zMDk1MSIgaWQ9InBhdGgxMzc5IiBzdHlsZT0ib3BhY2l0eToxO2ZpbGw6dXJsKCNsaW5lYXJHcmFkaWVudDE4NTcpO2ZpbGwtb3BhY2l0eToxO3N0cm9rZTojNjYzNzY2O3N0cm9rZS13aWR0aDoxLjU7c3Ryb2tlLW1pdGVybGltaXQ6NDtzdHJva2UtZGFzaGFycmF5Om5vbmU7c3Ryb2tlLW9wYWNpdHk6MSIvPiYjeGE7ICAgIDwvZz4mI3hhOyAgPC9nPiYjeGE7ICA8ZyBpbmtzY2FwZTpncm91cG1vZGU9ImxheWVyIiBpZD0ibGF5ZXIyIiBpbmtzY2FwZTpsYWJlbD0iTXVsdGlwbGUgdG9waWMiIHN0eWxlPSJkaXNwbGF5Om5vbmUiIHRyYW5zZm9ybT0idHJhbnNsYXRlKC0xNDMuMzA5MTgsLTE2NC45MTE2MikiPiYjeGE7ICAgIDxyZWN0IHN0eWxlPSJvcGFjaXR5OjE7ZmlsbDpub25lO2ZpbGwtb3BhY2l0eToxO3N0cm9rZTojNjYzNzY2O3N0cm9rZS13aWR0aDoxLjM3NDg0NTg2O3N0cm9rZS1taXRlcmxpbWl0OjQ7c3Ryb2tlLWRhc2hhcnJheTpub25lO3N0cm9rZS1vcGFjaXR5OjEiIGlkPSJyZWN0MTM2NSIgd2lkdGg9IjEzNS45NjcyMSIgaGVpZ2h0PSI4MS4wMzA1NjMiIHg9IjEzLjA3NzYxMyIgeT0iMTMzLjI2NDQ3IiByeT0iMTAuNjMyOTciLz4mI3hhOyAgICA8cmVjdCByeT0iOS40NDgwNTYyIiB5PSIxMzcuOTcwNTUiIHg9IjE5LjY2NDk2OCIgaGVpZ2h0PSI3Mi4wMDA2OTQiIHdpZHRoPSIxMjIuNzkyNDkiIGlkPSJyZWN0MTM2NyIgc3R5bGU9Im9wYWNpdHk6MTtmaWxsOm5vbmU7ZmlsbC1vcGFjaXR5OjE7c3Ryb2tlOiM2NjM3NjY7c3Ryb2tlLXdpZHRoOjEuMzQyNzU5MDE7c3Ryb2tlLW1pdGVybGltaXQ6NDtzdHJva2UtZGFzaGFycmF5Om5vbmU7c3Ryb2tlLW9wYWNpdHk6MSIvPiYjeGE7ICA8L2c+JiN4YTs8L3N2Zz4=;shadow=1;strokeColor=#540054;strokeWidth=3;fillColor=none;gradientColor=#E69CDC;fontFamily=Tahoma;fontSize=16;fontColor=#000000;align=left;" parent="2tFBRqaM1ZA4eUpaGNYp-81" vertex="1">
          <mxGeometry width="90.68" height="90" as="geometry" />
        </mxCell>
        <mxCell id="2tFBRqaM1ZA4eUpaGNYp-84" value="&lt;font style=&quot;font-size: 24px&quot;&gt;All Events&lt;/font&gt;" style="text;html=1;strokeColor=none;fillColor=none;align=center;verticalAlign=middle;whiteSpace=wrap;rounded=0;shadow=1;fontFamily=Tahoma;fontSize=16;fontColor=#000000;" parent="2tFBRqaM1ZA4eUpaGNYp-81" vertex="1">
          <mxGeometry x="95" y="129" width="40" height="20" as="geometry" />
        </mxCell>
        <mxCell id="2tFBRqaM1ZA4eUpaGNYp-85" value="" style="html=1;shadow=0;dashed=0;align=center;verticalAlign=middle;shape=mxgraph.arrows2.quadArrow;dy=10;dx=20;notch=24;arrowHead=10;strokeColor=#540054;strokeWidth=3;fillColor=#540054;gradientColor=#E69CDC;fontFamily=Tahoma;fontSize=16;fontColor=#000000;" parent="2tFBRqaM1ZA4eUpaGNYp-81" vertex="1">
          <mxGeometry x="-20" y="190" width="110" height="110" as="geometry" />
        </mxCell>
        <mxCell id="2tFBRqaM1ZA4eUpaGNYp-86" value="" style="group" parent="1" vertex="1" connectable="0">
          <mxGeometry x="910" y="435" width="200" height="300" as="geometry" />
        </mxCell>
        <mxCell id="2tFBRqaM1ZA4eUpaGNYp-87" value="" style="group" parent="2tFBRqaM1ZA4eUpaGNYp-86" vertex="1" connectable="0">
          <mxGeometry width="200" height="300" as="geometry" />
        </mxCell>
        <mxCell id="2tFBRqaM1ZA4eUpaGNYp-88" value="" style="group" parent="2tFBRqaM1ZA4eUpaGNYp-87" vertex="1" connectable="0">
          <mxGeometry width="200" height="300" as="geometry" />
        </mxCell>
        <mxCell id="2tFBRqaM1ZA4eUpaGNYp-89" value="" style="shape=card;whiteSpace=wrap;html=1;shadow=1;strokeColor=#540054;strokeWidth=3;fillColor=none;gradientColor=#E69CDC;fontFamily=Tahoma;fontSize=16;fontColor=#000000;align=left;flipH=1;" parent="2tFBRqaM1ZA4eUpaGNYp-88" vertex="1">
          <mxGeometry x="30" y="29" width="170" height="220" as="geometry" />
        </mxCell>
        <mxCell id="2tFBRqaM1ZA4eUpaGNYp-90" value="" style="shape=image;verticalLabelPosition=bottom;verticalAlign=top;imageAspect=0;aspect=fixed;image=data:image/svg+xml,PHN2ZyB4bWxuczpkYz0iaHR0cDovL3B1cmwub3JnL2RjL2VsZW1lbnRzLzEuMS8iIHhtbG5zOmNjPSJodHRwOi8vY3JlYXRpdmVjb21tb25zLm9yZy9ucyMiIHhtbG5zOnJkZj0iaHR0cDovL3d3dy53My5vcmcvMTk5OS8wMi8yMi1yZGYtc3ludGF4LW5zIyIgeG1sbnM6c3ZnPSJodHRwOi8vd3d3LnczLm9yZy8yMDAwL3N2ZyIgeG1sbnM9Imh0dHA6Ly93d3cudzMub3JnLzIwMDAvc3ZnIiB4bWxuczp4bGluaz0iaHR0cDovL3d3dy53My5vcmcvMTk5OS94bGluayIgeG1sbnM6c29kaXBvZGk9Imh0dHA6Ly9zb2RpcG9kaS5zb3VyY2Vmb3JnZS5uZXQvRFREL3NvZGlwb2RpLTAuZHRkIiB4bWxuczppbmtzY2FwZT0iaHR0cDovL3d3dy5pbmtzY2FwZS5vcmcvbmFtZXNwYWNlcy9pbmtzY2FwZSIgd2lkdGg9IjEzNC4zMjQ0bW0iIGhlaWdodD0iMTMyLjg2NTY5bW0iIHZpZXdCb3g9IjAgMCAxMzQuMzI0NCAxMzIuODY1NjkiIHZlcnNpb249IjEuMSIgaWQ9InN2ZzgyMCIgaW5rc2NhcGU6dmVyc2lvbj0iMC45Mi40ICg1ZGE2ODljMzEzLCAyMDE5LTAxLTE0KSIgc29kaXBvZGk6ZG9jbmFtZT0iSW50cm9kdWN0b3J5IGFjdCAtIEdyb3VwIG9mIHRvcGljcy5zdmciPiYjeGE7ICA8ZGVmcyBpZD0iZGVmczgxNCI+JiN4YTsgICAgPGxpbmVhckdyYWRpZW50IGlua3NjYXBlOmNvbGxlY3Q9ImFsd2F5cyIgaWQ9ImxpbmVhckdyYWRpZW50MTgxNSI+JiN4YTsgICAgICA8c3RvcCBzdHlsZT0ic3RvcC1jb2xvcjojNjYzNzY2O3N0b3Atb3BhY2l0eToxIiBvZmZzZXQ9IjAiIGlkPSJzdG9wMTgxMSIvPiYjeGE7ICAgICAgPHN0b3Agc3R5bGU9InN0b3AtY29sb3I6I2FmNzZiZDtzdG9wLW9wYWNpdHk6MSIgb2Zmc2V0PSIxIiBpZD0ic3RvcDE4MTMiLz4mI3hhOyAgICA8L2xpbmVhckdyYWRpZW50PiYjeGE7ICAgIDxmaWx0ZXIgaW5rc2NhcGU6Y29sbGVjdD0iYWx3YXlzIiBzdHlsZT0iY29sb3ItaW50ZXJwb2xhdGlvbi1maWx0ZXJzOnNSR0IiIGlkPSJmaWx0ZXIxNjgzIiB4PSItMC4wNDcxOTY2MTIiIHdpZHRoPSIxLjA5NDM5MzMiIHk9Ii0wLjA0NjQwOTk5OCIgaGVpZ2h0PSIxLjA5MjgyIj4mI3hhOyAgICAgIDxmZUdhdXNzaWFuQmx1ciBpbmtzY2FwZTpjb2xsZWN0PSJhbHdheXMiIHN0ZERldmlhdGlvbj0iMC40Mzg1NDY4NyIgaWQ9ImZlR2F1c3NpYW5CbHVyMTY4NSIvPiYjeGE7ICAgIDwvZmlsdGVyPiYjeGE7ICAgIDxsaW5lYXJHcmFkaWVudCBpbmtzY2FwZTpjb2xsZWN0PSJhbHdheXMiIHhsaW5rOmhyZWY9IiNsaW5lYXJHcmFkaWVudDE4MTUiIGlkPSJsaW5lYXJHcmFkaWVudDE4NTciIHgxPSIxNTEuMzc5NDciIHkxPSI5MS43NTg5MjYiIHgyPSIxNDYuODQzNzUiIHkyPSIxMDUuOTMzMDQiIGdyYWRpZW50VW5pdHM9InVzZXJTcGFjZU9uVXNlIi8+JiN4YTsgIDwvZGVmcz4mI3hhOyAgPHNvZGlwb2RpOm5hbWVkdmlldyBpZD0iYmFzZSIgcGFnZWNvbG9yPSIjZmZmZmZmIiBib3JkZXJjb2xvcj0iIzY2NjY2NiIgYm9yZGVyb3BhY2l0eT0iMS4wIiBpbmtzY2FwZTpwYWdlb3BhY2l0eT0iMC4wIiBpbmtzY2FwZTpwYWdlc2hhZG93PSIyIiBpbmtzY2FwZTp6b29tPSIwLjM1IiBpbmtzY2FwZTpjeD0iODI2LjYzNzc4IiBpbmtzY2FwZTpjeT0iOTM5LjU5NSIgaW5rc2NhcGU6ZG9jdW1lbnQtdW5pdHM9Im1tIiBpbmtzY2FwZTpjdXJyZW50LWxheWVyPSJsYXllcjQiIHNob3dncmlkPSJmYWxzZSIgaW5rc2NhcGU6d2luZG93LXdpZHRoPSIxOTIwIiBpbmtzY2FwZTp3aW5kb3ctaGVpZ2h0PSIxMDEzIiBpbmtzY2FwZTp3aW5kb3cteD0iLTkiIGlua3NjYXBlOndpbmRvdy15PSItOSIgaW5rc2NhcGU6d2luZG93LW1heGltaXplZD0iMSIvPiYjeGE7ICA8bWV0YWRhdGEgaWQ9Im1ldGFkYXRhODE3Ij4mI3hhOyAgICA8cmRmOlJERj4mI3hhOyAgICAgIDxjYzpXb3JrIHJkZjphYm91dD0iIj4mI3hhOyAgICAgICAgPGRjOmZvcm1hdD5pbWFnZS9zdmcreG1sPC9kYzpmb3JtYXQ+JiN4YTsgICAgICAgIDxkYzp0eXBlIHJkZjpyZXNvdXJjZT0iaHR0cDovL3B1cmwub3JnL2RjL2RjbWl0eXBlL1N0aWxsSW1hZ2UiLz4mI3hhOyAgICAgICAgPGRjOnRpdGxlLz4mI3hhOyAgICAgIDwvY2M6V29yaz4mI3hhOyAgICA8L3JkZjpSREY+JiN4YTsgIDwvbWV0YWRhdGE+JiN4YTsgIDxnIGlua3NjYXBlOmxhYmVsPSJUb3BpYyIgaW5rc2NhcGU6Z3JvdXBtb2RlPSJsYXllciIgaWQ9ImxheWVyMSIgc3R5bGU9ImRpc3BsYXk6bm9uZSIgdHJhbnNmb3JtPSJ0cmFuc2xhdGUoLTE0My4zMDkxOCwtMTY0LjkxMTYyKSI+JiN4YTsgICAgPHJlY3Qgcnk9IjEwLjU1NDE1MSIgeT0iMTMzLjU0NSIgeD0iMTIuMzI1MjQ1IiBoZWlnaHQ9IjgwLjQyOTkwOSIgd2lkdGg9IjEzNC44NTg0NiIgaWQ9InJlY3QxMzY5IiBzdHlsZT0ib3BhY2l0eToxO2ZpbGw6bm9uZTtmaWxsLW9wYWNpdHk6MTtzdHJva2U6IzY2Mzc2NjtzdHJva2Utd2lkdGg6MS4zNjQxNDQ0NDtzdHJva2UtbWl0ZXJsaW1pdDo0O3N0cm9rZS1kYXNoYXJyYXk6bm9uZTtzdHJva2Utb3BhY2l0eToxIi8+JiN4YTsgIDwvZz4mI3hhOyAgPGcgaW5rc2NhcGU6Z3JvdXBtb2RlPSJsYXllciIgaWQ9ImxheWVyNiIgaW5rc2NhcGU6bGFiZWw9InRyYW5zaXRpb24gYWN0IiBzdHlsZT0iZGlzcGxheTpub25lIiB0cmFuc2Zvcm09InRyYW5zbGF0ZSgtMTQzLjMwOTE4LC0xNjQuOTExNjIpIj4mI3hhOyAgICA8ZyBzdHlsZT0iZGlzcGxheTppbmxpbmUiIGlkPSJnMTg3OSI+JiN4YTsgICAgICA8ZWxsaXBzZSByeT0iMjAuNjYxMzgxIiByeD0iMjIuMzYyMjc0IiBjeT0iMTQ4LjY0NDM1IiBjeD0iMTYwLjY4NzEyIiBpZD0iY2lyY2xlMTg1OSIgc3R5bGU9Im9wYWNpdHk6MTtmaWxsOiNmZmZmZmY7ZmlsbC1vcGFjaXR5OjE7c3Ryb2tlOiM2NjM3NjY7c3Ryb2tlLXdpZHRoOjAuODYxOTAxNDY7c3Ryb2tlLW1pdGVybGltaXQ6NDtzdHJva2UtZGFzaGFycmF5Om5vbmU7c3Ryb2tlLW9wYWNpdHk6MSIvPiYjeGE7ICAgICAgPHBhdGggaW5rc2NhcGU6Y29ubmVjdG9yLWN1cnZhdHVyZT0iMCIgaWQ9InBhdGgxODYxIiBkPSJtIDE0My44MjcyNCwxNDAuOTQ3MzEgMzQuMzA1ODMsLTAuMTczNDMgMC4yMDc5MiwtMC4wODY2IiBzdHlsZT0iZmlsbDojZmZmZmZmO2ZpbGwtb3BhY2l0eToxO3N0cm9rZTojNjYzNzY2O3N0cm9rZS13aWR0aDoxLjAwNDc3MzAyO3N0cm9rZS1saW5lY2FwOmJ1dHQ7c3Ryb2tlLWxpbmVqb2luOm1pdGVyO3N0cm9rZS1taXRlcmxpbWl0OjQ7c3Ryb2tlLWRhc2hhcnJheTpub25lO3N0cm9rZS1vcGFjaXR5OjEiLz4mI3hhOyAgICAgIDxwYXRoIHN0eWxlPSJmaWxsOiNmZmZmZmY7ZmlsbC1vcGFjaXR5OjE7c3Ryb2tlOiM2NjM3NjY7c3Ryb2tlLXdpZHRoOjEuMDA0NzczMDI7c3Ryb2tlLWxpbmVjYXA6YnV0dDtzdHJva2UtbGluZWpvaW46bWl0ZXI7c3Ryb2tlLW1pdGVybGltaXQ6NDtzdHJva2UtZGFzaGFycmF5Om5vbmU7c3Ryb2tlLW9wYWNpdHk6MSIgZD0ibSAxNDMuNDgyNjMsMTQ5LjEyNjQzIDM0LjMwNTg0LC0wLjE3MzQ0IDAuMjA3OTIsLTAuMDg2NiIgaWQ9InBhdGgxODYzIiBpbmtzY2FwZTpjb25uZWN0b3ItY3VydmF0dXJlPSIwIi8+JiN4YTsgICAgICA8cGF0aCBpbmtzY2FwZTpjb25uZWN0b3ItY3VydmF0dXJlPSIwIiBpZD0icGF0aDE4NjUiIGQ9Im0gMTQzLjY1NDkzLDE1Ny41MjY2IDM0LjMwNTg0LC0wLjE3MzQzIDAuMjA3OTIsLTAuMDg2NiIgc3R5bGU9ImZpbGw6I2ZmZmZmZjtmaWxsLW9wYWNpdHk6MTtzdHJva2U6IzY2Mzc2NjtzdHJva2Utd2lkdGg6MS4wMDQ3NzMwMjtzdHJva2UtbGluZWNhcDpidXR0O3N0cm9rZS1saW5lam9pbjptaXRlcjtzdHJva2UtbWl0ZXJsaW1pdDo0O3N0cm9rZS1kYXNoYXJyYXk6bm9uZTtzdHJva2Utb3BhY2l0eToxIi8+JiN4YTsgICAgPC9nPiYjeGE7ICA8L2c+JiN4YTsgIDxnIGlua3NjYXBlOmdyb3VwbW9kZT0ibGF5ZXIiIGlkPSJsYXllcjUiIGlua3NjYXBlOmxhYmVsPSJJbnRyb18gbXVsdGlwbGUgZ3JvdXBzIG9mIHRvcGljcyIgc3R5bGU9ImRpc3BsYXk6bm9uZSIgdHJhbnNmb3JtPSJ0cmFuc2xhdGUoLTE0My4zMDkxOCwtMTY0LjkxMTYyKSI+JiN4YTsgICAgPGcgc3R5bGU9ImRpc3BsYXk6aW5saW5lIiBpZD0iZzE4ODciIHRyYW5zZm9ybT0ibWF0cml4KDIuNjQwMTIxNCwwLDAsMi42MTE0NTA2LC0yMTQuMzE0MDEsLTM4MC45OTQ3OCkiPiYjeGE7ICAgICAgPGNpcmNsZSByPSIyNC45MzkwNTgiIGN5PSIyMTMuMjc4MjciIGN4PSIxNjEuMjU0MDkiIGlkPSJwYXRoMTc0OSIgc3R5bGU9Im9wYWNpdHk6MTtmaWxsOiNmZmZmZmY7ZmlsbC1vcGFjaXR5OjE7c3Ryb2tlOiM2NjM3NjY7c3Ryb2tlLXdpZHRoOjE7c3Ryb2tlLW1pdGVybGltaXQ6NDtzdHJva2UtZGFzaGFycmF5Om5vbmU7c3Ryb2tlLW9wYWNpdHk6MSIvPiYjeGE7ICAgICAgPGNpcmNsZSBzdHlsZT0ib3BhY2l0eToxO2ZpbGw6I2ZmZmZmZjtmaWxsLW9wYWNpdHk6MTtzdHJva2U6IzY2Mzc2NjtzdHJva2Utd2lkdGg6MC44ODExMzUxNztzdHJva2UtbWl0ZXJsaW1pdDo0O3N0cm9rZS1kYXNoYXJyYXk6bm9uZTtzdHJva2Utb3BhY2l0eToxIiBpZD0iY2lyY2xlMTc1MSIgY3g9IjE2MS4yNTQwOSIgY3k9IjIxMy4yNzgyNyIgcj0iMjEuOTc0NjgyIi8+JiN4YTsgICAgICA8cGF0aCBzb2RpcG9kaTpub2RldHlwZXM9ImNjYyIgaW5rc2NhcGU6Y29ubmVjdG9yLWN1cnZhdHVyZT0iMCIgaWQ9InBhdGgxNzU1IiBkPSJtIDEzOS4wMDA3NCwyMDEuOTM4OTkgYyA5LjgyNDQ3LC0xNy44NTE2OSAzNS42NDQzLC0xNy43MDI0NiA0NC42OTU2OSwwIHoiIHN0eWxlPSJmaWxsOiM2NjM3NjY7ZmlsbC1vcGFjaXR5OjE7c3Ryb2tlOiM2NjM3NjY7c3Ryb2tlLXdpZHRoOjAuMjY0NTgzMzJweDtzdHJva2UtbGluZWNhcDpidXR0O3N0cm9rZS1saW5lam9pbjptaXRlcjtzdHJva2Utb3BhY2l0eToxIi8+JiN4YTsgICAgICA8cGF0aCBpbmtzY2FwZTpjb25uZWN0b3ItY3VydmF0dXJlPSIwIiBpZD0icGF0aDE3NTciIGQ9Im0gMTQ1LjYxNTMyLDIxMC4wNjU0OCAzMS4xODMwNCwtMC4xODg5OSAwLjE4ODk5LC0wLjA5NDUiIHN0eWxlPSJmaWxsOiNmZmZmZmY7ZmlsbC1vcGFjaXR5OjE7c3Ryb2tlOiM2NjM3NjY7c3Ryb2tlLXdpZHRoOjE7c3Ryb2tlLWxpbmVjYXA6YnV0dDtzdHJva2UtbGluZWpvaW46bWl0ZXI7c3Ryb2tlLW1pdGVybGltaXQ6NDtzdHJva2UtZGFzaGFycmF5Om5vbmU7c3Ryb2tlLW9wYWNpdHk6MSIvPiYjeGE7ICAgICAgPHBhdGggc3R5bGU9ImZpbGw6I2ZmZmZmZjtmaWxsLW9wYWNpdHk6MTtzdHJva2U6IzY2Mzc2NjtzdHJva2Utd2lkdGg6MTtzdHJva2UtbGluZWNhcDpidXR0O3N0cm9rZS1saW5lam9pbjptaXRlcjtzdHJva2UtbWl0ZXJsaW1pdDo0O3N0cm9rZS1kYXNoYXJyYXk6bm9uZTtzdHJva2Utb3BhY2l0eToxIiBkPSJtIDE0NS42MTUzMiwyMTYuODY5MDQgMzEuMTgzMDQsLTAuMTg4OTkgMC4xODg5OSwtMC4wOTQ1IiBpZD0icGF0aDE3NTkiIGlua3NjYXBlOmNvbm5lY3Rvci1jdXJ2YXR1cmU9IjAiLz4mI3hhOyAgICAgIDxwYXRoIGlua3NjYXBlOmNvbm5lY3Rvci1jdXJ2YXR1cmU9IjAiIGlkPSJwYXRoMTc2MSIgZD0ibSAxNDUuNDI2MzQsMjIzLjg2MTYxIDMxLjE4MzA0LC0wLjE4ODk5IDAuMTg4OTksLTAuMDk0NSIgc3R5bGU9ImZpbGw6I2ZmZmZmZjtmaWxsLW9wYWNpdHk6MTtzdHJva2U6IzY2Mzc2NjtzdHJva2Utd2lkdGg6MTtzdHJva2UtbGluZWNhcDpidXR0O3N0cm9rZS1saW5lam9pbjptaXRlcjtzdHJva2UtbWl0ZXJsaW1pdDo0O3N0cm9rZS1kYXNoYXJyYXk6bm9uZTtzdHJva2Utb3BhY2l0eToxIi8+JiN4YTsgICAgPC9nPiYjeGE7ICA8L2c+JiN4YTsgIDxnIGlua3NjYXBlOmdyb3VwbW9kZT0ibGF5ZXIiIGlkPSJsYXllcjQiIGlua3NjYXBlOmxhYmVsPSJJbnRyb19Hcm91cCBvZiB0b3BpY3MiIHN0eWxlPSJkaXNwbGF5OmlubGluZSIgdHJhbnNmb3JtPSJ0cmFuc2xhdGUoLTE0My4zMDkxOCwtMTY0LjkxMTYyKSI+JiN4YTsgICAgPGcgc3R5bGU9ImRpc3BsYXk6aW5saW5lIiBpZD0iZzE4OTQiIHRyYW5zZm9ybT0ibWF0cml4KDIuNjQwMTIxNCwwLDAsMi42MTE0NTA2LC0yMTIuNzY0MjIsLTQ3MC4yMjY0MykiPiYjeGE7ICAgICAgPGNpcmNsZSBzdHlsZT0ib3BhY2l0eToxO2ZpbGw6I2ZmZmZmZjtmaWxsLW9wYWNpdHk6MTtzdHJva2U6IzY2Mzc2NjtzdHJva2Utd2lkdGg6MTtzdHJva2UtbWl0ZXJsaW1pdDo0O3N0cm9rZS1kYXNoYXJyYXk6bm9uZTtzdHJva2Utb3BhY2l0eToxIiBpZD0iY2lyY2xlMTc3NyIgY3g9IjE2MC4zMDkxNCIgY3k9IjI2OC42NTE3OSIgcj0iMjQuOTM5MDU4Ii8+JiN4YTsgICAgICA8cGF0aCBzdHlsZT0iZmlsbDojNjYzNzY2O2ZpbGwtb3BhY2l0eToxO3N0cm9rZTojNjYzNzY2O3N0cm9rZS13aWR0aDowLjI2NDU4MzMycHg7c3Ryb2tlLWxpbmVjYXA6YnV0dDtzdHJva2UtbGluZWpvaW46bWl0ZXI7c3Ryb2tlLW9wYWNpdHk6MSIgZD0ibSAxMzguMDU1OCwyNTcuMzEyNSBjIDkuODI0NDcsLTE3Ljg1MTY5IDM1LjY0NDMsLTE3LjcwMjQ2IDQ0LjY5NTY5LDAgeiIgaWQ9InBhdGgxNzgxIiBpbmtzY2FwZTpjb25uZWN0b3ItY3VydmF0dXJlPSIwIiBzb2RpcG9kaTpub2RldHlwZXM9ImNjYyIvPiYjeGE7ICAgICAgPHBhdGggc3R5bGU9ImZpbGw6I2ZmZmZmZjtmaWxsLW9wYWNpdHk6MTtzdHJva2U6IzY2Mzc2NjtzdHJva2Utd2lkdGg6MC45NzI5ODQ2MTtzdHJva2UtbGluZWNhcDpidXR0O3N0cm9rZS1saW5lam9pbjptaXRlcjtzdHJva2UtbWl0ZXJsaW1pdDo0O3N0cm9rZS1kYXNoYXJyYXk6bm9uZTtzdHJva2Utb3BhY2l0eToxIiBkPSJtIDE0MS45NzQwNywyNjUuNjk2ODggMzcuNjI4MjYsLTAuMTQ4MjcgMC4yMjgwNiwtMC4wNzQxIiBpZD0icGF0aDE3ODMiIGlua3NjYXBlOmNvbm5lY3Rvci1jdXJ2YXR1cmU9IjAiLz4mI3hhOyAgICAgIDxwYXRoIGlua3NjYXBlOmNvbm5lY3Rvci1jdXJ2YXR1cmU9IjAiIGlkPSJwYXRoMTc4OSIgZD0ibSAxNDEuNTk2MDksMjcyLjY4OTQ0IDM3LjYyODI2LC0wLjE0ODI3IDAuMjI4MDYsLTAuMDc0MSIgc3R5bGU9ImZpbGw6I2ZmZmZmZjtmaWxsLW9wYWNpdHk6MTtzdHJva2U6IzY2Mzc2NjtzdHJva2Utd2lkdGg6MC45NzI5ODQ2MTtzdHJva2UtbGluZWNhcDpidXR0O3N0cm9rZS1saW5lam9pbjptaXRlcjtzdHJva2UtbWl0ZXJsaW1pdDo0O3N0cm9rZS1kYXNoYXJyYXk6bm9uZTtzdHJva2Utb3BhY2l0eToxIi8+JiN4YTsgICAgICA8cGF0aCBzdHlsZT0iZmlsbDojZmZmZmZmO2ZpbGwtb3BhY2l0eToxO3N0cm9rZTojNjYzNzY2O3N0cm9rZS13aWR0aDowLjk3Mjk4NDYxO3N0cm9rZS1saW5lY2FwOmJ1dHQ7c3Ryb2tlLWxpbmVqb2luOm1pdGVyO3N0cm9rZS1taXRlcmxpbWl0OjQ7c3Ryb2tlLWRhc2hhcnJheTpub25lO3N0cm9rZS1vcGFjaXR5OjEiIGQ9Im0gMTQxLjc4NTA4LDI3OS44NzA5OSAzNy42MjgyNiwtMC4xNDgyNyAwLjIyODA2LC0wLjA3NDEiIGlkPSJwYXRoMTc5MSIgaW5rc2NhcGU6Y29ubmVjdG9yLWN1cnZhdHVyZT0iMCIvPiYjeGE7ICAgIDwvZz4mI3hhOyAgPC9nPiYjeGE7ICA8ZyBpbmtzY2FwZTpncm91cG1vZGU9ImxheWVyIiBpZD0ibGF5ZXIzIiBpbmtzY2FwZTpsYWJlbD0iRGlhbG9ndWUgQWN0IiBzdHlsZT0iZGlzcGxheTpub25lIiB0cmFuc2Zvcm09InRyYW5zbGF0ZSgtMTQzLjMwOTE4LC0xNjQuOTExNjIpIj4mI3hhOyAgICA8ZyBzdHlsZT0iZGlzcGxheTppbmxpbmUiIGlkPSJnMTg2OSI+JiN4YTsgICAgICA8ZWxsaXBzZSBzdHlsZT0ib3BhY2l0eToxO2ZpbGw6Izk5OTk5OTtmaWxsLW9wYWNpdHk6MTtzdHJva2U6Izk5OTk5OTtzdHJva2Utd2lkdGg6MS41O3N0cm9rZS1taXRlcmxpbWl0OjQ7c3Ryb2tlLWRhc2hhcnJheTpub25lO3N0cm9rZS1vcGFjaXR5OjE7ZmlsdGVyOnVybCgjZmlsdGVyMTY4MykiIGlkPSJlbGxpcHNlMTQ4MyIgY3g9IjE0NS43MDk4MSIgY3k9Ijk3LjA1MDU4MyIgcng9IjExLjE1MDI5NyIgcnk9IjExLjMzOTI4NiIvPiYjeGE7ICAgICAgPGVsbGlwc2Ugcnk9IjExLjMzOTI4NiIgcng9IjExLjE1MDI5NyIgY3k9Ijk0LjYwNzE3OCIgY3g9IjE0Ny4zMDk1MSIgaWQ9InBhdGgxMzc5IiBzdHlsZT0ib3BhY2l0eToxO2ZpbGw6dXJsKCNsaW5lYXJHcmFkaWVudDE4NTcpO2ZpbGwtb3BhY2l0eToxO3N0cm9rZTojNjYzNzY2O3N0cm9rZS13aWR0aDoxLjU7c3Ryb2tlLW1pdGVybGltaXQ6NDtzdHJva2UtZGFzaGFycmF5Om5vbmU7c3Ryb2tlLW9wYWNpdHk6MSIvPiYjeGE7ICAgIDwvZz4mI3hhOyAgPC9nPiYjeGE7ICA8ZyBpbmtzY2FwZTpncm91cG1vZGU9ImxheWVyIiBpZD0ibGF5ZXIyIiBpbmtzY2FwZTpsYWJlbD0iTXVsdGlwbGUgdG9waWMiIHN0eWxlPSJkaXNwbGF5Om5vbmUiIHRyYW5zZm9ybT0idHJhbnNsYXRlKC0xNDMuMzA5MTgsLTE2NC45MTE2MikiPiYjeGE7ICAgIDxyZWN0IHN0eWxlPSJvcGFjaXR5OjE7ZmlsbDpub25lO2ZpbGwtb3BhY2l0eToxO3N0cm9rZTojNjYzNzY2O3N0cm9rZS13aWR0aDoxLjM3NDg0NTg2O3N0cm9rZS1taXRlcmxpbWl0OjQ7c3Ryb2tlLWRhc2hhcnJheTpub25lO3N0cm9rZS1vcGFjaXR5OjEiIGlkPSJyZWN0MTM2NSIgd2lkdGg9IjEzNS45NjcyMSIgaGVpZ2h0PSI4MS4wMzA1NjMiIHg9IjEzLjA3NzYxMyIgeT0iMTMzLjI2NDQ3IiByeT0iMTAuNjMyOTciLz4mI3hhOyAgICA8cmVjdCByeT0iOS40NDgwNTYyIiB5PSIxMzcuOTcwNTUiIHg9IjE5LjY2NDk2OCIgaGVpZ2h0PSI3Mi4wMDA2OTQiIHdpZHRoPSIxMjIuNzkyNDkiIGlkPSJyZWN0MTM2NyIgc3R5bGU9Im9wYWNpdHk6MTtmaWxsOm5vbmU7ZmlsbC1vcGFjaXR5OjE7c3Ryb2tlOiM2NjM3NjY7c3Ryb2tlLXdpZHRoOjEuMzQyNzU5MDE7c3Ryb2tlLW1pdGVybGltaXQ6NDtzdHJva2UtZGFzaGFycmF5Om5vbmU7c3Ryb2tlLW9wYWNpdHk6MSIvPiYjeGE7ICA8L2c+JiN4YTs8L3N2Zz4=;shadow=1;strokeColor=#540054;strokeWidth=3;fillColor=none;gradientColor=#E69CDC;fontFamily=Tahoma;fontSize=16;fontColor=#000000;align=left;" parent="2tFBRqaM1ZA4eUpaGNYp-88" vertex="1">
          <mxGeometry width="90.68" height="90" as="geometry" />
        </mxCell>
        <mxCell id="2tFBRqaM1ZA4eUpaGNYp-91" value="&lt;font style=&quot;font-size: 24px&quot;&gt;All People&lt;/font&gt;" style="text;html=1;strokeColor=none;fillColor=none;align=center;verticalAlign=middle;whiteSpace=wrap;rounded=0;shadow=1;fontFamily=Tahoma;fontSize=16;fontColor=#000000;" parent="2tFBRqaM1ZA4eUpaGNYp-88" vertex="1">
          <mxGeometry x="95" y="129" width="40" height="20" as="geometry" />
        </mxCell>
        <mxCell id="2tFBRqaM1ZA4eUpaGNYp-92" value="" style="html=1;shadow=0;dashed=0;align=center;verticalAlign=middle;shape=mxgraph.arrows2.quadArrow;dy=10;dx=20;notch=24;arrowHead=10;strokeColor=#540054;strokeWidth=3;fillColor=#540054;gradientColor=#E69CDC;fontFamily=Tahoma;fontSize=16;fontColor=#000000;" parent="2tFBRqaM1ZA4eUpaGNYp-88" vertex="1">
          <mxGeometry x="-20" y="190" width="110" height="110" as="geometry" />
        </mxCell>
        <mxCell id="2tFBRqaM1ZA4eUpaGNYp-94" value="" style="endArrow=classic;html=1;shadow=0;strokeColor=#660066;strokeWidth=3;fillColor=#660066;gradientColor=#E69CDC;fontFamily=Tahoma;fontSize=16;fontColor=#000000;exitX=0.5;exitY=1;exitDx=0;exitDy=0;exitPerimeter=0;entryX=0.5;entryY=0;entryDx=0;entryDy=0;entryPerimeter=0;" parent="1" source="2tFBRqaM1ZA4eUpaGNYp-71" target="2tFBRqaM1ZA4eUpaGNYp-82" edge="1">
          <mxGeometry width="50" height="50" relative="1" as="geometry">
            <mxPoint x="790" y="300" as="sourcePoint" />
            <mxPoint x="1070" y="300" as="targetPoint" />
            <Array as="points">
              <mxPoint x="815" y="360" />
              <mxPoint x="595" y="360" />
            </Array>
          </mxGeometry>
        </mxCell>
        <mxCell id="2tFBRqaM1ZA4eUpaGNYp-95" value="" style="endArrow=classic;html=1;shadow=0;strokeColor=#660066;strokeWidth=3;fillColor=#660066;gradientColor=#E69CDC;fontFamily=Tahoma;fontSize=16;fontColor=#000000;entryX=0.435;entryY=-0.009;entryDx=0;entryDy=0;entryPerimeter=0;exitX=0.5;exitY=1;exitDx=0;exitDy=0;exitPerimeter=0;" parent="1" source="2tFBRqaM1ZA4eUpaGNYp-71" target="2tFBRqaM1ZA4eUpaGNYp-89" edge="1">
          <mxGeometry width="50" height="50" relative="1" as="geometry">
            <mxPoint x="595" y="322" as="sourcePoint" />
            <mxPoint x="1040" y="360" as="targetPoint" />
            <Array as="points">
              <mxPoint x="815" y="360" />
              <mxPoint x="1036" y="360" />
            </Array>
          </mxGeometry>
        </mxCell>
        <mxCell id="2tFBRqaM1ZA4eUpaGNYp-96" value="" style="group" parent="1" vertex="1" connectable="0">
          <mxGeometry x="480" y="840" width="200" height="230" as="geometry" />
        </mxCell>
        <mxCell id="2tFBRqaM1ZA4eUpaGNYp-97" value="" style="group" parent="2tFBRqaM1ZA4eUpaGNYp-96" vertex="1" connectable="0">
          <mxGeometry width="200" height="230" as="geometry" />
        </mxCell>
        <mxCell id="2tFBRqaM1ZA4eUpaGNYp-98" value="" style="group" parent="2tFBRqaM1ZA4eUpaGNYp-97" vertex="1" connectable="0">
          <mxGeometry x="30" y="10" width="170" height="220" as="geometry" />
        </mxCell>
        <mxCell id="2tFBRqaM1ZA4eUpaGNYp-99" value="" style="shape=card;whiteSpace=wrap;html=1;shadow=1;strokeColor=#540054;strokeWidth=3;fillColor=none;gradientColor=#E69CDC;fontFamily=Tahoma;fontSize=16;fontColor=#000000;align=left;flipH=1;" parent="2tFBRqaM1ZA4eUpaGNYp-98" vertex="1">
          <mxGeometry width="170" height="220" as="geometry" />
        </mxCell>
        <mxCell id="2tFBRqaM1ZA4eUpaGNYp-100" value="&lt;font style=&quot;font-size: 24px&quot;&gt;Events By Month&lt;/font&gt;" style="text;html=1;strokeColor=none;fillColor=none;align=center;verticalAlign=middle;whiteSpace=wrap;rounded=0;shadow=1;fontFamily=Tahoma;fontSize=16;fontColor=#000000;" parent="2tFBRqaM1ZA4eUpaGNYp-98" vertex="1">
          <mxGeometry x="51" y="107" width="40" height="20" as="geometry" />
        </mxCell>
        <mxCell id="2tFBRqaM1ZA4eUpaGNYp-101" value="" style="shape=image;verticalLabelPosition=bottom;verticalAlign=top;imageAspect=0;aspect=fixed;image=data:image/svg+xml,PHN2ZyB4bWxuczpkYz0iaHR0cDovL3B1cmwub3JnL2RjL2VsZW1lbnRzLzEuMS8iIHhtbG5zOmNjPSJodHRwOi8vY3JlYXRpdmVjb21tb25zLm9yZy9ucyMiIHhtbG5zOnJkZj0iaHR0cDovL3d3dy53My5vcmcvMTk5OS8wMi8yMi1yZGYtc3ludGF4LW5zIyIgeG1sbnM6c3ZnPSJodHRwOi8vd3d3LnczLm9yZy8yMDAwL3N2ZyIgeG1sbnM9Imh0dHA6Ly93d3cudzMub3JnLzIwMDAvc3ZnIiB4bWxuczp4bGluaz0iaHR0cDovL3d3dy53My5vcmcvMTk5OS94bGluayIgeG1sbnM6c29kaXBvZGk9Imh0dHA6Ly9zb2RpcG9kaS5zb3VyY2Vmb3JnZS5uZXQvRFREL3NvZGlwb2RpLTAuZHRkIiB4bWxuczppbmtzY2FwZT0iaHR0cDovL3d3dy5pbmtzY2FwZS5vcmcvbmFtZXNwYWNlcy9pbmtzY2FwZSIgd2lkdGg9IjEzNC4zMjQ0bW0iIGhlaWdodD0iMTMyLjg2NTY5bW0iIHZpZXdCb3g9IjAgMCAxMzQuMzI0NCAxMzIuODY1NjkiIHZlcnNpb249IjEuMSIgaWQ9InN2ZzgyMCIgaW5rc2NhcGU6dmVyc2lvbj0iMC45Mi40ICg1ZGE2ODljMzEzLCAyMDE5LTAxLTE0KSIgc29kaXBvZGk6ZG9jbmFtZT0iSW50cm9kdWN0b3J5IGFjdCAtIE11bHRpcGxlIGdyb3VwcyBvZiB0b3BpY3Muc3ZnIj4mI3hhOyAgPGRlZnMgaWQ9ImRlZnM4MTQiPiYjeGE7ICAgIDxsaW5lYXJHcmFkaWVudCBpbmtzY2FwZTpjb2xsZWN0PSJhbHdheXMiIGlkPSJsaW5lYXJHcmFkaWVudDE4MTUiPiYjeGE7ICAgICAgPHN0b3Agc3R5bGU9InN0b3AtY29sb3I6IzY2Mzc2NjtzdG9wLW9wYWNpdHk6MSIgb2Zmc2V0PSIwIiBpZD0ic3RvcDE4MTEiLz4mI3hhOyAgICAgIDxzdG9wIHN0eWxlPSJzdG9wLWNvbG9yOiNhZjc2YmQ7c3RvcC1vcGFjaXR5OjEiIG9mZnNldD0iMSIgaWQ9InN0b3AxODEzIi8+JiN4YTsgICAgPC9saW5lYXJHcmFkaWVudD4mI3hhOyAgICA8ZmlsdGVyIGlua3NjYXBlOmNvbGxlY3Q9ImFsd2F5cyIgc3R5bGU9ImNvbG9yLWludGVycG9sYXRpb24tZmlsdGVyczpzUkdCIiBpZD0iZmlsdGVyMTY4MyIgeD0iLTAuMDQ3MTk2NjEyIiB3aWR0aD0iMS4wOTQzOTMzIiB5PSItMC4wNDY0MDk5OTgiIGhlaWdodD0iMS4wOTI4MiI+JiN4YTsgICAgICA8ZmVHYXVzc2lhbkJsdXIgaW5rc2NhcGU6Y29sbGVjdD0iYWx3YXlzIiBzdGREZXZpYXRpb249IjAuNDM4NTQ2ODciIGlkPSJmZUdhdXNzaWFuQmx1cjE2ODUiLz4mI3hhOyAgICA8L2ZpbHRlcj4mI3hhOyAgICA8bGluZWFyR3JhZGllbnQgaW5rc2NhcGU6Y29sbGVjdD0iYWx3YXlzIiB4bGluazpocmVmPSIjbGluZWFyR3JhZGllbnQxODE1IiBpZD0ibGluZWFyR3JhZGllbnQxODU3IiB4MT0iMTUxLjM3OTQ3IiB5MT0iOTEuNzU4OTI2IiB4Mj0iMTQ2Ljg0Mzc1IiB5Mj0iMTA1LjkzMzA0IiBncmFkaWVudFVuaXRzPSJ1c2VyU3BhY2VPblVzZSIvPiYjeGE7ICA8L2RlZnM+JiN4YTsgIDxzb2RpcG9kaTpuYW1lZHZpZXcgaWQ9ImJhc2UiIHBhZ2Vjb2xvcj0iI2ZmZmZmZiIgYm9yZGVyY29sb3I9IiM2NjY2NjYiIGJvcmRlcm9wYWNpdHk9IjEuMCIgaW5rc2NhcGU6cGFnZW9wYWNpdHk9IjAuMCIgaW5rc2NhcGU6cGFnZXNoYWRvdz0iMiIgaW5rc2NhcGU6em9vbT0iMC4zNSIgaW5rc2NhcGU6Y3g9IjgyMy4wNjYxOSIgaW5rc2NhcGU6Y3k9IjczMC4zMDkxIiBpbmtzY2FwZTpkb2N1bWVudC11bml0cz0ibW0iIGlua3NjYXBlOmN1cnJlbnQtbGF5ZXI9ImxheWVyNSIgc2hvd2dyaWQ9ImZhbHNlIiBpbmtzY2FwZTp3aW5kb3ctd2lkdGg9IjE5MjAiIGlua3NjYXBlOndpbmRvdy1oZWlnaHQ9IjEwMTMiIGlua3NjYXBlOndpbmRvdy14PSItOSIgaW5rc2NhcGU6d2luZG93LXk9Ii05IiBpbmtzY2FwZTp3aW5kb3ctbWF4aW1pemVkPSIxIi8+JiN4YTsgIDxtZXRhZGF0YSBpZD0ibWV0YWRhdGE4MTciPiYjeGE7ICAgIDxyZGY6UkRGPiYjeGE7ICAgICAgPGNjOldvcmsgcmRmOmFib3V0PSIiPiYjeGE7ICAgICAgICA8ZGM6Zm9ybWF0PmltYWdlL3N2Zyt4bWw8L2RjOmZvcm1hdD4mI3hhOyAgICAgICAgPGRjOnR5cGUgcmRmOnJlc291cmNlPSJodHRwOi8vcHVybC5vcmcvZGMvZGNtaXR5cGUvU3RpbGxJbWFnZSIvPiYjeGE7ICAgICAgICA8ZGM6dGl0bGUvPiYjeGE7ICAgICAgPC9jYzpXb3JrPiYjeGE7ICAgIDwvcmRmOlJERj4mI3hhOyAgPC9tZXRhZGF0YT4mI3hhOyAgPGcgaW5rc2NhcGU6bGFiZWw9IlRvcGljIiBpbmtzY2FwZTpncm91cG1vZGU9ImxheWVyIiBpZD0ibGF5ZXIxIiBzdHlsZT0iZGlzcGxheTpub25lIiB0cmFuc2Zvcm09InRyYW5zbGF0ZSgtMTQ0LjI1NDE2LC0xMDkuNTM4MDUpIj4mI3hhOyAgICA8cmVjdCByeT0iMTAuNTU0MTUxIiB5PSIxMzMuNTQ1IiB4PSIxMi4zMjUyNDUiIGhlaWdodD0iODAuNDI5OTA5IiB3aWR0aD0iMTM0Ljg1ODQ2IiBpZD0icmVjdDEzNjkiIHN0eWxlPSJvcGFjaXR5OjE7ZmlsbDpub25lO2ZpbGwtb3BhY2l0eToxO3N0cm9rZTojNjYzNzY2O3N0cm9rZS13aWR0aDoxLjM2NDE0NDQ0O3N0cm9rZS1taXRlcmxpbWl0OjQ7c3Ryb2tlLWRhc2hhcnJheTpub25lO3N0cm9rZS1vcGFjaXR5OjEiLz4mI3hhOyAgPC9nPiYjeGE7ICA8ZyBpbmtzY2FwZTpncm91cG1vZGU9ImxheWVyIiBpZD0ibGF5ZXI2IiBpbmtzY2FwZTpsYWJlbD0idHJhbnNpdGlvbiBhY3QiIHN0eWxlPSJkaXNwbGF5Om5vbmUiIHRyYW5zZm9ybT0idHJhbnNsYXRlKC0xNDQuMjU0MTYsLTEwOS41MzgwNSkiPiYjeGE7ICAgIDxnIHN0eWxlPSJkaXNwbGF5OmlubGluZSIgaWQ9ImcxODc5Ij4mI3hhOyAgICAgIDxlbGxpcHNlIHJ5PSIyMC42NjEzODEiIHJ4PSIyMi4zNjIyNzQiIGN5PSIxNDguNjQ0MzUiIGN4PSIxNjAuNjg3MTIiIGlkPSJjaXJjbGUxODU5IiBzdHlsZT0ib3BhY2l0eToxO2ZpbGw6I2ZmZmZmZjtmaWxsLW9wYWNpdHk6MTtzdHJva2U6IzY2Mzc2NjtzdHJva2Utd2lkdGg6MC44NjE5MDE0NjtzdHJva2UtbWl0ZXJsaW1pdDo0O3N0cm9rZS1kYXNoYXJyYXk6bm9uZTtzdHJva2Utb3BhY2l0eToxIi8+JiN4YTsgICAgICA8cGF0aCBpbmtzY2FwZTpjb25uZWN0b3ItY3VydmF0dXJlPSIwIiBpZD0icGF0aDE4NjEiIGQ9Im0gMTQzLjgyNzI0LDE0MC45NDczMSAzNC4zMDU4MywtMC4xNzM0MyAwLjIwNzkyLC0wLjA4NjYiIHN0eWxlPSJmaWxsOiNmZmZmZmY7ZmlsbC1vcGFjaXR5OjE7c3Ryb2tlOiM2NjM3NjY7c3Ryb2tlLXdpZHRoOjEuMDA0NzczMDI7c3Ryb2tlLWxpbmVjYXA6YnV0dDtzdHJva2UtbGluZWpvaW46bWl0ZXI7c3Ryb2tlLW1pdGVybGltaXQ6NDtzdHJva2UtZGFzaGFycmF5Om5vbmU7c3Ryb2tlLW9wYWNpdHk6MSIvPiYjeGE7ICAgICAgPHBhdGggc3R5bGU9ImZpbGw6I2ZmZmZmZjtmaWxsLW9wYWNpdHk6MTtzdHJva2U6IzY2Mzc2NjtzdHJva2Utd2lkdGg6MS4wMDQ3NzMwMjtzdHJva2UtbGluZWNhcDpidXR0O3N0cm9rZS1saW5lam9pbjptaXRlcjtzdHJva2UtbWl0ZXJsaW1pdDo0O3N0cm9rZS1kYXNoYXJyYXk6bm9uZTtzdHJva2Utb3BhY2l0eToxIiBkPSJtIDE0My40ODI2MywxNDkuMTI2NDMgMzQuMzA1ODQsLTAuMTczNDQgMC4yMDc5MiwtMC4wODY2IiBpZD0icGF0aDE4NjMiIGlua3NjYXBlOmNvbm5lY3Rvci1jdXJ2YXR1cmU9IjAiLz4mI3hhOyAgICAgIDxwYXRoIGlua3NjYXBlOmNvbm5lY3Rvci1jdXJ2YXR1cmU9IjAiIGlkPSJwYXRoMTg2NSIgZD0ibSAxNDMuNjU0OTMsMTU3LjUyNjYgMzQuMzA1ODQsLTAuMTczNDMgMC4yMDc5MiwtMC4wODY2IiBzdHlsZT0iZmlsbDojZmZmZmZmO2ZpbGwtb3BhY2l0eToxO3N0cm9rZTojNjYzNzY2O3N0cm9rZS13aWR0aDoxLjAwNDc3MzAyO3N0cm9rZS1saW5lY2FwOmJ1dHQ7c3Ryb2tlLWxpbmVqb2luOm1pdGVyO3N0cm9rZS1taXRlcmxpbWl0OjQ7c3Ryb2tlLWRhc2hhcnJheTpub25lO3N0cm9rZS1vcGFjaXR5OjEiLz4mI3hhOyAgICA8L2c+JiN4YTsgIDwvZz4mI3hhOyAgPGcgaW5rc2NhcGU6Z3JvdXBtb2RlPSJsYXllciIgaWQ9ImxheWVyNSIgaW5rc2NhcGU6bGFiZWw9IkludHJvXyBtdWx0aXBsZSBncm91cHMgb2YgdG9waWNzIiBzdHlsZT0iZGlzcGxheTppbmxpbmUiIHRyYW5zZm9ybT0idHJhbnNsYXRlKC0xNDQuMjU0MTYsLTEwOS41MzgwNSkiPiYjeGE7ICAgIDxnIHN0eWxlPSJkaXNwbGF5OmlubGluZSIgaWQ9ImcxODg3IiB0cmFuc2Zvcm09Im1hdHJpeCgyLjY0MDEyMTQsMCwwLDIuNjExNDUwNiwtMjE0LjMxNDAxLC0zODAuOTk0NzgpIj4mI3hhOyAgICAgIDxjaXJjbGUgcj0iMjQuOTM5MDU4IiBjeT0iMjEzLjI3ODI3IiBjeD0iMTYxLjI1NDA5IiBpZD0icGF0aDE3NDkiIHN0eWxlPSJvcGFjaXR5OjE7ZmlsbDojZmZmZmZmO2ZpbGwtb3BhY2l0eToxO3N0cm9rZTojNjYzNzY2O3N0cm9rZS13aWR0aDoxO3N0cm9rZS1taXRlcmxpbWl0OjQ7c3Ryb2tlLWRhc2hhcnJheTpub25lO3N0cm9rZS1vcGFjaXR5OjEiLz4mI3hhOyAgICAgIDxjaXJjbGUgc3R5bGU9Im9wYWNpdHk6MTtmaWxsOiNmZmZmZmY7ZmlsbC1vcGFjaXR5OjE7c3Ryb2tlOiM2NjM3NjY7c3Ryb2tlLXdpZHRoOjAuODgxMTM1MTc7c3Ryb2tlLW1pdGVybGltaXQ6NDtzdHJva2UtZGFzaGFycmF5Om5vbmU7c3Ryb2tlLW9wYWNpdHk6MSIgaWQ9ImNpcmNsZTE3NTEiIGN4PSIxNjEuMjU0MDkiIGN5PSIyMTMuMjc4MjciIHI9IjIxLjk3NDY4MiIvPiYjeGE7ICAgICAgPHBhdGggc29kaXBvZGk6bm9kZXR5cGVzPSJjY2MiIGlua3NjYXBlOmNvbm5lY3Rvci1jdXJ2YXR1cmU9IjAiIGlkPSJwYXRoMTc1NSIgZD0ibSAxMzkuMDAwNzQsMjAxLjkzODk5IGMgOS44MjQ0NywtMTcuODUxNjkgMzUuNjQ0MywtMTcuNzAyNDYgNDQuNjk1NjksMCB6IiBzdHlsZT0iZmlsbDojNjYzNzY2O2ZpbGwtb3BhY2l0eToxO3N0cm9rZTojNjYzNzY2O3N0cm9rZS13aWR0aDowLjI2NDU4MzMycHg7c3Ryb2tlLWxpbmVjYXA6YnV0dDtzdHJva2UtbGluZWpvaW46bWl0ZXI7c3Ryb2tlLW9wYWNpdHk6MSIvPiYjeGE7ICAgICAgPHBhdGggaW5rc2NhcGU6Y29ubmVjdG9yLWN1cnZhdHVyZT0iMCIgaWQ9InBhdGgxNzU3IiBkPSJtIDE0NS42MTUzMiwyMTAuMDY1NDggMzEuMTgzMDQsLTAuMTg4OTkgMC4xODg5OSwtMC4wOTQ1IiBzdHlsZT0iZmlsbDojZmZmZmZmO2ZpbGwtb3BhY2l0eToxO3N0cm9rZTojNjYzNzY2O3N0cm9rZS13aWR0aDoxO3N0cm9rZS1saW5lY2FwOmJ1dHQ7c3Ryb2tlLWxpbmVqb2luOm1pdGVyO3N0cm9rZS1taXRlcmxpbWl0OjQ7c3Ryb2tlLWRhc2hhcnJheTpub25lO3N0cm9rZS1vcGFjaXR5OjEiLz4mI3hhOyAgICAgIDxwYXRoIHN0eWxlPSJmaWxsOiNmZmZmZmY7ZmlsbC1vcGFjaXR5OjE7c3Ryb2tlOiM2NjM3NjY7c3Ryb2tlLXdpZHRoOjE7c3Ryb2tlLWxpbmVjYXA6YnV0dDtzdHJva2UtbGluZWpvaW46bWl0ZXI7c3Ryb2tlLW1pdGVybGltaXQ6NDtzdHJva2UtZGFzaGFycmF5Om5vbmU7c3Ryb2tlLW9wYWNpdHk6MSIgZD0ibSAxNDUuNjE1MzIsMjE2Ljg2OTA0IDMxLjE4MzA0LC0wLjE4ODk5IDAuMTg4OTksLTAuMDk0NSIgaWQ9InBhdGgxNzU5IiBpbmtzY2FwZTpjb25uZWN0b3ItY3VydmF0dXJlPSIwIi8+JiN4YTsgICAgICA8cGF0aCBpbmtzY2FwZTpjb25uZWN0b3ItY3VydmF0dXJlPSIwIiBpZD0icGF0aDE3NjEiIGQ9Im0gMTQ1LjQyNjM0LDIyMy44NjE2MSAzMS4xODMwNCwtMC4xODg5OSAwLjE4ODk5LC0wLjA5NDUiIHN0eWxlPSJmaWxsOiNmZmZmZmY7ZmlsbC1vcGFjaXR5OjE7c3Ryb2tlOiM2NjM3NjY7c3Ryb2tlLXdpZHRoOjE7c3Ryb2tlLWxpbmVjYXA6YnV0dDtzdHJva2UtbGluZWpvaW46bWl0ZXI7c3Ryb2tlLW1pdGVybGltaXQ6NDtzdHJva2UtZGFzaGFycmF5Om5vbmU7c3Ryb2tlLW9wYWNpdHk6MSIvPiYjeGE7ICAgIDwvZz4mI3hhOyAgPC9nPiYjeGE7ICA8ZyBpbmtzY2FwZTpncm91cG1vZGU9ImxheWVyIiBpZD0ibGF5ZXI0IiBpbmtzY2FwZTpsYWJlbD0iSW50cm9fR3JvdXAgb2YgdG9waWNzIiBzdHlsZT0iZGlzcGxheTpub25lIiB0cmFuc2Zvcm09InRyYW5zbGF0ZSgtMTQ0LjI1NDE2LC0xMDkuNTM4MDUpIj4mI3hhOyAgICA8ZyBzdHlsZT0iZGlzcGxheTppbmxpbmUiIGlkPSJnMTg5NCIgdHJhbnNmb3JtPSJtYXRyaXgoOS43NTM5Nzk2LDAsMCwxMC4yMDM3NTIsLTExNzIuNzgyLC0yNzA0LjI0OTMpIj4mI3hhOyAgICAgIDxjaXJjbGUgc3R5bGU9Im9wYWNpdHk6MTtmaWxsOiNmZmZmZmY7ZmlsbC1vcGFjaXR5OjE7c3Ryb2tlOiM2NjM3NjY7c3Ryb2tlLXdpZHRoOjE7c3Ryb2tlLW1pdGVybGltaXQ6NDtzdHJva2UtZGFzaGFycmF5Om5vbmU7c3Ryb2tlLW9wYWNpdHk6MSIgaWQ9ImNpcmNsZTE3NzciIGN4PSIxNjAuMzA5MTQiIGN5PSIyNjguNjUxNzkiIHI9IjI0LjkzOTA1OCIvPiYjeGE7ICAgICAgPHBhdGggc3R5bGU9ImZpbGw6IzY2Mzc2NjtmaWxsLW9wYWNpdHk6MTtzdHJva2U6IzY2Mzc2NjtzdHJva2Utd2lkdGg6MC4yNjQ1ODMzMnB4O3N0cm9rZS1saW5lY2FwOmJ1dHQ7c3Ryb2tlLWxpbmVqb2luOm1pdGVyO3N0cm9rZS1vcGFjaXR5OjEiIGQ9Im0gMTM4LjA1NTgsMjU3LjMxMjUgYyA5LjgyNDQ3LC0xNy44NTE2OSAzNS42NDQzLC0xNy43MDI0NiA0NC42OTU2OSwwIHoiIGlkPSJwYXRoMTc4MSIgaW5rc2NhcGU6Y29ubmVjdG9yLWN1cnZhdHVyZT0iMCIgc29kaXBvZGk6bm9kZXR5cGVzPSJjY2MiLz4mI3hhOyAgICAgIDxwYXRoIHN0eWxlPSJmaWxsOiNmZmZmZmY7ZmlsbC1vcGFjaXR5OjE7c3Ryb2tlOiM2NjM3NjY7c3Ryb2tlLXdpZHRoOjAuOTcyOTg0NjE7c3Ryb2tlLWxpbmVjYXA6YnV0dDtzdHJva2UtbGluZWpvaW46bWl0ZXI7c3Ryb2tlLW1pdGVybGltaXQ6NDtzdHJva2UtZGFzaGFycmF5Om5vbmU7c3Ryb2tlLW9wYWNpdHk6MSIgZD0ibSAxNDEuOTc0MDcsMjY1LjY5Njg4IDM3LjYyODI2LC0wLjE0ODI3IDAuMjI4MDYsLTAuMDc0MSIgaWQ9InBhdGgxNzgzIiBpbmtzY2FwZTpjb25uZWN0b3ItY3VydmF0dXJlPSIwIi8+JiN4YTsgICAgICA8cGF0aCBpbmtzY2FwZTpjb25uZWN0b3ItY3VydmF0dXJlPSIwIiBpZD0icGF0aDE3ODkiIGQ9Im0gMTQxLjU5NjA5LDI3Mi42ODk0NCAzNy42MjgyNiwtMC4xNDgyNyAwLjIyODA2LC0wLjA3NDEiIHN0eWxlPSJmaWxsOiNmZmZmZmY7ZmlsbC1vcGFjaXR5OjE7c3Ryb2tlOiM2NjM3NjY7c3Ryb2tlLXdpZHRoOjAuOTcyOTg0NjE7c3Ryb2tlLWxpbmVjYXA6YnV0dDtzdHJva2UtbGluZWpvaW46bWl0ZXI7c3Ryb2tlLW1pdGVybGltaXQ6NDtzdHJva2UtZGFzaGFycmF5Om5vbmU7c3Ryb2tlLW9wYWNpdHk6MSIvPiYjeGE7ICAgICAgPHBhdGggc3R5bGU9ImZpbGw6I2ZmZmZmZjtmaWxsLW9wYWNpdHk6MTtzdHJva2U6IzY2Mzc2NjtzdHJva2Utd2lkdGg6MC45NzI5ODQ2MTtzdHJva2UtbGluZWNhcDpidXR0O3N0cm9rZS1saW5lam9pbjptaXRlcjtzdHJva2UtbWl0ZXJsaW1pdDo0O3N0cm9rZS1kYXNoYXJyYXk6bm9uZTtzdHJva2Utb3BhY2l0eToxIiBkPSJtIDE0MS43ODUwOCwyNzkuODcwOTkgMzcuNjI4MjYsLTAuMTQ4MjcgMC4yMjgwNiwtMC4wNzQxIiBpZD0icGF0aDE3OTEiIGlua3NjYXBlOmNvbm5lY3Rvci1jdXJ2YXR1cmU9IjAiLz4mI3hhOyAgICA8L2c+JiN4YTsgIDwvZz4mI3hhOyAgPGcgaW5rc2NhcGU6Z3JvdXBtb2RlPSJsYXllciIgaWQ9ImxheWVyMyIgaW5rc2NhcGU6bGFiZWw9IkRpYWxvZ3VlIEFjdCIgc3R5bGU9ImRpc3BsYXk6bm9uZSIgdHJhbnNmb3JtPSJ0cmFuc2xhdGUoLTE0NC4yNTQxNiwtMTA5LjUzODA1KSI+JiN4YTsgICAgPGcgc3R5bGU9ImRpc3BsYXk6aW5saW5lIiBpZD0iZzE4NjkiPiYjeGE7ICAgICAgPGVsbGlwc2Ugc3R5bGU9Im9wYWNpdHk6MTtmaWxsOiM5OTk5OTk7ZmlsbC1vcGFjaXR5OjE7c3Ryb2tlOiM5OTk5OTk7c3Ryb2tlLXdpZHRoOjEuNTtzdHJva2UtbWl0ZXJsaW1pdDo0O3N0cm9rZS1kYXNoYXJyYXk6bm9uZTtzdHJva2Utb3BhY2l0eToxO2ZpbHRlcjp1cmwoI2ZpbHRlcjE2ODMpIiBpZD0iZWxsaXBzZTE0ODMiIGN4PSIxNDUuNzA5ODEiIGN5PSI5Ny4wNTA1ODMiIHJ4PSIxMS4xNTAyOTciIHJ5PSIxMS4zMzkyODYiLz4mI3hhOyAgICAgIDxlbGxpcHNlIHJ5PSIxMS4zMzkyODYiIHJ4PSIxMS4xNTAyOTciIGN5PSI5NC42MDcxNzgiIGN4PSIxNDcuMzA5NTEiIGlkPSJwYXRoMTM3OSIgc3R5bGU9Im9wYWNpdHk6MTtmaWxsOnVybCgjbGluZWFyR3JhZGllbnQxODU3KTtmaWxsLW9wYWNpdHk6MTtzdHJva2U6IzY2Mzc2NjtzdHJva2Utd2lkdGg6MS41O3N0cm9rZS1taXRlcmxpbWl0OjQ7c3Ryb2tlLWRhc2hhcnJheTpub25lO3N0cm9rZS1vcGFjaXR5OjEiLz4mI3hhOyAgICA8L2c+JiN4YTsgIDwvZz4mI3hhOyAgPGcgaW5rc2NhcGU6Z3JvdXBtb2RlPSJsYXllciIgaWQ9ImxheWVyMiIgaW5rc2NhcGU6bGFiZWw9Ik11bHRpcGxlIHRvcGljIiBzdHlsZT0iZGlzcGxheTpub25lIiB0cmFuc2Zvcm09InRyYW5zbGF0ZSgtMTQ0LjI1NDE2LC0xMDkuNTM4MDUpIj4mI3hhOyAgICA8cmVjdCBzdHlsZT0ib3BhY2l0eToxO2ZpbGw6bm9uZTtmaWxsLW9wYWNpdHk6MTtzdHJva2U6IzY2Mzc2NjtzdHJva2Utd2lkdGg6MS4zNzQ4NDU4NjtzdHJva2UtbWl0ZXJsaW1pdDo0O3N0cm9rZS1kYXNoYXJyYXk6bm9uZTtzdHJva2Utb3BhY2l0eToxIiBpZD0icmVjdDEzNjUiIHdpZHRoPSIxMzUuOTY3MjEiIGhlaWdodD0iODEuMDMwNTYzIiB4PSIxMy4wNzc2MTMiIHk9IjEzMy4yNjQ0NyIgcnk9IjEwLjYzMjk3Ii8+JiN4YTsgICAgPHJlY3Qgcnk9IjkuNDQ4MDU2MiIgeT0iMTM3Ljk3MDU1IiB4PSIxOS42NjQ5NjgiIGhlaWdodD0iNzIuMDAwNjk0IiB3aWR0aD0iMTIyLjc5MjQ5IiBpZD0icmVjdDEzNjciIHN0eWxlPSJvcGFjaXR5OjE7ZmlsbDpub25lO2ZpbGwtb3BhY2l0eToxO3N0cm9rZTojNjYzNzY2O3N0cm9rZS13aWR0aDoxLjM0Mjc1OTAxO3N0cm9rZS1taXRlcmxpbWl0OjQ7c3Ryb2tlLWRhc2hhcnJheTpub25lO3N0cm9rZS1vcGFjaXR5OjEiLz4mI3hhOyAgPC9nPiYjeGE7PC9zdmc+;shadow=1;strokeColor=#540054;strokeWidth=3;fillColor=none;gradientColor=#E69CDC;fontFamily=Tahoma;fontSize=16;fontColor=#000000;align=left;" parent="2tFBRqaM1ZA4eUpaGNYp-97" vertex="1">
          <mxGeometry width="89.67" height="89" as="geometry" />
        </mxCell>
        <mxCell id="2tFBRqaM1ZA4eUpaGNYp-182" value="" style="html=1;shadow=0;dashed=0;align=center;verticalAlign=middle;shape=mxgraph.arrows2.arrow;dy=0.41;dx=40;notch=0;strokeColor=#540054;strokeWidth=3;fillColor=#540054;gradientColor=none;fontFamily=Tahoma;fontSize=16;fontColor=#000000;direction=south;" parent="2tFBRqaM1ZA4eUpaGNYp-97" vertex="1">
          <mxGeometry x="95" y="-10" width="40" height="20" as="geometry" />
        </mxCell>
        <mxCell id="2tFBRqaM1ZA4eUpaGNYp-103" value="" style="group" parent="1" vertex="1" connectable="0">
          <mxGeometry x="1330" y="435" width="280" height="540" as="geometry" />
        </mxCell>
        <mxCell id="2tFBRqaM1ZA4eUpaGNYp-104" value="" style="group" parent="2tFBRqaM1ZA4eUpaGNYp-103" vertex="1" connectable="0">
          <mxGeometry width="280" height="540" as="geometry" />
        </mxCell>
        <mxCell id="2tFBRqaM1ZA4eUpaGNYp-105" value="" style="rounded=0;whiteSpace=wrap;html=1;shadow=1;strokeColor=#540054;strokeWidth=3;fillColor=none;gradientColor=#E69CDC;fontFamily=Tahoma;fontSize=16;fontColor=#000000;align=left;dashed=1;" parent="2tFBRqaM1ZA4eUpaGNYp-104" vertex="1">
          <mxGeometry width="280" height="540" as="geometry" />
        </mxCell>
        <mxCell id="2tFBRqaM1ZA4eUpaGNYp-107" value="" style="group" parent="2tFBRqaM1ZA4eUpaGNYp-104" vertex="1" connectable="0">
          <mxGeometry x="70" y="40" width="184" height="200" as="geometry" />
        </mxCell>
        <mxCell id="2tFBRqaM1ZA4eUpaGNYp-108" value="" style="shape=card;whiteSpace=wrap;html=1;shadow=1;strokeColor=#540054;strokeWidth=3;fillColor=none;gradientColor=#E69CDC;fontFamily=Tahoma;fontSize=16;fontColor=#000000;align=left;flipH=1;" parent="2tFBRqaM1ZA4eUpaGNYp-107" vertex="1">
          <mxGeometry width="160" height="200" as="geometry" />
        </mxCell>
        <mxCell id="2tFBRqaM1ZA4eUpaGNYp-109" value="&lt;font style=&quot;font-size: 24px&quot;&gt;Overview&lt;/font&gt;" style="text;html=1;strokeColor=none;fillColor=none;align=center;verticalAlign=middle;whiteSpace=wrap;rounded=0;shadow=1;fontFamily=Tahoma;fontSize=16;fontColor=#000000;" parent="2tFBRqaM1ZA4eUpaGNYp-107" vertex="1">
          <mxGeometry x="54.117647058823536" y="72.89537712895377" width="43.294117647058826" height="13.625304136253039" as="geometry" />
        </mxCell>
        <mxCell id="2tFBRqaM1ZA4eUpaGNYp-114" value="" style="html=1;shadow=0;dashed=0;align=center;verticalAlign=middle;shape=mxgraph.arrows2.quadArrow;dy=10;dx=20;notch=24;arrowHead=10;strokeColor=#540054;strokeWidth=3;fillColor=#540054;gradientColor=#E69CDC;fontFamily=Tahoma;fontSize=16;fontColor=#000000;" parent="2tFBRqaM1ZA4eUpaGNYp-104" vertex="1">
          <mxGeometry x="-50" y="-45" width="110" height="110" as="geometry" />
        </mxCell>
        <mxCell id="DQq11PagsxluUDpcFpRx-2" value="" style="shape=card;whiteSpace=wrap;html=1;shadow=1;strokeColor=#540054;strokeWidth=3;fillColor=none;gradientColor=#E69CDC;fontFamily=Tahoma;fontSize=16;fontColor=#000000;align=left;flipH=1;" parent="2tFBRqaM1ZA4eUpaGNYp-104" vertex="1">
          <mxGeometry x="70" y="295" width="160" height="200" as="geometry" />
        </mxCell>
        <mxCell id="DQq11PagsxluUDpcFpRx-3" value="&lt;font style=&quot;font-size: 24px&quot;&gt;Contact form&lt;/font&gt;" style="text;html=1;strokeColor=none;fillColor=none;align=center;verticalAlign=middle;whiteSpace=wrap;rounded=0;shadow=1;fontFamily=Tahoma;fontSize=16;fontColor=#000000;" parent="2tFBRqaM1ZA4eUpaGNYp-104" vertex="1">
          <mxGeometry x="128.35764705882355" y="374.99537712895375" width="43.294117647058826" height="13.625304136253039" as="geometry" />
        </mxCell>
        <mxCell id="DQq11PagsxluUDpcFpRx-9" value="" style="endArrow=classic;startArrow=classic;html=1;shadow=0;strokeColor=#660066;strokeWidth=3;fillColor=#660066;gradientColor=#E69CDC;fontFamily=Tahoma;fontSize=16;fontColor=#000000;entryX=0.5;entryY=1;entryDx=0;entryDy=0;entryPerimeter=0;exitX=0.5;exitY=0;exitDx=0;exitDy=0;exitPerimeter=0;" parent="2tFBRqaM1ZA4eUpaGNYp-104" source="DQq11PagsxluUDpcFpRx-2" target="2tFBRqaM1ZA4eUpaGNYp-108" edge="1">
          <mxGeometry width="50" height="50" relative="1" as="geometry">
            <mxPoint x="20" y="735" as="sourcePoint" />
            <mxPoint x="300" y="735" as="targetPoint" />
          </mxGeometry>
        </mxCell>
        <mxCell id="2tFBRqaM1ZA4eUpaGNYp-112" value="" style="endArrow=classic;html=1;shadow=0;strokeColor=#660066;strokeWidth=3;fillColor=#660066;gradientColor=#E69CDC;fontFamily=Tahoma;fontSize=16;fontColor=#000000;exitX=0.5;exitY=1;exitDx=0;exitDy=0;exitPerimeter=0;entryX=0.525;entryY=-0.007;entryDx=0;entryDy=0;entryPerimeter=0;" parent="1" source="2tFBRqaM1ZA4eUpaGNYp-71" target="2tFBRqaM1ZA4eUpaGNYp-105" edge="1">
          <mxGeometry width="50" height="50" relative="1" as="geometry">
            <mxPoint x="1100" y="210" as="sourcePoint" />
            <mxPoint x="1380" y="210" as="targetPoint" />
            <Array as="points">
              <mxPoint x="815" y="360" />
              <mxPoint x="1477" y="360" />
            </Array>
          </mxGeometry>
        </mxCell>
        <mxCell id="2tFBRqaM1ZA4eUpaGNYp-113" value="&lt;font style=&quot;font-size: 24px&quot;&gt;Association&lt;/font&gt;" style="text;html=1;strokeColor=none;fillColor=none;align=center;verticalAlign=middle;whiteSpace=wrap;rounded=0;shadow=1;fontFamily=Tahoma;fontSize=16;fontColor=#000000;dashed=1;" parent="1" vertex="1">
          <mxGeometry x="1540" y="389.9982352941177" width="40" height="32.94117647058824" as="geometry" />
        </mxCell>
        <mxCell id="2tFBRqaM1ZA4eUpaGNYp-133" value="" style="group" parent="1" vertex="1" connectable="0">
          <mxGeometry x="870" y="790" width="280" height="330" as="geometry" />
        </mxCell>
        <mxCell id="2tFBRqaM1ZA4eUpaGNYp-134" value="" style="group" parent="2tFBRqaM1ZA4eUpaGNYp-133" vertex="1" connectable="0">
          <mxGeometry width="280" height="330" as="geometry" />
        </mxCell>
        <mxCell id="2tFBRqaM1ZA4eUpaGNYp-135" value="" style="rounded=0;whiteSpace=wrap;html=1;shadow=1;strokeColor=#540054;strokeWidth=3;fillColor=none;gradientColor=#E69CDC;fontFamily=Tahoma;fontSize=16;fontColor=#000000;align=left;dashed=1;" parent="2tFBRqaM1ZA4eUpaGNYp-134" vertex="1">
          <mxGeometry width="280" height="330" as="geometry" />
        </mxCell>
        <mxCell id="2tFBRqaM1ZA4eUpaGNYp-136" value="" style="rounded=0;whiteSpace=wrap;html=1;shadow=1;strokeColor=#540054;strokeWidth=3;fillColor=none;gradientColor=#E69CDC;fontFamily=Tahoma;fontSize=16;fontColor=#000000;align=left;dashed=1;" parent="2tFBRqaM1ZA4eUpaGNYp-134" vertex="1">
          <mxGeometry x="8.75" y="10" width="262.5" height="310.01" as="geometry" />
        </mxCell>
        <mxCell id="2tFBRqaM1ZA4eUpaGNYp-124" value="" style="group" parent="2tFBRqaM1ZA4eUpaGNYp-134" vertex="1" connectable="0">
          <mxGeometry x="55" y="55" width="170" height="220" as="geometry" />
        </mxCell>
        <mxCell id="2tFBRqaM1ZA4eUpaGNYp-125" value="" style="shape=card;whiteSpace=wrap;html=1;shadow=1;strokeColor=#540054;strokeWidth=3;fillColor=none;gradientColor=#E69CDC;fontFamily=Tahoma;fontSize=16;fontColor=#000000;align=left;flipH=1;" parent="2tFBRqaM1ZA4eUpaGNYp-124" vertex="1">
          <mxGeometry width="170" height="220" as="geometry" />
        </mxCell>
        <mxCell id="2tFBRqaM1ZA4eUpaGNYp-126" value="&lt;font style=&quot;font-size: 24px&quot;&gt;Description&lt;br style=&quot;font-size: 24px&quot;&gt;+&lt;br style=&quot;font-size: 24px&quot;&gt;Image&lt;/font&gt;" style="text;html=1;strokeColor=none;fillColor=none;align=center;verticalAlign=middle;whiteSpace=wrap;rounded=0;shadow=1;fontFamily=Tahoma;fontSize=16;fontColor=#000000;" parent="2tFBRqaM1ZA4eUpaGNYp-124" vertex="1">
          <mxGeometry x="20" y="70" width="120" height="120" as="geometry" />
        </mxCell>
        <mxCell id="2tFBRqaM1ZA4eUpaGNYp-128" value="" style="shape=image;verticalLabelPosition=bottom;verticalAlign=top;imageAspect=0;aspect=fixed;image=data:image/svg+xml,PHN2ZyB4bWxuczpkYz0iaHR0cDovL3B1cmwub3JnL2RjL2VsZW1lbnRzLzEuMS8iIHhtbG5zOmNjPSJodHRwOi8vY3JlYXRpdmVjb21tb25zLm9yZy9ucyMiIHhtbG5zOnJkZj0iaHR0cDovL3d3dy53My5vcmcvMTk5OS8wMi8yMi1yZGYtc3ludGF4LW5zIyIgeG1sbnM6c3ZnPSJodHRwOi8vd3d3LnczLm9yZy8yMDAwL3N2ZyIgeG1sbnM9Imh0dHA6Ly93d3cudzMub3JnLzIwMDAvc3ZnIiB4bWxuczp4bGluaz0iaHR0cDovL3d3dy53My5vcmcvMTk5OS94bGluayIgeG1sbnM6c29kaXBvZGk9Imh0dHA6Ly9zb2RpcG9kaS5zb3VyY2Vmb3JnZS5uZXQvRFREL3NvZGlwb2RpLTAuZHRkIiB4bWxuczppbmtzY2FwZT0iaHR0cDovL3d3dy5pbmtzY2FwZS5vcmcvbmFtZXNwYWNlcy9pbmtzY2FwZSIgd2lkdGg9IjI1LjcwMjgwOG1tIiBoZWlnaHQ9IjI2LjkyNDQ5bW0iIHZpZXdCb3g9IjAgMCAyNS43MDI4MDggMjYuOTI0NDg5IiB2ZXJzaW9uPSIxLjEiIGlkPSJzdmc4MjAiIGlua3NjYXBlOnZlcnNpb249IjAuOTIuNCAoNWRhNjg5YzMxMywgMjAxOS0wMS0xNCkiIHNvZGlwb2RpOmRvY25hbWU9IkRpYWxvZ3VlIGFjdC5zdmciPiYjeGE7ICA8ZGVmcyBpZD0iZGVmczgxNCI+JiN4YTsgICAgPGxpbmVhckdyYWRpZW50IGlua3NjYXBlOmNvbGxlY3Q9ImFsd2F5cyIgaWQ9ImxpbmVhckdyYWRpZW50MTgxNSI+JiN4YTsgICAgICA8c3RvcCBzdHlsZT0ic3RvcC1jb2xvcjojNjYzNzY2O3N0b3Atb3BhY2l0eToxIiBvZmZzZXQ9IjAiIGlkPSJzdG9wMTgxMSIvPiYjeGE7ICAgICAgPHN0b3Agc3R5bGU9InN0b3AtY29sb3I6I2FmNzZiZDtzdG9wLW9wYWNpdHk6MSIgb2Zmc2V0PSIxIiBpZD0ic3RvcDE4MTMiLz4mI3hhOyAgICA8L2xpbmVhckdyYWRpZW50PiYjeGE7ICAgIDxmaWx0ZXIgaW5rc2NhcGU6Y29sbGVjdD0iYWx3YXlzIiBzdHlsZT0iY29sb3ItaW50ZXJwb2xhdGlvbi1maWx0ZXJzOnNSR0IiIGlkPSJmaWx0ZXIxNjgzIiB4PSItMC4wNDcxOTY2MTIiIHdpZHRoPSIxLjA5NDM5MzMiIHk9Ii0wLjA0NjQwOTk5OCIgaGVpZ2h0PSIxLjA5MjgyIj4mI3hhOyAgICAgIDxmZUdhdXNzaWFuQmx1ciBpbmtzY2FwZTpjb2xsZWN0PSJhbHdheXMiIHN0ZERldmlhdGlvbj0iMC40Mzg1NDY4NyIgaWQ9ImZlR2F1c3NpYW5CbHVyMTY4NSIvPiYjeGE7ICAgIDwvZmlsdGVyPiYjeGE7ICAgIDxsaW5lYXJHcmFkaWVudCBpbmtzY2FwZTpjb2xsZWN0PSJhbHdheXMiIHhsaW5rOmhyZWY9IiNsaW5lYXJHcmFkaWVudDE4MTUiIGlkPSJsaW5lYXJHcmFkaWVudDE4NTciIHgxPSIxNTEuMzc5NDciIHkxPSI5MS43NTg5MjYiIHgyPSIxNDYuODQzNzUiIHkyPSIxMDUuOTMzMDQiIGdyYWRpZW50VW5pdHM9InVzZXJTcGFjZU9uVXNlIi8+JiN4YTsgIDwvZGVmcz4mI3hhOyAgPHNvZGlwb2RpOm5hbWVkdmlldyBpZD0iYmFzZSIgcGFnZWNvbG9yPSIjZmZmZmZmIiBib3JkZXJjb2xvcj0iIzY2NjY2NiIgYm9yZGVyb3BhY2l0eT0iMS4wIiBpbmtzY2FwZTpwYWdlb3BhY2l0eT0iMC4wIiBpbmtzY2FwZTpwYWdlc2hhZG93PSIyIiBpbmtzY2FwZTp6b29tPSIwLjciIGlua3NjYXBlOmN4PSItMjk1LjY4OTY1IiBpbmtzY2FwZTpjeT0iLTEzMy4wMTA4IiBpbmtzY2FwZTpkb2N1bWVudC11bml0cz0ibW0iIGlua3NjYXBlOmN1cnJlbnQtbGF5ZXI9ImxheWVyMyIgc2hvd2dyaWQ9ImZhbHNlIiBpbmtzY2FwZTp3aW5kb3ctd2lkdGg9IjE5MjAiIGlua3NjYXBlOndpbmRvdy1oZWlnaHQ9IjEwMTMiIGlua3NjYXBlOndpbmRvdy14PSItOSIgaW5rc2NhcGU6d2luZG93LXk9Ii05IiBpbmtzY2FwZTp3aW5kb3ctbWF4aW1pemVkPSIxIi8+JiN4YTsgIDxtZXRhZGF0YSBpZD0ibWV0YWRhdGE4MTciPiYjeGE7ICAgIDxyZGY6UkRGPiYjeGE7ICAgICAgPGNjOldvcmsgcmRmOmFib3V0PSIiPiYjeGE7ICAgICAgICA8ZGM6Zm9ybWF0PmltYWdlL3N2Zyt4bWw8L2RjOmZvcm1hdD4mI3hhOyAgICAgICAgPGRjOnR5cGUgcmRmOnJlc291cmNlPSJodHRwOi8vcHVybC5vcmcvZGMvZGNtaXR5cGUvU3RpbGxJbWFnZSIvPiYjeGE7ICAgICAgICA8ZGM6dGl0bGUvPiYjeGE7ICAgICAgPC9jYzpXb3JrPiYjeGE7ICAgIDwvcmRmOlJERj4mI3hhOyAgPC9tZXRhZGF0YT4mI3hhOyAgPGcgaW5rc2NhcGU6bGFiZWw9IlRvcGljIiBpbmtzY2FwZTpncm91cG1vZGU9ImxheWVyIiBpZD0ibGF5ZXIxIiBzdHlsZT0iZGlzcGxheTpub25lIiB0cmFuc2Zvcm09InRyYW5zbGF0ZSgtMTMzLjUwNywtODIuNTE3ODkyKSI+JiN4YTsgICAgPHJlY3Qgcnk9IjEwLjU1NDE1MSIgeT0iMTMzLjU0NSIgeD0iMTIuMzI1MjQ1IiBoZWlnaHQ9IjgwLjQyOTkwOSIgd2lkdGg9IjEzNC44NTg0NiIgaWQ9InJlY3QxMzY5IiBzdHlsZT0ib3BhY2l0eToxO2ZpbGw6bm9uZTtmaWxsLW9wYWNpdHk6MTtzdHJva2U6IzY2Mzc2NjtzdHJva2Utd2lkdGg6MS4zNjQxNDQ0NDtzdHJva2UtbWl0ZXJsaW1pdDo0O3N0cm9rZS1kYXNoYXJyYXk6bm9uZTtzdHJva2Utb3BhY2l0eToxIi8+JiN4YTsgIDwvZz4mI3hhOyAgPGcgaW5rc2NhcGU6Z3JvdXBtb2RlPSJsYXllciIgaWQ9ImxheWVyNiIgaW5rc2NhcGU6bGFiZWw9InRyYW5zaXRpb24gYWN0IiBzdHlsZT0iZGlzcGxheTpub25lIiB0cmFuc2Zvcm09InRyYW5zbGF0ZSgtMTMzLjUwNywtODIuNTE3ODkyKSI+JiN4YTsgICAgPGcgc3R5bGU9ImRpc3BsYXk6aW5saW5lIiBpZD0iZzE4NzkiPiYjeGE7ICAgICAgPGVsbGlwc2Ugcnk9IjIwLjY2MTM4MSIgcng9IjIyLjM2MjI3NCIgY3k9IjE0OC42NDQzNSIgY3g9IjE2MC42ODcxMiIgaWQ9ImNpcmNsZTE4NTkiIHN0eWxlPSJvcGFjaXR5OjE7ZmlsbDojZmZmZmZmO2ZpbGwtb3BhY2l0eToxO3N0cm9rZTojNjYzNzY2O3N0cm9rZS13aWR0aDowLjg2MTkwMTQ2O3N0cm9rZS1taXRlcmxpbWl0OjQ7c3Ryb2tlLWRhc2hhcnJheTpub25lO3N0cm9rZS1vcGFjaXR5OjEiLz4mI3hhOyAgICAgIDxwYXRoIGlua3NjYXBlOmNvbm5lY3Rvci1jdXJ2YXR1cmU9IjAiIGlkPSJwYXRoMTg2MSIgZD0ibSAxNDMuODI3MjQsMTQwLjk0NzMxIDM0LjMwNTgzLC0wLjE3MzQzIDAuMjA3OTIsLTAuMDg2NiIgc3R5bGU9ImZpbGw6I2ZmZmZmZjtmaWxsLW9wYWNpdHk6MTtzdHJva2U6IzY2Mzc2NjtzdHJva2Utd2lkdGg6MS4wMDQ3NzMwMjtzdHJva2UtbGluZWNhcDpidXR0O3N0cm9rZS1saW5lam9pbjptaXRlcjtzdHJva2UtbWl0ZXJsaW1pdDo0O3N0cm9rZS1kYXNoYXJyYXk6bm9uZTtzdHJva2Utb3BhY2l0eToxIi8+JiN4YTsgICAgICA8cGF0aCBzdHlsZT0iZmlsbDojZmZmZmZmO2ZpbGwtb3BhY2l0eToxO3N0cm9rZTojNjYzNzY2O3N0cm9rZS13aWR0aDoxLjAwNDc3MzAyO3N0cm9rZS1saW5lY2FwOmJ1dHQ7c3Ryb2tlLWxpbmVqb2luOm1pdGVyO3N0cm9rZS1taXRlcmxpbWl0OjQ7c3Ryb2tlLWRhc2hhcnJheTpub25lO3N0cm9rZS1vcGFjaXR5OjEiIGQ9Im0gMTQzLjQ4MjYzLDE0OS4xMjY0MyAzNC4zMDU4NCwtMC4xNzM0NCAwLjIwNzkyLC0wLjA4NjYiIGlkPSJwYXRoMTg2MyIgaW5rc2NhcGU6Y29ubmVjdG9yLWN1cnZhdHVyZT0iMCIvPiYjeGE7ICAgICAgPHBhdGggaW5rc2NhcGU6Y29ubmVjdG9yLWN1cnZhdHVyZT0iMCIgaWQ9InBhdGgxODY1IiBkPSJtIDE0My42NTQ5MywxNTcuNTI2NiAzNC4zMDU4NCwtMC4xNzM0MyAwLjIwNzkyLC0wLjA4NjYiIHN0eWxlPSJmaWxsOiNmZmZmZmY7ZmlsbC1vcGFjaXR5OjE7c3Ryb2tlOiM2NjM3NjY7c3Ryb2tlLXdpZHRoOjEuMDA0NzczMDI7c3Ryb2tlLWxpbmVjYXA6YnV0dDtzdHJva2UtbGluZWpvaW46bWl0ZXI7c3Ryb2tlLW1pdGVybGltaXQ6NDtzdHJva2UtZGFzaGFycmF5Om5vbmU7c3Ryb2tlLW9wYWNpdHk6MSIvPiYjeGE7ICAgIDwvZz4mI3hhOyAgPC9nPiYjeGE7ICA8ZyBpbmtzY2FwZTpncm91cG1vZGU9ImxheWVyIiBpZD0ibGF5ZXI1IiBpbmtzY2FwZTpsYWJlbD0iSW50cm9fIG11bHRpcGxlIGdyb3VwcyBvZiB0b3BpY3MiIHN0eWxlPSJkaXNwbGF5Om5vbmUiIHRyYW5zZm9ybT0idHJhbnNsYXRlKC0xMzMuNTA3LC04Mi41MTc4OTIpIj4mI3hhOyAgICA8ZyBzdHlsZT0iZGlzcGxheTppbmxpbmUiIGlkPSJnMTg4NyI+JiN4YTsgICAgICA8Y2lyY2xlIHI9IjI0LjkzOTA1OCIgY3k9IjIxMy4yNzgyNyIgY3g9IjE2MS4yNTQwOSIgaWQ9InBhdGgxNzQ5IiBzdHlsZT0ib3BhY2l0eToxO2ZpbGw6I2ZmZmZmZjtmaWxsLW9wYWNpdHk6MTtzdHJva2U6IzY2Mzc2NjtzdHJva2Utd2lkdGg6MTtzdHJva2UtbWl0ZXJsaW1pdDo0O3N0cm9rZS1kYXNoYXJyYXk6bm9uZTtzdHJva2Utb3BhY2l0eToxIi8+JiN4YTsgICAgICA8Y2lyY2xlIHN0eWxlPSJvcGFjaXR5OjE7ZmlsbDojZmZmZmZmO2ZpbGwtb3BhY2l0eToxO3N0cm9rZTojNjYzNzY2O3N0cm9rZS13aWR0aDowLjg4MTEzNTE3O3N0cm9rZS1taXRlcmxpbWl0OjQ7c3Ryb2tlLWRhc2hhcnJheTpub25lO3N0cm9rZS1vcGFjaXR5OjEiIGlkPSJjaXJjbGUxNzUxIiBjeD0iMTYxLjI1NDA5IiBjeT0iMjEzLjI3ODI3IiByPSIyMS45NzQ2ODIiLz4mI3hhOyAgICAgIDxwYXRoIHNvZGlwb2RpOm5vZGV0eXBlcz0iY2NjIiBpbmtzY2FwZTpjb25uZWN0b3ItY3VydmF0dXJlPSIwIiBpZD0icGF0aDE3NTUiIGQ9Im0gMTM5LjAwMDc0LDIwMS45Mzg5OSBjIDkuODI0NDcsLTE3Ljg1MTY5IDM1LjY0NDMsLTE3LjcwMjQ2IDQ0LjY5NTY5LDAgeiIgc3R5bGU9ImZpbGw6IzY2Mzc2NjtmaWxsLW9wYWNpdHk6MTtzdHJva2U6IzY2Mzc2NjtzdHJva2Utd2lkdGg6MC4yNjQ1ODMzMnB4O3N0cm9rZS1saW5lY2FwOmJ1dHQ7c3Ryb2tlLWxpbmVqb2luOm1pdGVyO3N0cm9rZS1vcGFjaXR5OjEiLz4mI3hhOyAgICAgIDxwYXRoIGlua3NjYXBlOmNvbm5lY3Rvci1jdXJ2YXR1cmU9IjAiIGlkPSJwYXRoMTc1NyIgZD0ibSAxNDUuNjE1MzIsMjEwLjA2NTQ4IDMxLjE4MzA0LC0wLjE4ODk5IDAuMTg4OTksLTAuMDk0NSIgc3R5bGU9ImZpbGw6I2ZmZmZmZjtmaWxsLW9wYWNpdHk6MTtzdHJva2U6IzY2Mzc2NjtzdHJva2Utd2lkdGg6MTtzdHJva2UtbGluZWNhcDpidXR0O3N0cm9rZS1saW5lam9pbjptaXRlcjtzdHJva2UtbWl0ZXJsaW1pdDo0O3N0cm9rZS1kYXNoYXJyYXk6bm9uZTtzdHJva2Utb3BhY2l0eToxIi8+JiN4YTsgICAgICA8cGF0aCBzdHlsZT0iZmlsbDojZmZmZmZmO2ZpbGwtb3BhY2l0eToxO3N0cm9rZTojNjYzNzY2O3N0cm9rZS13aWR0aDoxO3N0cm9rZS1saW5lY2FwOmJ1dHQ7c3Ryb2tlLWxpbmVqb2luOm1pdGVyO3N0cm9rZS1taXRlcmxpbWl0OjQ7c3Ryb2tlLWRhc2hhcnJheTpub25lO3N0cm9rZS1vcGFjaXR5OjEiIGQ9Im0gMTQ1LjYxNTMyLDIxNi44NjkwNCAzMS4xODMwNCwtMC4xODg5OSAwLjE4ODk5LC0wLjA5NDUiIGlkPSJwYXRoMTc1OSIgaW5rc2NhcGU6Y29ubmVjdG9yLWN1cnZhdHVyZT0iMCIvPiYjeGE7ICAgICAgPHBhdGggaW5rc2NhcGU6Y29ubmVjdG9yLWN1cnZhdHVyZT0iMCIgaWQ9InBhdGgxNzYxIiBkPSJtIDE0NS40MjYzNCwyMjMuODYxNjEgMzEuMTgzMDQsLTAuMTg4OTkgMC4xODg5OSwtMC4wOTQ1IiBzdHlsZT0iZmlsbDojZmZmZmZmO2ZpbGwtb3BhY2l0eToxO3N0cm9rZTojNjYzNzY2O3N0cm9rZS13aWR0aDoxO3N0cm9rZS1saW5lY2FwOmJ1dHQ7c3Ryb2tlLWxpbmVqb2luOm1pdGVyO3N0cm9rZS1taXRlcmxpbWl0OjQ7c3Ryb2tlLWRhc2hhcnJheTpub25lO3N0cm9rZS1vcGFjaXR5OjEiLz4mI3hhOyAgICA8L2c+JiN4YTsgIDwvZz4mI3hhOyAgPGcgaW5rc2NhcGU6Z3JvdXBtb2RlPSJsYXllciIgaWQ9ImxheWVyNCIgaW5rc2NhcGU6bGFiZWw9IkludHJvX0dyb3VwIG9mIHRvcGljcyIgc3R5bGU9ImRpc3BsYXk6bm9uZSIgdHJhbnNmb3JtPSJ0cmFuc2xhdGUoLTEzMy41MDcsLTgyLjUxNzg5MikiPiYjeGE7ICAgIDxnIHN0eWxlPSJkaXNwbGF5OmlubGluZSIgaWQ9ImcxODk0Ij4mI3hhOyAgICAgIDxjaXJjbGUgc3R5bGU9Im9wYWNpdHk6MTtmaWxsOiNmZmZmZmY7ZmlsbC1vcGFjaXR5OjE7c3Ryb2tlOiM2NjM3NjY7c3Ryb2tlLXdpZHRoOjE7c3Ryb2tlLW1pdGVybGltaXQ6NDtzdHJva2UtZGFzaGFycmF5Om5vbmU7c3Ryb2tlLW9wYWNpdHk6MSIgaWQ9ImNpcmNsZTE3NzciIGN4PSIxNjAuMzA5MTQiIGN5PSIyNjguNjUxNzkiIHI9IjI0LjkzOTA1OCIvPiYjeGE7ICAgICAgPHBhdGggc3R5bGU9ImZpbGw6IzY2Mzc2NjtmaWxsLW9wYWNpdHk6MTtzdHJva2U6IzY2Mzc2NjtzdHJva2Utd2lkdGg6MC4yNjQ1ODMzMnB4O3N0cm9rZS1saW5lY2FwOmJ1dHQ7c3Ryb2tlLWxpbmVqb2luOm1pdGVyO3N0cm9rZS1vcGFjaXR5OjEiIGQ9Im0gMTM4LjA1NTgsMjU3LjMxMjUgYyA5LjgyNDQ3LC0xNy44NTE2OSAzNS42NDQzLC0xNy43MDI0NiA0NC42OTU2OSwwIHoiIGlkPSJwYXRoMTc4MSIgaW5rc2NhcGU6Y29ubmVjdG9yLWN1cnZhdHVyZT0iMCIgc29kaXBvZGk6bm9kZXR5cGVzPSJjY2MiLz4mI3hhOyAgICAgIDxwYXRoIHN0eWxlPSJmaWxsOiNmZmZmZmY7ZmlsbC1vcGFjaXR5OjE7c3Ryb2tlOiM2NjM3NjY7c3Ryb2tlLXdpZHRoOjAuOTcyOTg0NjE7c3Ryb2tlLWxpbmVjYXA6YnV0dDtzdHJva2UtbGluZWpvaW46bWl0ZXI7c3Ryb2tlLW1pdGVybGltaXQ6NDtzdHJva2UtZGFzaGFycmF5Om5vbmU7c3Ryb2tlLW9wYWNpdHk6MSIgZD0ibSAxNDEuOTc0MDcsMjY1LjY5Njg4IDM3LjYyODI2LC0wLjE0ODI3IDAuMjI4MDYsLTAuMDc0MSIgaWQ9InBhdGgxNzgzIiBpbmtzY2FwZTpjb25uZWN0b3ItY3VydmF0dXJlPSIwIi8+JiN4YTsgICAgICA8cGF0aCBpbmtzY2FwZTpjb25uZWN0b3ItY3VydmF0dXJlPSIwIiBpZD0icGF0aDE3ODkiIGQ9Im0gMTQxLjU5NjA5LDI3Mi42ODk0NCAzNy42MjgyNiwtMC4xNDgyNyAwLjIyODA2LC0wLjA3NDEiIHN0eWxlPSJmaWxsOiNmZmZmZmY7ZmlsbC1vcGFjaXR5OjE7c3Ryb2tlOiM2NjM3NjY7c3Ryb2tlLXdpZHRoOjAuOTcyOTg0NjE7c3Ryb2tlLWxpbmVjYXA6YnV0dDtzdHJva2UtbGluZWpvaW46bWl0ZXI7c3Ryb2tlLW1pdGVybGltaXQ6NDtzdHJva2UtZGFzaGFycmF5Om5vbmU7c3Ryb2tlLW9wYWNpdHk6MSIvPiYjeGE7ICAgICAgPHBhdGggc3R5bGU9ImZpbGw6I2ZmZmZmZjtmaWxsLW9wYWNpdHk6MTtzdHJva2U6IzY2Mzc2NjtzdHJva2Utd2lkdGg6MC45NzI5ODQ2MTtzdHJva2UtbGluZWNhcDpidXR0O3N0cm9rZS1saW5lam9pbjptaXRlcjtzdHJva2UtbWl0ZXJsaW1pdDo0O3N0cm9rZS1kYXNoYXJyYXk6bm9uZTtzdHJva2Utb3BhY2l0eToxIiBkPSJtIDE0MS43ODUwOCwyNzkuODcwOTkgMzcuNjI4MjYsLTAuMTQ4MjcgMC4yMjgwNiwtMC4wNzQxIiBpZD0icGF0aDE3OTEiIGlua3NjYXBlOmNvbm5lY3Rvci1jdXJ2YXR1cmU9IjAiLz4mI3hhOyAgICA8L2c+JiN4YTsgIDwvZz4mI3hhOyAgPGcgaW5rc2NhcGU6Z3JvdXBtb2RlPSJsYXllciIgaWQ9ImxheWVyMyIgaW5rc2NhcGU6bGFiZWw9IkRpYWxvZ3VlIEFjdCIgc3R5bGU9ImRpc3BsYXk6aW5saW5lIiB0cmFuc2Zvcm09InRyYW5zbGF0ZSgtMTMzLjUwNywtODIuNTE3ODkyKSI+JiN4YTsgICAgPGcgc3R5bGU9ImRpc3BsYXk6aW5saW5lIiBpZD0iZzE4NjkiPiYjeGE7ICAgICAgPGVsbGlwc2Ugc3R5bGU9Im9wYWNpdHk6MTtmaWxsOiM5OTk5OTk7ZmlsbC1vcGFjaXR5OjE7c3Ryb2tlOiM5OTk5OTk7c3Ryb2tlLXdpZHRoOjEuNTtzdHJva2UtbWl0ZXJsaW1pdDo0O3N0cm9rZS1kYXNoYXJyYXk6bm9uZTtzdHJva2Utb3BhY2l0eToxO2ZpbHRlcjp1cmwoI2ZpbHRlcjE2ODMpIiBpZD0iZWxsaXBzZTE0ODMiIGN4PSIxNDUuNzA5ODEiIGN5PSI5Ny4wNTA1ODMiIHJ4PSIxMS4xNTAyOTciIHJ5PSIxMS4zMzkyODYiLz4mI3hhOyAgICAgIDxlbGxpcHNlIHJ5PSIxMS4zMzkyODYiIHJ4PSIxMS4xNTAyOTciIGN5PSI5NC42MDcxNzgiIGN4PSIxNDcuMzA5NTEiIGlkPSJwYXRoMTM3OSIgc3R5bGU9Im9wYWNpdHk6MTtmaWxsOnVybCgjbGluZWFyR3JhZGllbnQxODU3KTtmaWxsLW9wYWNpdHk6MTtzdHJva2U6IzY2Mzc2NjtzdHJva2Utd2lkdGg6MS41O3N0cm9rZS1taXRlcmxpbWl0OjQ7c3Ryb2tlLWRhc2hhcnJheTpub25lO3N0cm9rZS1vcGFjaXR5OjEiLz4mI3hhOyAgICA8L2c+JiN4YTsgIDwvZz4mI3hhOyAgPGcgaW5rc2NhcGU6Z3JvdXBtb2RlPSJsYXllciIgaWQ9ImxheWVyMiIgaW5rc2NhcGU6bGFiZWw9Ik11bHRpcGxlIHRvcGljIiBzdHlsZT0iZGlzcGxheTpub25lIiB0cmFuc2Zvcm09InRyYW5zbGF0ZSgtMTMzLjUwNywtODIuNTE3ODkyKSI+JiN4YTsgICAgPHJlY3Qgc3R5bGU9Im9wYWNpdHk6MTtmaWxsOm5vbmU7ZmlsbC1vcGFjaXR5OjE7c3Ryb2tlOiM2NjM3NjY7c3Ryb2tlLXdpZHRoOjEuMzc0ODQ1ODY7c3Ryb2tlLW1pdGVybGltaXQ6NDtzdHJva2UtZGFzaGFycmF5Om5vbmU7c3Ryb2tlLW9wYWNpdHk6MSIgaWQ9InJlY3QxMzY1IiB3aWR0aD0iMTM1Ljk2NzIxIiBoZWlnaHQ9IjgxLjAzMDU2MyIgeD0iMTMuMDc3NjEzIiB5PSIxMzMuMjY0NDciIHJ5PSIxMC42MzI5NyIvPiYjeGE7ICAgIDxyZWN0IHJ5PSI5LjQ0ODA1NjIiIHk9IjEzNy45NzA1NSIgeD0iMTkuNjY0OTY4IiBoZWlnaHQ9IjcyLjAwMDY5NCIgd2lkdGg9IjEyMi43OTI0OSIgaWQ9InJlY3QxMzY3IiBzdHlsZT0ib3BhY2l0eToxO2ZpbGw6bm9uZTtmaWxsLW9wYWNpdHk6MTtzdHJva2U6IzY2Mzc2NjtzdHJva2Utd2lkdGg6MS4zNDI3NTkwMTtzdHJva2UtbWl0ZXJsaW1pdDo0O3N0cm9rZS1kYXNoYXJyYXk6bm9uZTtzdHJva2Utb3BhY2l0eToxIi8+JiN4YTsgIDwvZz4mI3hhOzwvc3ZnPg==" parent="2tFBRqaM1ZA4eUpaGNYp-124" vertex="1">
          <mxGeometry x="64" y="30" width="38.52" height="40" as="geometry" />
        </mxCell>
        <mxCell id="2tFBRqaM1ZA4eUpaGNYp-197" value="" style="verticalLabelPosition=bottom;verticalAlign=top;html=1;shape=mxgraph.basic.orthogonal_triangle;fillColor=#540054;fontSize=15;fontColor=#540054;direction=north;" parent="2tFBRqaM1ZA4eUpaGNYp-134" vertex="1">
          <mxGeometry x="231.25" y="280.01" width="40" height="40" as="geometry" />
        </mxCell>
        <mxCell id="2tFBRqaM1ZA4eUpaGNYp-143" value="" style="endArrow=classic;html=1;shadow=0;strokeColor=#660066;strokeWidth=2;fillColor=#660066;gradientColor=#E69CDC;fontFamily=Tahoma;fontSize=16;fontColor=#000000;shape=link;width=9.310344827586206;exitX=0.5;exitY=1;exitDx=0;exitDy=0;exitPerimeter=0;entryX=0;entryY=0.5;entryDx=0;entryDy=0;entryPerimeter=0;" parent="1" source="2tFBRqaM1ZA4eUpaGNYp-89" target="2tFBRqaM1ZA4eUpaGNYp-144" edge="1">
          <mxGeometry width="50" height="50" relative="1" as="geometry">
            <mxPoint x="1230" y="919.66" as="sourcePoint" />
            <mxPoint x="1538.668941979522" y="919.66" as="targetPoint" />
          </mxGeometry>
        </mxCell>
        <mxCell id="2tFBRqaM1ZA4eUpaGNYp-144" value="" style="html=1;shadow=0;dashed=0;align=center;verticalAlign=middle;shape=mxgraph.arrows2.arrow;dy=0.41;dx=40;notch=0;strokeColor=#540054;strokeWidth=3;fillColor=#540054;gradientColor=none;fontFamily=Tahoma;fontSize=16;fontColor=#000000;direction=south;" parent="1" vertex="1">
          <mxGeometry x="1004.996109215017" y="767.9561092150171" width="40" height="22.04778156996587" as="geometry" />
        </mxCell>
        <mxCell id="2tFBRqaM1ZA4eUpaGNYp-147" value="&lt;font style=&quot;font-size: 24px&quot;&gt;I&lt;/font&gt;" style="text;html=1;strokeColor=none;fillColor=none;align=center;verticalAlign=middle;whiteSpace=wrap;rounded=0;shadow=1;fontFamily=Tahoma;fontSize=16;fontColor=#000000;dashed=1;" parent="1" vertex="1">
          <mxGeometry x="1030" y="730" width="35" height="26.25" as="geometry" />
        </mxCell>
        <mxCell id="2tFBRqaM1ZA4eUpaGNYp-148" value="" style="group" parent="1" vertex="1" connectable="0">
          <mxGeometry x="455" y="1190" width="280" height="330" as="geometry" />
        </mxCell>
        <mxCell id="2tFBRqaM1ZA4eUpaGNYp-149" value="" style="group" parent="2tFBRqaM1ZA4eUpaGNYp-148" vertex="1" connectable="0">
          <mxGeometry width="280" height="330" as="geometry" />
        </mxCell>
        <mxCell id="2tFBRqaM1ZA4eUpaGNYp-150" value="" style="rounded=0;whiteSpace=wrap;html=1;shadow=1;strokeColor=#540054;strokeWidth=3;fillColor=none;gradientColor=#E69CDC;fontFamily=Tahoma;fontSize=16;fontColor=#000000;align=left;dashed=1;" parent="2tFBRqaM1ZA4eUpaGNYp-149" vertex="1">
          <mxGeometry width="280" height="330" as="geometry" />
        </mxCell>
        <mxCell id="2tFBRqaM1ZA4eUpaGNYp-151" value="" style="rounded=0;whiteSpace=wrap;html=1;shadow=1;strokeColor=#540054;strokeWidth=3;fillColor=none;gradientColor=#E69CDC;fontFamily=Tahoma;fontSize=16;fontColor=#000000;align=left;dashed=1;" parent="2tFBRqaM1ZA4eUpaGNYp-149" vertex="1">
          <mxGeometry x="8.75" y="10" width="262.5" height="310.01" as="geometry" />
        </mxCell>
        <mxCell id="2tFBRqaM1ZA4eUpaGNYp-152" value="&lt;font style=&quot;font-size: 24px&quot;&gt;GT&lt;/font&gt;" style="text;html=1;strokeColor=none;fillColor=none;align=center;verticalAlign=middle;whiteSpace=wrap;rounded=0;shadow=1;fontFamily=Tahoma;fontSize=16;fontColor=#000000;dashed=1;" parent="2tFBRqaM1ZA4eUpaGNYp-149" vertex="1">
          <mxGeometry x="20" y="290" width="35" height="26.25" as="geometry" />
        </mxCell>
        <mxCell id="2tFBRqaM1ZA4eUpaGNYp-153" value="" style="group" parent="2tFBRqaM1ZA4eUpaGNYp-149" vertex="1" connectable="0">
          <mxGeometry x="55" y="55" width="170" height="220" as="geometry" />
        </mxCell>
        <mxCell id="2tFBRqaM1ZA4eUpaGNYp-154" value="" style="shape=card;whiteSpace=wrap;html=1;shadow=1;strokeColor=#540054;strokeWidth=3;fillColor=none;gradientColor=#E69CDC;fontFamily=Tahoma;fontSize=16;fontColor=#000000;align=left;flipH=1;" parent="2tFBRqaM1ZA4eUpaGNYp-153" vertex="1">
          <mxGeometry width="170" height="220" as="geometry" />
        </mxCell>
        <mxCell id="2tFBRqaM1ZA4eUpaGNYp-155" value="&lt;font style=&quot;font-size: 24px&quot;&gt;Presentation&lt;br style=&quot;font-size: 24px&quot;&gt;+&lt;br style=&quot;font-size: 24px&quot;&gt;Details&lt;br style=&quot;font-size: 24px&quot;&gt;+&lt;br style=&quot;font-size: 24px&quot;&gt;Image&lt;/font&gt;" style="text;html=1;strokeColor=none;fillColor=none;align=center;verticalAlign=middle;whiteSpace=wrap;rounded=0;shadow=1;fontFamily=Tahoma;fontSize=16;fontColor=#000000;" parent="2tFBRqaM1ZA4eUpaGNYp-153" vertex="1">
          <mxGeometry x="24.999999999999996" y="75" width="120" height="120" as="geometry" />
        </mxCell>
        <mxCell id="2tFBRqaM1ZA4eUpaGNYp-156" value="" style="shape=image;verticalLabelPosition=bottom;verticalAlign=top;imageAspect=0;aspect=fixed;image=data:image/svg+xml,PHN2ZyB4bWxuczpkYz0iaHR0cDovL3B1cmwub3JnL2RjL2VsZW1lbnRzLzEuMS8iIHhtbG5zOmNjPSJodHRwOi8vY3JlYXRpdmVjb21tb25zLm9yZy9ucyMiIHhtbG5zOnJkZj0iaHR0cDovL3d3dy53My5vcmcvMTk5OS8wMi8yMi1yZGYtc3ludGF4LW5zIyIgeG1sbnM6c3ZnPSJodHRwOi8vd3d3LnczLm9yZy8yMDAwL3N2ZyIgeG1sbnM9Imh0dHA6Ly93d3cudzMub3JnLzIwMDAvc3ZnIiB4bWxuczp4bGluaz0iaHR0cDovL3d3dy53My5vcmcvMTk5OS94bGluayIgeG1sbnM6c29kaXBvZGk9Imh0dHA6Ly9zb2RpcG9kaS5zb3VyY2Vmb3JnZS5uZXQvRFREL3NvZGlwb2RpLTAuZHRkIiB4bWxuczppbmtzY2FwZT0iaHR0cDovL3d3dy5pbmtzY2FwZS5vcmcvbmFtZXNwYWNlcy9pbmtzY2FwZSIgd2lkdGg9IjI1LjcwMjgwOG1tIiBoZWlnaHQ9IjI2LjkyNDQ5bW0iIHZpZXdCb3g9IjAgMCAyNS43MDI4MDggMjYuOTI0NDg5IiB2ZXJzaW9uPSIxLjEiIGlkPSJzdmc4MjAiIGlua3NjYXBlOnZlcnNpb249IjAuOTIuNCAoNWRhNjg5YzMxMywgMjAxOS0wMS0xNCkiIHNvZGlwb2RpOmRvY25hbWU9IkRpYWxvZ3VlIGFjdC5zdmciPiYjeGE7ICA8ZGVmcyBpZD0iZGVmczgxNCI+JiN4YTsgICAgPGxpbmVhckdyYWRpZW50IGlua3NjYXBlOmNvbGxlY3Q9ImFsd2F5cyIgaWQ9ImxpbmVhckdyYWRpZW50MTgxNSI+JiN4YTsgICAgICA8c3RvcCBzdHlsZT0ic3RvcC1jb2xvcjojNjYzNzY2O3N0b3Atb3BhY2l0eToxIiBvZmZzZXQ9IjAiIGlkPSJzdG9wMTgxMSIvPiYjeGE7ICAgICAgPHN0b3Agc3R5bGU9InN0b3AtY29sb3I6I2FmNzZiZDtzdG9wLW9wYWNpdHk6MSIgb2Zmc2V0PSIxIiBpZD0ic3RvcDE4MTMiLz4mI3hhOyAgICA8L2xpbmVhckdyYWRpZW50PiYjeGE7ICAgIDxmaWx0ZXIgaW5rc2NhcGU6Y29sbGVjdD0iYWx3YXlzIiBzdHlsZT0iY29sb3ItaW50ZXJwb2xhdGlvbi1maWx0ZXJzOnNSR0IiIGlkPSJmaWx0ZXIxNjgzIiB4PSItMC4wNDcxOTY2MTIiIHdpZHRoPSIxLjA5NDM5MzMiIHk9Ii0wLjA0NjQwOTk5OCIgaGVpZ2h0PSIxLjA5MjgyIj4mI3hhOyAgICAgIDxmZUdhdXNzaWFuQmx1ciBpbmtzY2FwZTpjb2xsZWN0PSJhbHdheXMiIHN0ZERldmlhdGlvbj0iMC40Mzg1NDY4NyIgaWQ9ImZlR2F1c3NpYW5CbHVyMTY4NSIvPiYjeGE7ICAgIDwvZmlsdGVyPiYjeGE7ICAgIDxsaW5lYXJHcmFkaWVudCBpbmtzY2FwZTpjb2xsZWN0PSJhbHdheXMiIHhsaW5rOmhyZWY9IiNsaW5lYXJHcmFkaWVudDE4MTUiIGlkPSJsaW5lYXJHcmFkaWVudDE4NTciIHgxPSIxNTEuMzc5NDciIHkxPSI5MS43NTg5MjYiIHgyPSIxNDYuODQzNzUiIHkyPSIxMDUuOTMzMDQiIGdyYWRpZW50VW5pdHM9InVzZXJTcGFjZU9uVXNlIi8+JiN4YTsgIDwvZGVmcz4mI3hhOyAgPHNvZGlwb2RpOm5hbWVkdmlldyBpZD0iYmFzZSIgcGFnZWNvbG9yPSIjZmZmZmZmIiBib3JkZXJjb2xvcj0iIzY2NjY2NiIgYm9yZGVyb3BhY2l0eT0iMS4wIiBpbmtzY2FwZTpwYWdlb3BhY2l0eT0iMC4wIiBpbmtzY2FwZTpwYWdlc2hhZG93PSIyIiBpbmtzY2FwZTp6b29tPSIwLjciIGlua3NjYXBlOmN4PSItMjk1LjY4OTY1IiBpbmtzY2FwZTpjeT0iLTEzMy4wMTA4IiBpbmtzY2FwZTpkb2N1bWVudC11bml0cz0ibW0iIGlua3NjYXBlOmN1cnJlbnQtbGF5ZXI9ImxheWVyMyIgc2hvd2dyaWQ9ImZhbHNlIiBpbmtzY2FwZTp3aW5kb3ctd2lkdGg9IjE5MjAiIGlua3NjYXBlOndpbmRvdy1oZWlnaHQ9IjEwMTMiIGlua3NjYXBlOndpbmRvdy14PSItOSIgaW5rc2NhcGU6d2luZG93LXk9Ii05IiBpbmtzY2FwZTp3aW5kb3ctbWF4aW1pemVkPSIxIi8+JiN4YTsgIDxtZXRhZGF0YSBpZD0ibWV0YWRhdGE4MTciPiYjeGE7ICAgIDxyZGY6UkRGPiYjeGE7ICAgICAgPGNjOldvcmsgcmRmOmFib3V0PSIiPiYjeGE7ICAgICAgICA8ZGM6Zm9ybWF0PmltYWdlL3N2Zyt4bWw8L2RjOmZvcm1hdD4mI3hhOyAgICAgICAgPGRjOnR5cGUgcmRmOnJlc291cmNlPSJodHRwOi8vcHVybC5vcmcvZGMvZGNtaXR5cGUvU3RpbGxJbWFnZSIvPiYjeGE7ICAgICAgICA8ZGM6dGl0bGUvPiYjeGE7ICAgICAgPC9jYzpXb3JrPiYjeGE7ICAgIDwvcmRmOlJERj4mI3hhOyAgPC9tZXRhZGF0YT4mI3hhOyAgPGcgaW5rc2NhcGU6bGFiZWw9IlRvcGljIiBpbmtzY2FwZTpncm91cG1vZGU9ImxheWVyIiBpZD0ibGF5ZXIxIiBzdHlsZT0iZGlzcGxheTpub25lIiB0cmFuc2Zvcm09InRyYW5zbGF0ZSgtMTMzLjUwNywtODIuNTE3ODkyKSI+JiN4YTsgICAgPHJlY3Qgcnk9IjEwLjU1NDE1MSIgeT0iMTMzLjU0NSIgeD0iMTIuMzI1MjQ1IiBoZWlnaHQ9IjgwLjQyOTkwOSIgd2lkdGg9IjEzNC44NTg0NiIgaWQ9InJlY3QxMzY5IiBzdHlsZT0ib3BhY2l0eToxO2ZpbGw6bm9uZTtmaWxsLW9wYWNpdHk6MTtzdHJva2U6IzY2Mzc2NjtzdHJva2Utd2lkdGg6MS4zNjQxNDQ0NDtzdHJva2UtbWl0ZXJsaW1pdDo0O3N0cm9rZS1kYXNoYXJyYXk6bm9uZTtzdHJva2Utb3BhY2l0eToxIi8+JiN4YTsgIDwvZz4mI3hhOyAgPGcgaW5rc2NhcGU6Z3JvdXBtb2RlPSJsYXllciIgaWQ9ImxheWVyNiIgaW5rc2NhcGU6bGFiZWw9InRyYW5zaXRpb24gYWN0IiBzdHlsZT0iZGlzcGxheTpub25lIiB0cmFuc2Zvcm09InRyYW5zbGF0ZSgtMTMzLjUwNywtODIuNTE3ODkyKSI+JiN4YTsgICAgPGcgc3R5bGU9ImRpc3BsYXk6aW5saW5lIiBpZD0iZzE4NzkiPiYjeGE7ICAgICAgPGVsbGlwc2Ugcnk9IjIwLjY2MTM4MSIgcng9IjIyLjM2MjI3NCIgY3k9IjE0OC42NDQzNSIgY3g9IjE2MC42ODcxMiIgaWQ9ImNpcmNsZTE4NTkiIHN0eWxlPSJvcGFjaXR5OjE7ZmlsbDojZmZmZmZmO2ZpbGwtb3BhY2l0eToxO3N0cm9rZTojNjYzNzY2O3N0cm9rZS13aWR0aDowLjg2MTkwMTQ2O3N0cm9rZS1taXRlcmxpbWl0OjQ7c3Ryb2tlLWRhc2hhcnJheTpub25lO3N0cm9rZS1vcGFjaXR5OjEiLz4mI3hhOyAgICAgIDxwYXRoIGlua3NjYXBlOmNvbm5lY3Rvci1jdXJ2YXR1cmU9IjAiIGlkPSJwYXRoMTg2MSIgZD0ibSAxNDMuODI3MjQsMTQwLjk0NzMxIDM0LjMwNTgzLC0wLjE3MzQzIDAuMjA3OTIsLTAuMDg2NiIgc3R5bGU9ImZpbGw6I2ZmZmZmZjtmaWxsLW9wYWNpdHk6MTtzdHJva2U6IzY2Mzc2NjtzdHJva2Utd2lkdGg6MS4wMDQ3NzMwMjtzdHJva2UtbGluZWNhcDpidXR0O3N0cm9rZS1saW5lam9pbjptaXRlcjtzdHJva2UtbWl0ZXJsaW1pdDo0O3N0cm9rZS1kYXNoYXJyYXk6bm9uZTtzdHJva2Utb3BhY2l0eToxIi8+JiN4YTsgICAgICA8cGF0aCBzdHlsZT0iZmlsbDojZmZmZmZmO2ZpbGwtb3BhY2l0eToxO3N0cm9rZTojNjYzNzY2O3N0cm9rZS13aWR0aDoxLjAwNDc3MzAyO3N0cm9rZS1saW5lY2FwOmJ1dHQ7c3Ryb2tlLWxpbmVqb2luOm1pdGVyO3N0cm9rZS1taXRlcmxpbWl0OjQ7c3Ryb2tlLWRhc2hhcnJheTpub25lO3N0cm9rZS1vcGFjaXR5OjEiIGQ9Im0gMTQzLjQ4MjYzLDE0OS4xMjY0MyAzNC4zMDU4NCwtMC4xNzM0NCAwLjIwNzkyLC0wLjA4NjYiIGlkPSJwYXRoMTg2MyIgaW5rc2NhcGU6Y29ubmVjdG9yLWN1cnZhdHVyZT0iMCIvPiYjeGE7ICAgICAgPHBhdGggaW5rc2NhcGU6Y29ubmVjdG9yLWN1cnZhdHVyZT0iMCIgaWQ9InBhdGgxODY1IiBkPSJtIDE0My42NTQ5MywxNTcuNTI2NiAzNC4zMDU4NCwtMC4xNzM0MyAwLjIwNzkyLC0wLjA4NjYiIHN0eWxlPSJmaWxsOiNmZmZmZmY7ZmlsbC1vcGFjaXR5OjE7c3Ryb2tlOiM2NjM3NjY7c3Ryb2tlLXdpZHRoOjEuMDA0NzczMDI7c3Ryb2tlLWxpbmVjYXA6YnV0dDtzdHJva2UtbGluZWpvaW46bWl0ZXI7c3Ryb2tlLW1pdGVybGltaXQ6NDtzdHJva2UtZGFzaGFycmF5Om5vbmU7c3Ryb2tlLW9wYWNpdHk6MSIvPiYjeGE7ICAgIDwvZz4mI3hhOyAgPC9nPiYjeGE7ICA8ZyBpbmtzY2FwZTpncm91cG1vZGU9ImxheWVyIiBpZD0ibGF5ZXI1IiBpbmtzY2FwZTpsYWJlbD0iSW50cm9fIG11bHRpcGxlIGdyb3VwcyBvZiB0b3BpY3MiIHN0eWxlPSJkaXNwbGF5Om5vbmUiIHRyYW5zZm9ybT0idHJhbnNsYXRlKC0xMzMuNTA3LC04Mi41MTc4OTIpIj4mI3hhOyAgICA8ZyBzdHlsZT0iZGlzcGxheTppbmxpbmUiIGlkPSJnMTg4NyI+JiN4YTsgICAgICA8Y2lyY2xlIHI9IjI0LjkzOTA1OCIgY3k9IjIxMy4yNzgyNyIgY3g9IjE2MS4yNTQwOSIgaWQ9InBhdGgxNzQ5IiBzdHlsZT0ib3BhY2l0eToxO2ZpbGw6I2ZmZmZmZjtmaWxsLW9wYWNpdHk6MTtzdHJva2U6IzY2Mzc2NjtzdHJva2Utd2lkdGg6MTtzdHJva2UtbWl0ZXJsaW1pdDo0O3N0cm9rZS1kYXNoYXJyYXk6bm9uZTtzdHJva2Utb3BhY2l0eToxIi8+JiN4YTsgICAgICA8Y2lyY2xlIHN0eWxlPSJvcGFjaXR5OjE7ZmlsbDojZmZmZmZmO2ZpbGwtb3BhY2l0eToxO3N0cm9rZTojNjYzNzY2O3N0cm9rZS13aWR0aDowLjg4MTEzNTE3O3N0cm9rZS1taXRlcmxpbWl0OjQ7c3Ryb2tlLWRhc2hhcnJheTpub25lO3N0cm9rZS1vcGFjaXR5OjEiIGlkPSJjaXJjbGUxNzUxIiBjeD0iMTYxLjI1NDA5IiBjeT0iMjEzLjI3ODI3IiByPSIyMS45NzQ2ODIiLz4mI3hhOyAgICAgIDxwYXRoIHNvZGlwb2RpOm5vZGV0eXBlcz0iY2NjIiBpbmtzY2FwZTpjb25uZWN0b3ItY3VydmF0dXJlPSIwIiBpZD0icGF0aDE3NTUiIGQ9Im0gMTM5LjAwMDc0LDIwMS45Mzg5OSBjIDkuODI0NDcsLTE3Ljg1MTY5IDM1LjY0NDMsLTE3LjcwMjQ2IDQ0LjY5NTY5LDAgeiIgc3R5bGU9ImZpbGw6IzY2Mzc2NjtmaWxsLW9wYWNpdHk6MTtzdHJva2U6IzY2Mzc2NjtzdHJva2Utd2lkdGg6MC4yNjQ1ODMzMnB4O3N0cm9rZS1saW5lY2FwOmJ1dHQ7c3Ryb2tlLWxpbmVqb2luOm1pdGVyO3N0cm9rZS1vcGFjaXR5OjEiLz4mI3hhOyAgICAgIDxwYXRoIGlua3NjYXBlOmNvbm5lY3Rvci1jdXJ2YXR1cmU9IjAiIGlkPSJwYXRoMTc1NyIgZD0ibSAxNDUuNjE1MzIsMjEwLjA2NTQ4IDMxLjE4MzA0LC0wLjE4ODk5IDAuMTg4OTksLTAuMDk0NSIgc3R5bGU9ImZpbGw6I2ZmZmZmZjtmaWxsLW9wYWNpdHk6MTtzdHJva2U6IzY2Mzc2NjtzdHJva2Utd2lkdGg6MTtzdHJva2UtbGluZWNhcDpidXR0O3N0cm9rZS1saW5lam9pbjptaXRlcjtzdHJva2UtbWl0ZXJsaW1pdDo0O3N0cm9rZS1kYXNoYXJyYXk6bm9uZTtzdHJva2Utb3BhY2l0eToxIi8+JiN4YTsgICAgICA8cGF0aCBzdHlsZT0iZmlsbDojZmZmZmZmO2ZpbGwtb3BhY2l0eToxO3N0cm9rZTojNjYzNzY2O3N0cm9rZS13aWR0aDoxO3N0cm9rZS1saW5lY2FwOmJ1dHQ7c3Ryb2tlLWxpbmVqb2luOm1pdGVyO3N0cm9rZS1taXRlcmxpbWl0OjQ7c3Ryb2tlLWRhc2hhcnJheTpub25lO3N0cm9rZS1vcGFjaXR5OjEiIGQ9Im0gMTQ1LjYxNTMyLDIxNi44NjkwNCAzMS4xODMwNCwtMC4xODg5OSAwLjE4ODk5LC0wLjA5NDUiIGlkPSJwYXRoMTc1OSIgaW5rc2NhcGU6Y29ubmVjdG9yLWN1cnZhdHVyZT0iMCIvPiYjeGE7ICAgICAgPHBhdGggaW5rc2NhcGU6Y29ubmVjdG9yLWN1cnZhdHVyZT0iMCIgaWQ9InBhdGgxNzYxIiBkPSJtIDE0NS40MjYzNCwyMjMuODYxNjEgMzEuMTgzMDQsLTAuMTg4OTkgMC4xODg5OSwtMC4wOTQ1IiBzdHlsZT0iZmlsbDojZmZmZmZmO2ZpbGwtb3BhY2l0eToxO3N0cm9rZTojNjYzNzY2O3N0cm9rZS13aWR0aDoxO3N0cm9rZS1saW5lY2FwOmJ1dHQ7c3Ryb2tlLWxpbmVqb2luOm1pdGVyO3N0cm9rZS1taXRlcmxpbWl0OjQ7c3Ryb2tlLWRhc2hhcnJheTpub25lO3N0cm9rZS1vcGFjaXR5OjEiLz4mI3hhOyAgICA8L2c+JiN4YTsgIDwvZz4mI3hhOyAgPGcgaW5rc2NhcGU6Z3JvdXBtb2RlPSJsYXllciIgaWQ9ImxheWVyNCIgaW5rc2NhcGU6bGFiZWw9IkludHJvX0dyb3VwIG9mIHRvcGljcyIgc3R5bGU9ImRpc3BsYXk6bm9uZSIgdHJhbnNmb3JtPSJ0cmFuc2xhdGUoLTEzMy41MDcsLTgyLjUxNzg5MikiPiYjeGE7ICAgIDxnIHN0eWxlPSJkaXNwbGF5OmlubGluZSIgaWQ9ImcxODk0Ij4mI3hhOyAgICAgIDxjaXJjbGUgc3R5bGU9Im9wYWNpdHk6MTtmaWxsOiNmZmZmZmY7ZmlsbC1vcGFjaXR5OjE7c3Ryb2tlOiM2NjM3NjY7c3Ryb2tlLXdpZHRoOjE7c3Ryb2tlLW1pdGVybGltaXQ6NDtzdHJva2UtZGFzaGFycmF5Om5vbmU7c3Ryb2tlLW9wYWNpdHk6MSIgaWQ9ImNpcmNsZTE3NzciIGN4PSIxNjAuMzA5MTQiIGN5PSIyNjguNjUxNzkiIHI9IjI0LjkzOTA1OCIvPiYjeGE7ICAgICAgPHBhdGggc3R5bGU9ImZpbGw6IzY2Mzc2NjtmaWxsLW9wYWNpdHk6MTtzdHJva2U6IzY2Mzc2NjtzdHJva2Utd2lkdGg6MC4yNjQ1ODMzMnB4O3N0cm9rZS1saW5lY2FwOmJ1dHQ7c3Ryb2tlLWxpbmVqb2luOm1pdGVyO3N0cm9rZS1vcGFjaXR5OjEiIGQ9Im0gMTM4LjA1NTgsMjU3LjMxMjUgYyA5LjgyNDQ3LC0xNy44NTE2OSAzNS42NDQzLC0xNy43MDI0NiA0NC42OTU2OSwwIHoiIGlkPSJwYXRoMTc4MSIgaW5rc2NhcGU6Y29ubmVjdG9yLWN1cnZhdHVyZT0iMCIgc29kaXBvZGk6bm9kZXR5cGVzPSJjY2MiLz4mI3hhOyAgICAgIDxwYXRoIHN0eWxlPSJmaWxsOiNmZmZmZmY7ZmlsbC1vcGFjaXR5OjE7c3Ryb2tlOiM2NjM3NjY7c3Ryb2tlLXdpZHRoOjAuOTcyOTg0NjE7c3Ryb2tlLWxpbmVjYXA6YnV0dDtzdHJva2UtbGluZWpvaW46bWl0ZXI7c3Ryb2tlLW1pdGVybGltaXQ6NDtzdHJva2UtZGFzaGFycmF5Om5vbmU7c3Ryb2tlLW9wYWNpdHk6MSIgZD0ibSAxNDEuOTc0MDcsMjY1LjY5Njg4IDM3LjYyODI2LC0wLjE0ODI3IDAuMjI4MDYsLTAuMDc0MSIgaWQ9InBhdGgxNzgzIiBpbmtzY2FwZTpjb25uZWN0b3ItY3VydmF0dXJlPSIwIi8+JiN4YTsgICAgICA8cGF0aCBpbmtzY2FwZTpjb25uZWN0b3ItY3VydmF0dXJlPSIwIiBpZD0icGF0aDE3ODkiIGQ9Im0gMTQxLjU5NjA5LDI3Mi42ODk0NCAzNy42MjgyNiwtMC4xNDgyNyAwLjIyODA2LC0wLjA3NDEiIHN0eWxlPSJmaWxsOiNmZmZmZmY7ZmlsbC1vcGFjaXR5OjE7c3Ryb2tlOiM2NjM3NjY7c3Ryb2tlLXdpZHRoOjAuOTcyOTg0NjE7c3Ryb2tlLWxpbmVjYXA6YnV0dDtzdHJva2UtbGluZWpvaW46bWl0ZXI7c3Ryb2tlLW1pdGVybGltaXQ6NDtzdHJva2UtZGFzaGFycmF5Om5vbmU7c3Ryb2tlLW9wYWNpdHk6MSIvPiYjeGE7ICAgICAgPHBhdGggc3R5bGU9ImZpbGw6I2ZmZmZmZjtmaWxsLW9wYWNpdHk6MTtzdHJva2U6IzY2Mzc2NjtzdHJva2Utd2lkdGg6MC45NzI5ODQ2MTtzdHJva2UtbGluZWNhcDpidXR0O3N0cm9rZS1saW5lam9pbjptaXRlcjtzdHJva2UtbWl0ZXJsaW1pdDo0O3N0cm9rZS1kYXNoYXJyYXk6bm9uZTtzdHJva2Utb3BhY2l0eToxIiBkPSJtIDE0MS43ODUwOCwyNzkuODcwOTkgMzcuNjI4MjYsLTAuMTQ4MjcgMC4yMjgwNiwtMC4wNzQxIiBpZD0icGF0aDE3OTEiIGlua3NjYXBlOmNvbm5lY3Rvci1jdXJ2YXR1cmU9IjAiLz4mI3hhOyAgICA8L2c+JiN4YTsgIDwvZz4mI3hhOyAgPGcgaW5rc2NhcGU6Z3JvdXBtb2RlPSJsYXllciIgaWQ9ImxheWVyMyIgaW5rc2NhcGU6bGFiZWw9IkRpYWxvZ3VlIEFjdCIgc3R5bGU9ImRpc3BsYXk6aW5saW5lIiB0cmFuc2Zvcm09InRyYW5zbGF0ZSgtMTMzLjUwNywtODIuNTE3ODkyKSI+JiN4YTsgICAgPGcgc3R5bGU9ImRpc3BsYXk6aW5saW5lIiBpZD0iZzE4NjkiPiYjeGE7ICAgICAgPGVsbGlwc2Ugc3R5bGU9Im9wYWNpdHk6MTtmaWxsOiM5OTk5OTk7ZmlsbC1vcGFjaXR5OjE7c3Ryb2tlOiM5OTk5OTk7c3Ryb2tlLXdpZHRoOjEuNTtzdHJva2UtbWl0ZXJsaW1pdDo0O3N0cm9rZS1kYXNoYXJyYXk6bm9uZTtzdHJva2Utb3BhY2l0eToxO2ZpbHRlcjp1cmwoI2ZpbHRlcjE2ODMpIiBpZD0iZWxsaXBzZTE0ODMiIGN4PSIxNDUuNzA5ODEiIGN5PSI5Ny4wNTA1ODMiIHJ4PSIxMS4xNTAyOTciIHJ5PSIxMS4zMzkyODYiLz4mI3hhOyAgICAgIDxlbGxpcHNlIHJ5PSIxMS4zMzkyODYiIHJ4PSIxMS4xNTAyOTciIGN5PSI5NC42MDcxNzgiIGN4PSIxNDcuMzA5NTEiIGlkPSJwYXRoMTM3OSIgc3R5bGU9Im9wYWNpdHk6MTtmaWxsOnVybCgjbGluZWFyR3JhZGllbnQxODU3KTtmaWxsLW9wYWNpdHk6MTtzdHJva2U6IzY2Mzc2NjtzdHJva2Utd2lkdGg6MS41O3N0cm9rZS1taXRlcmxpbWl0OjQ7c3Ryb2tlLWRhc2hhcnJheTpub25lO3N0cm9rZS1vcGFjaXR5OjEiLz4mI3hhOyAgICA8L2c+JiN4YTsgIDwvZz4mI3hhOyAgPGcgaW5rc2NhcGU6Z3JvdXBtb2RlPSJsYXllciIgaWQ9ImxheWVyMiIgaW5rc2NhcGU6bGFiZWw9Ik11bHRpcGxlIHRvcGljIiBzdHlsZT0iZGlzcGxheTpub25lIiB0cmFuc2Zvcm09InRyYW5zbGF0ZSgtMTMzLjUwNywtODIuNTE3ODkyKSI+JiN4YTsgICAgPHJlY3Qgc3R5bGU9Im9wYWNpdHk6MTtmaWxsOm5vbmU7ZmlsbC1vcGFjaXR5OjE7c3Ryb2tlOiM2NjM3NjY7c3Ryb2tlLXdpZHRoOjEuMzc0ODQ1ODY7c3Ryb2tlLW1pdGVybGltaXQ6NDtzdHJva2UtZGFzaGFycmF5Om5vbmU7c3Ryb2tlLW9wYWNpdHk6MSIgaWQ9InJlY3QxMzY1IiB3aWR0aD0iMTM1Ljk2NzIxIiBoZWlnaHQ9IjgxLjAzMDU2MyIgeD0iMTMuMDc3NjEzIiB5PSIxMzMuMjY0NDciIHJ5PSIxMC42MzI5NyIvPiYjeGE7ICAgIDxyZWN0IHJ5PSI5LjQ0ODA1NjIiIHk9IjEzNy45NzA1NSIgeD0iMTkuNjY0OTY4IiBoZWlnaHQ9IjcyLjAwMDY5NCIgd2lkdGg9IjEyMi43OTI0OSIgaWQ9InJlY3QxMzY3IiBzdHlsZT0ib3BhY2l0eToxO2ZpbGw6bm9uZTtmaWxsLW9wYWNpdHk6MTtzdHJva2U6IzY2Mzc2NjtzdHJva2Utd2lkdGg6MS4zNDI3NTkwMTtzdHJva2UtbWl0ZXJsaW1pdDo0O3N0cm9rZS1kYXNoYXJyYXk6bm9uZTtzdHJva2Utb3BhY2l0eToxIi8+JiN4YTsgIDwvZz4mI3hhOzwvc3ZnPg==" parent="2tFBRqaM1ZA4eUpaGNYp-153" vertex="1">
          <mxGeometry x="64" y="25" width="38.52" height="40" as="geometry" />
        </mxCell>
        <mxCell id="2tFBRqaM1ZA4eUpaGNYp-185" value="" style="verticalLabelPosition=bottom;verticalAlign=top;html=1;shape=mxgraph.basic.orthogonal_triangle;fillColor=#540054;fontSize=15;fontColor=#540054;direction=south;" parent="2tFBRqaM1ZA4eUpaGNYp-149" vertex="1">
          <mxGeometry x="8.75" y="10" width="40" height="40" as="geometry" />
        </mxCell>
        <mxCell id="2tFBRqaM1ZA4eUpaGNYp-159" value="" style="endArrow=classic;html=1;shadow=0;strokeColor=#660066;strokeWidth=2;fillColor=#660066;gradientColor=#E69CDC;fontFamily=Tahoma;fontSize=16;fontColor=#000000;shape=link;width=9.310344827586206;exitX=0.5;exitY=1;exitDx=0;exitDy=0;exitPerimeter=0;entryX=0;entryY=0.5;entryDx=0;entryDy=0;entryPerimeter=0;" parent="1" source="2tFBRqaM1ZA4eUpaGNYp-99" target="2tFBRqaM1ZA4eUpaGNYp-160" edge="1">
          <mxGeometry width="50" height="50" relative="1" as="geometry">
            <mxPoint x="880" y="1334.6599999999999" as="sourcePoint" />
            <mxPoint x="1160" y="1334.6599999999999" as="targetPoint" />
          </mxGeometry>
        </mxCell>
        <mxCell id="2tFBRqaM1ZA4eUpaGNYp-160" value="" style="html=1;shadow=0;dashed=0;align=center;verticalAlign=middle;shape=mxgraph.arrows2.arrow;dy=0.41;dx=40;notch=0;strokeColor=#540054;strokeWidth=3;fillColor=#540054;gradientColor=none;fontFamily=Tahoma;fontSize=16;fontColor=#000000;direction=south;" parent="1" vertex="1">
          <mxGeometry x="575" y="1169" width="40" height="20" as="geometry" />
        </mxCell>
        <mxCell id="2tFBRqaM1ZA4eUpaGNYp-161" value="&lt;font style=&quot;font-size: 24px&quot;&gt;I&lt;br&gt;&lt;/font&gt;" style="text;html=1;strokeColor=none;fillColor=none;align=center;verticalAlign=middle;whiteSpace=wrap;rounded=0;shadow=1;fontFamily=Tahoma;fontSize=16;fontColor=#000000;dashed=1;" parent="1" vertex="1">
          <mxGeometry x="610" y="1110" width="35" height="26.25" as="geometry" />
        </mxCell>
        <mxCell id="2tFBRqaM1ZA4eUpaGNYp-162" value="" style="group" parent="1" vertex="1" connectable="0">
          <mxGeometry x="40" y="790" width="280" height="330" as="geometry" />
        </mxCell>
        <mxCell id="2tFBRqaM1ZA4eUpaGNYp-163" value="" style="group" parent="2tFBRqaM1ZA4eUpaGNYp-162" vertex="1" connectable="0">
          <mxGeometry width="280" height="330" as="geometry" />
        </mxCell>
        <mxCell id="2tFBRqaM1ZA4eUpaGNYp-164" value="" style="rounded=0;whiteSpace=wrap;html=1;shadow=1;strokeColor=#540054;strokeWidth=3;fillColor=none;gradientColor=#E69CDC;fontFamily=Tahoma;fontSize=16;fontColor=#000000;align=left;dashed=1;" parent="2tFBRqaM1ZA4eUpaGNYp-163" vertex="1">
          <mxGeometry width="280" height="330" as="geometry" />
        </mxCell>
        <mxCell id="2tFBRqaM1ZA4eUpaGNYp-165" value="" style="rounded=0;whiteSpace=wrap;html=1;shadow=1;strokeColor=#540054;strokeWidth=3;fillColor=none;gradientColor=#E69CDC;fontFamily=Tahoma;fontSize=16;fontColor=#000000;align=left;dashed=1;" parent="2tFBRqaM1ZA4eUpaGNYp-163" vertex="1">
          <mxGeometry x="8.75" y="10" width="262.5" height="310.01" as="geometry" />
        </mxCell>
        <mxCell id="2tFBRqaM1ZA4eUpaGNYp-167" value="" style="group" parent="2tFBRqaM1ZA4eUpaGNYp-163" vertex="1" connectable="0">
          <mxGeometry x="55" y="55" width="170" height="220" as="geometry" />
        </mxCell>
        <mxCell id="2tFBRqaM1ZA4eUpaGNYp-168" value="" style="shape=card;whiteSpace=wrap;html=1;shadow=1;strokeColor=#540054;strokeWidth=3;fillColor=none;gradientColor=#E69CDC;fontFamily=Tahoma;fontSize=16;fontColor=#000000;align=left;flipH=1;" parent="2tFBRqaM1ZA4eUpaGNYp-167" vertex="1">
          <mxGeometry width="170" height="220" as="geometry" />
        </mxCell>
        <mxCell id="2tFBRqaM1ZA4eUpaGNYp-169" value="&lt;font style=&quot;font-size: 24px&quot;&gt;Presentation&lt;br style=&quot;font-size: 24px&quot;&gt;+&lt;br style=&quot;font-size: 24px&quot;&gt;Details&lt;br style=&quot;font-size: 24px&quot;&gt;+&lt;br style=&quot;font-size: 24px&quot;&gt;Images&lt;/font&gt;" style="text;html=1;strokeColor=none;fillColor=none;align=center;verticalAlign=middle;whiteSpace=wrap;rounded=0;shadow=1;fontFamily=Tahoma;fontSize=16;fontColor=#000000;" parent="2tFBRqaM1ZA4eUpaGNYp-167" vertex="1">
          <mxGeometry x="23.259999999999998" y="75" width="120" height="120" as="geometry" />
        </mxCell>
        <mxCell id="2tFBRqaM1ZA4eUpaGNYp-170" value="" style="shape=image;verticalLabelPosition=bottom;verticalAlign=top;imageAspect=0;aspect=fixed;image=data:image/svg+xml,PHN2ZyB4bWxuczpkYz0iaHR0cDovL3B1cmwub3JnL2RjL2VsZW1lbnRzLzEuMS8iIHhtbG5zOmNjPSJodHRwOi8vY3JlYXRpdmVjb21tb25zLm9yZy9ucyMiIHhtbG5zOnJkZj0iaHR0cDovL3d3dy53My5vcmcvMTk5OS8wMi8yMi1yZGYtc3ludGF4LW5zIyIgeG1sbnM6c3ZnPSJodHRwOi8vd3d3LnczLm9yZy8yMDAwL3N2ZyIgeG1sbnM9Imh0dHA6Ly93d3cudzMub3JnLzIwMDAvc3ZnIiB4bWxuczp4bGluaz0iaHR0cDovL3d3dy53My5vcmcvMTk5OS94bGluayIgeG1sbnM6c29kaXBvZGk9Imh0dHA6Ly9zb2RpcG9kaS5zb3VyY2Vmb3JnZS5uZXQvRFREL3NvZGlwb2RpLTAuZHRkIiB4bWxuczppbmtzY2FwZT0iaHR0cDovL3d3dy5pbmtzY2FwZS5vcmcvbmFtZXNwYWNlcy9pbmtzY2FwZSIgd2lkdGg9IjI1LjcwMjgwOG1tIiBoZWlnaHQ9IjI2LjkyNDQ5bW0iIHZpZXdCb3g9IjAgMCAyNS43MDI4MDggMjYuOTI0NDg5IiB2ZXJzaW9uPSIxLjEiIGlkPSJzdmc4MjAiIGlua3NjYXBlOnZlcnNpb249IjAuOTIuNCAoNWRhNjg5YzMxMywgMjAxOS0wMS0xNCkiIHNvZGlwb2RpOmRvY25hbWU9IkRpYWxvZ3VlIGFjdC5zdmciPiYjeGE7ICA8ZGVmcyBpZD0iZGVmczgxNCI+JiN4YTsgICAgPGxpbmVhckdyYWRpZW50IGlua3NjYXBlOmNvbGxlY3Q9ImFsd2F5cyIgaWQ9ImxpbmVhckdyYWRpZW50MTgxNSI+JiN4YTsgICAgICA8c3RvcCBzdHlsZT0ic3RvcC1jb2xvcjojNjYzNzY2O3N0b3Atb3BhY2l0eToxIiBvZmZzZXQ9IjAiIGlkPSJzdG9wMTgxMSIvPiYjeGE7ICAgICAgPHN0b3Agc3R5bGU9InN0b3AtY29sb3I6I2FmNzZiZDtzdG9wLW9wYWNpdHk6MSIgb2Zmc2V0PSIxIiBpZD0ic3RvcDE4MTMiLz4mI3hhOyAgICA8L2xpbmVhckdyYWRpZW50PiYjeGE7ICAgIDxmaWx0ZXIgaW5rc2NhcGU6Y29sbGVjdD0iYWx3YXlzIiBzdHlsZT0iY29sb3ItaW50ZXJwb2xhdGlvbi1maWx0ZXJzOnNSR0IiIGlkPSJmaWx0ZXIxNjgzIiB4PSItMC4wNDcxOTY2MTIiIHdpZHRoPSIxLjA5NDM5MzMiIHk9Ii0wLjA0NjQwOTk5OCIgaGVpZ2h0PSIxLjA5MjgyIj4mI3hhOyAgICAgIDxmZUdhdXNzaWFuQmx1ciBpbmtzY2FwZTpjb2xsZWN0PSJhbHdheXMiIHN0ZERldmlhdGlvbj0iMC40Mzg1NDY4NyIgaWQ9ImZlR2F1c3NpYW5CbHVyMTY4NSIvPiYjeGE7ICAgIDwvZmlsdGVyPiYjeGE7ICAgIDxsaW5lYXJHcmFkaWVudCBpbmtzY2FwZTpjb2xsZWN0PSJhbHdheXMiIHhsaW5rOmhyZWY9IiNsaW5lYXJHcmFkaWVudDE4MTUiIGlkPSJsaW5lYXJHcmFkaWVudDE4NTciIHgxPSIxNTEuMzc5NDciIHkxPSI5MS43NTg5MjYiIHgyPSIxNDYuODQzNzUiIHkyPSIxMDUuOTMzMDQiIGdyYWRpZW50VW5pdHM9InVzZXJTcGFjZU9uVXNlIi8+JiN4YTsgIDwvZGVmcz4mI3hhOyAgPHNvZGlwb2RpOm5hbWVkdmlldyBpZD0iYmFzZSIgcGFnZWNvbG9yPSIjZmZmZmZmIiBib3JkZXJjb2xvcj0iIzY2NjY2NiIgYm9yZGVyb3BhY2l0eT0iMS4wIiBpbmtzY2FwZTpwYWdlb3BhY2l0eT0iMC4wIiBpbmtzY2FwZTpwYWdlc2hhZG93PSIyIiBpbmtzY2FwZTp6b29tPSIwLjciIGlua3NjYXBlOmN4PSItMjk1LjY4OTY1IiBpbmtzY2FwZTpjeT0iLTEzMy4wMTA4IiBpbmtzY2FwZTpkb2N1bWVudC11bml0cz0ibW0iIGlua3NjYXBlOmN1cnJlbnQtbGF5ZXI9ImxheWVyMyIgc2hvd2dyaWQ9ImZhbHNlIiBpbmtzY2FwZTp3aW5kb3ctd2lkdGg9IjE5MjAiIGlua3NjYXBlOndpbmRvdy1oZWlnaHQ9IjEwMTMiIGlua3NjYXBlOndpbmRvdy14PSItOSIgaW5rc2NhcGU6d2luZG93LXk9Ii05IiBpbmtzY2FwZTp3aW5kb3ctbWF4aW1pemVkPSIxIi8+JiN4YTsgIDxtZXRhZGF0YSBpZD0ibWV0YWRhdGE4MTciPiYjeGE7ICAgIDxyZGY6UkRGPiYjeGE7ICAgICAgPGNjOldvcmsgcmRmOmFib3V0PSIiPiYjeGE7ICAgICAgICA8ZGM6Zm9ybWF0PmltYWdlL3N2Zyt4bWw8L2RjOmZvcm1hdD4mI3hhOyAgICAgICAgPGRjOnR5cGUgcmRmOnJlc291cmNlPSJodHRwOi8vcHVybC5vcmcvZGMvZGNtaXR5cGUvU3RpbGxJbWFnZSIvPiYjeGE7ICAgICAgICA8ZGM6dGl0bGUvPiYjeGE7ICAgICAgPC9jYzpXb3JrPiYjeGE7ICAgIDwvcmRmOlJERj4mI3hhOyAgPC9tZXRhZGF0YT4mI3hhOyAgPGcgaW5rc2NhcGU6bGFiZWw9IlRvcGljIiBpbmtzY2FwZTpncm91cG1vZGU9ImxheWVyIiBpZD0ibGF5ZXIxIiBzdHlsZT0iZGlzcGxheTpub25lIiB0cmFuc2Zvcm09InRyYW5zbGF0ZSgtMTMzLjUwNywtODIuNTE3ODkyKSI+JiN4YTsgICAgPHJlY3Qgcnk9IjEwLjU1NDE1MSIgeT0iMTMzLjU0NSIgeD0iMTIuMzI1MjQ1IiBoZWlnaHQ9IjgwLjQyOTkwOSIgd2lkdGg9IjEzNC44NTg0NiIgaWQ9InJlY3QxMzY5IiBzdHlsZT0ib3BhY2l0eToxO2ZpbGw6bm9uZTtmaWxsLW9wYWNpdHk6MTtzdHJva2U6IzY2Mzc2NjtzdHJva2Utd2lkdGg6MS4zNjQxNDQ0NDtzdHJva2UtbWl0ZXJsaW1pdDo0O3N0cm9rZS1kYXNoYXJyYXk6bm9uZTtzdHJva2Utb3BhY2l0eToxIi8+JiN4YTsgIDwvZz4mI3hhOyAgPGcgaW5rc2NhcGU6Z3JvdXBtb2RlPSJsYXllciIgaWQ9ImxheWVyNiIgaW5rc2NhcGU6bGFiZWw9InRyYW5zaXRpb24gYWN0IiBzdHlsZT0iZGlzcGxheTpub25lIiB0cmFuc2Zvcm09InRyYW5zbGF0ZSgtMTMzLjUwNywtODIuNTE3ODkyKSI+JiN4YTsgICAgPGcgc3R5bGU9ImRpc3BsYXk6aW5saW5lIiBpZD0iZzE4NzkiPiYjeGE7ICAgICAgPGVsbGlwc2Ugcnk9IjIwLjY2MTM4MSIgcng9IjIyLjM2MjI3NCIgY3k9IjE0OC42NDQzNSIgY3g9IjE2MC42ODcxMiIgaWQ9ImNpcmNsZTE4NTkiIHN0eWxlPSJvcGFjaXR5OjE7ZmlsbDojZmZmZmZmO2ZpbGwtb3BhY2l0eToxO3N0cm9rZTojNjYzNzY2O3N0cm9rZS13aWR0aDowLjg2MTkwMTQ2O3N0cm9rZS1taXRlcmxpbWl0OjQ7c3Ryb2tlLWRhc2hhcnJheTpub25lO3N0cm9rZS1vcGFjaXR5OjEiLz4mI3hhOyAgICAgIDxwYXRoIGlua3NjYXBlOmNvbm5lY3Rvci1jdXJ2YXR1cmU9IjAiIGlkPSJwYXRoMTg2MSIgZD0ibSAxNDMuODI3MjQsMTQwLjk0NzMxIDM0LjMwNTgzLC0wLjE3MzQzIDAuMjA3OTIsLTAuMDg2NiIgc3R5bGU9ImZpbGw6I2ZmZmZmZjtmaWxsLW9wYWNpdHk6MTtzdHJva2U6IzY2Mzc2NjtzdHJva2Utd2lkdGg6MS4wMDQ3NzMwMjtzdHJva2UtbGluZWNhcDpidXR0O3N0cm9rZS1saW5lam9pbjptaXRlcjtzdHJva2UtbWl0ZXJsaW1pdDo0O3N0cm9rZS1kYXNoYXJyYXk6bm9uZTtzdHJva2Utb3BhY2l0eToxIi8+JiN4YTsgICAgICA8cGF0aCBzdHlsZT0iZmlsbDojZmZmZmZmO2ZpbGwtb3BhY2l0eToxO3N0cm9rZTojNjYzNzY2O3N0cm9rZS13aWR0aDoxLjAwNDc3MzAyO3N0cm9rZS1saW5lY2FwOmJ1dHQ7c3Ryb2tlLWxpbmVqb2luOm1pdGVyO3N0cm9rZS1taXRlcmxpbWl0OjQ7c3Ryb2tlLWRhc2hhcnJheTpub25lO3N0cm9rZS1vcGFjaXR5OjEiIGQ9Im0gMTQzLjQ4MjYzLDE0OS4xMjY0MyAzNC4zMDU4NCwtMC4xNzM0NCAwLjIwNzkyLC0wLjA4NjYiIGlkPSJwYXRoMTg2MyIgaW5rc2NhcGU6Y29ubmVjdG9yLWN1cnZhdHVyZT0iMCIvPiYjeGE7ICAgICAgPHBhdGggaW5rc2NhcGU6Y29ubmVjdG9yLWN1cnZhdHVyZT0iMCIgaWQ9InBhdGgxODY1IiBkPSJtIDE0My42NTQ5MywxNTcuNTI2NiAzNC4zMDU4NCwtMC4xNzM0MyAwLjIwNzkyLC0wLjA4NjYiIHN0eWxlPSJmaWxsOiNmZmZmZmY7ZmlsbC1vcGFjaXR5OjE7c3Ryb2tlOiM2NjM3NjY7c3Ryb2tlLXdpZHRoOjEuMDA0NzczMDI7c3Ryb2tlLWxpbmVjYXA6YnV0dDtzdHJva2UtbGluZWpvaW46bWl0ZXI7c3Ryb2tlLW1pdGVybGltaXQ6NDtzdHJva2UtZGFzaGFycmF5Om5vbmU7c3Ryb2tlLW9wYWNpdHk6MSIvPiYjeGE7ICAgIDwvZz4mI3hhOyAgPC9nPiYjeGE7ICA8ZyBpbmtzY2FwZTpncm91cG1vZGU9ImxheWVyIiBpZD0ibGF5ZXI1IiBpbmtzY2FwZTpsYWJlbD0iSW50cm9fIG11bHRpcGxlIGdyb3VwcyBvZiB0b3BpY3MiIHN0eWxlPSJkaXNwbGF5Om5vbmUiIHRyYW5zZm9ybT0idHJhbnNsYXRlKC0xMzMuNTA3LC04Mi41MTc4OTIpIj4mI3hhOyAgICA8ZyBzdHlsZT0iZGlzcGxheTppbmxpbmUiIGlkPSJnMTg4NyI+JiN4YTsgICAgICA8Y2lyY2xlIHI9IjI0LjkzOTA1OCIgY3k9IjIxMy4yNzgyNyIgY3g9IjE2MS4yNTQwOSIgaWQ9InBhdGgxNzQ5IiBzdHlsZT0ib3BhY2l0eToxO2ZpbGw6I2ZmZmZmZjtmaWxsLW9wYWNpdHk6MTtzdHJva2U6IzY2Mzc2NjtzdHJva2Utd2lkdGg6MTtzdHJva2UtbWl0ZXJsaW1pdDo0O3N0cm9rZS1kYXNoYXJyYXk6bm9uZTtzdHJva2Utb3BhY2l0eToxIi8+JiN4YTsgICAgICA8Y2lyY2xlIHN0eWxlPSJvcGFjaXR5OjE7ZmlsbDojZmZmZmZmO2ZpbGwtb3BhY2l0eToxO3N0cm9rZTojNjYzNzY2O3N0cm9rZS13aWR0aDowLjg4MTEzNTE3O3N0cm9rZS1taXRlcmxpbWl0OjQ7c3Ryb2tlLWRhc2hhcnJheTpub25lO3N0cm9rZS1vcGFjaXR5OjEiIGlkPSJjaXJjbGUxNzUxIiBjeD0iMTYxLjI1NDA5IiBjeT0iMjEzLjI3ODI3IiByPSIyMS45NzQ2ODIiLz4mI3hhOyAgICAgIDxwYXRoIHNvZGlwb2RpOm5vZGV0eXBlcz0iY2NjIiBpbmtzY2FwZTpjb25uZWN0b3ItY3VydmF0dXJlPSIwIiBpZD0icGF0aDE3NTUiIGQ9Im0gMTM5LjAwMDc0LDIwMS45Mzg5OSBjIDkuODI0NDcsLTE3Ljg1MTY5IDM1LjY0NDMsLTE3LjcwMjQ2IDQ0LjY5NTY5LDAgeiIgc3R5bGU9ImZpbGw6IzY2Mzc2NjtmaWxsLW9wYWNpdHk6MTtzdHJva2U6IzY2Mzc2NjtzdHJva2Utd2lkdGg6MC4yNjQ1ODMzMnB4O3N0cm9rZS1saW5lY2FwOmJ1dHQ7c3Ryb2tlLWxpbmVqb2luOm1pdGVyO3N0cm9rZS1vcGFjaXR5OjEiLz4mI3hhOyAgICAgIDxwYXRoIGlua3NjYXBlOmNvbm5lY3Rvci1jdXJ2YXR1cmU9IjAiIGlkPSJwYXRoMTc1NyIgZD0ibSAxNDUuNjE1MzIsMjEwLjA2NTQ4IDMxLjE4MzA0LC0wLjE4ODk5IDAuMTg4OTksLTAuMDk0NSIgc3R5bGU9ImZpbGw6I2ZmZmZmZjtmaWxsLW9wYWNpdHk6MTtzdHJva2U6IzY2Mzc2NjtzdHJva2Utd2lkdGg6MTtzdHJva2UtbGluZWNhcDpidXR0O3N0cm9rZS1saW5lam9pbjptaXRlcjtzdHJva2UtbWl0ZXJsaW1pdDo0O3N0cm9rZS1kYXNoYXJyYXk6bm9uZTtzdHJva2Utb3BhY2l0eToxIi8+JiN4YTsgICAgICA8cGF0aCBzdHlsZT0iZmlsbDojZmZmZmZmO2ZpbGwtb3BhY2l0eToxO3N0cm9rZTojNjYzNzY2O3N0cm9rZS13aWR0aDoxO3N0cm9rZS1saW5lY2FwOmJ1dHQ7c3Ryb2tlLWxpbmVqb2luOm1pdGVyO3N0cm9rZS1taXRlcmxpbWl0OjQ7c3Ryb2tlLWRhc2hhcnJheTpub25lO3N0cm9rZS1vcGFjaXR5OjEiIGQ9Im0gMTQ1LjYxNTMyLDIxNi44NjkwNCAzMS4xODMwNCwtMC4xODg5OSAwLjE4ODk5LC0wLjA5NDUiIGlkPSJwYXRoMTc1OSIgaW5rc2NhcGU6Y29ubmVjdG9yLWN1cnZhdHVyZT0iMCIvPiYjeGE7ICAgICAgPHBhdGggaW5rc2NhcGU6Y29ubmVjdG9yLWN1cnZhdHVyZT0iMCIgaWQ9InBhdGgxNzYxIiBkPSJtIDE0NS40MjYzNCwyMjMuODYxNjEgMzEuMTgzMDQsLTAuMTg4OTkgMC4xODg5OSwtMC4wOTQ1IiBzdHlsZT0iZmlsbDojZmZmZmZmO2ZpbGwtb3BhY2l0eToxO3N0cm9rZTojNjYzNzY2O3N0cm9rZS13aWR0aDoxO3N0cm9rZS1saW5lY2FwOmJ1dHQ7c3Ryb2tlLWxpbmVqb2luOm1pdGVyO3N0cm9rZS1taXRlcmxpbWl0OjQ7c3Ryb2tlLWRhc2hhcnJheTpub25lO3N0cm9rZS1vcGFjaXR5OjEiLz4mI3hhOyAgICA8L2c+JiN4YTsgIDwvZz4mI3hhOyAgPGcgaW5rc2NhcGU6Z3JvdXBtb2RlPSJsYXllciIgaWQ9ImxheWVyNCIgaW5rc2NhcGU6bGFiZWw9IkludHJvX0dyb3VwIG9mIHRvcGljcyIgc3R5bGU9ImRpc3BsYXk6bm9uZSIgdHJhbnNmb3JtPSJ0cmFuc2xhdGUoLTEzMy41MDcsLTgyLjUxNzg5MikiPiYjeGE7ICAgIDxnIHN0eWxlPSJkaXNwbGF5OmlubGluZSIgaWQ9ImcxODk0Ij4mI3hhOyAgICAgIDxjaXJjbGUgc3R5bGU9Im9wYWNpdHk6MTtmaWxsOiNmZmZmZmY7ZmlsbC1vcGFjaXR5OjE7c3Ryb2tlOiM2NjM3NjY7c3Ryb2tlLXdpZHRoOjE7c3Ryb2tlLW1pdGVybGltaXQ6NDtzdHJva2UtZGFzaGFycmF5Om5vbmU7c3Ryb2tlLW9wYWNpdHk6MSIgaWQ9ImNpcmNsZTE3NzciIGN4PSIxNjAuMzA5MTQiIGN5PSIyNjguNjUxNzkiIHI9IjI0LjkzOTA1OCIvPiYjeGE7ICAgICAgPHBhdGggc3R5bGU9ImZpbGw6IzY2Mzc2NjtmaWxsLW9wYWNpdHk6MTtzdHJva2U6IzY2Mzc2NjtzdHJva2Utd2lkdGg6MC4yNjQ1ODMzMnB4O3N0cm9rZS1saW5lY2FwOmJ1dHQ7c3Ryb2tlLWxpbmVqb2luOm1pdGVyO3N0cm9rZS1vcGFjaXR5OjEiIGQ9Im0gMTM4LjA1NTgsMjU3LjMxMjUgYyA5LjgyNDQ3LC0xNy44NTE2OSAzNS42NDQzLC0xNy43MDI0NiA0NC42OTU2OSwwIHoiIGlkPSJwYXRoMTc4MSIgaW5rc2NhcGU6Y29ubmVjdG9yLWN1cnZhdHVyZT0iMCIgc29kaXBvZGk6bm9kZXR5cGVzPSJjY2MiLz4mI3hhOyAgICAgIDxwYXRoIHN0eWxlPSJmaWxsOiNmZmZmZmY7ZmlsbC1vcGFjaXR5OjE7c3Ryb2tlOiM2NjM3NjY7c3Ryb2tlLXdpZHRoOjAuOTcyOTg0NjE7c3Ryb2tlLWxpbmVjYXA6YnV0dDtzdHJva2UtbGluZWpvaW46bWl0ZXI7c3Ryb2tlLW1pdGVybGltaXQ6NDtzdHJva2UtZGFzaGFycmF5Om5vbmU7c3Ryb2tlLW9wYWNpdHk6MSIgZD0ibSAxNDEuOTc0MDcsMjY1LjY5Njg4IDM3LjYyODI2LC0wLjE0ODI3IDAuMjI4MDYsLTAuMDc0MSIgaWQ9InBhdGgxNzgzIiBpbmtzY2FwZTpjb25uZWN0b3ItY3VydmF0dXJlPSIwIi8+JiN4YTsgICAgICA8cGF0aCBpbmtzY2FwZTpjb25uZWN0b3ItY3VydmF0dXJlPSIwIiBpZD0icGF0aDE3ODkiIGQ9Im0gMTQxLjU5NjA5LDI3Mi42ODk0NCAzNy42MjgyNiwtMC4xNDgyNyAwLjIyODA2LC0wLjA3NDEiIHN0eWxlPSJmaWxsOiNmZmZmZmY7ZmlsbC1vcGFjaXR5OjE7c3Ryb2tlOiM2NjM3NjY7c3Ryb2tlLXdpZHRoOjAuOTcyOTg0NjE7c3Ryb2tlLWxpbmVjYXA6YnV0dDtzdHJva2UtbGluZWpvaW46bWl0ZXI7c3Ryb2tlLW1pdGVybGltaXQ6NDtzdHJva2UtZGFzaGFycmF5Om5vbmU7c3Ryb2tlLW9wYWNpdHk6MSIvPiYjeGE7ICAgICAgPHBhdGggc3R5bGU9ImZpbGw6I2ZmZmZmZjtmaWxsLW9wYWNpdHk6MTtzdHJva2U6IzY2Mzc2NjtzdHJva2Utd2lkdGg6MC45NzI5ODQ2MTtzdHJva2UtbGluZWNhcDpidXR0O3N0cm9rZS1saW5lam9pbjptaXRlcjtzdHJva2UtbWl0ZXJsaW1pdDo0O3N0cm9rZS1kYXNoYXJyYXk6bm9uZTtzdHJva2Utb3BhY2l0eToxIiBkPSJtIDE0MS43ODUwOCwyNzkuODcwOTkgMzcuNjI4MjYsLTAuMTQ4MjcgMC4yMjgwNiwtMC4wNzQxIiBpZD0icGF0aDE3OTEiIGlua3NjYXBlOmNvbm5lY3Rvci1jdXJ2YXR1cmU9IjAiLz4mI3hhOyAgICA8L2c+JiN4YTsgIDwvZz4mI3hhOyAgPGcgaW5rc2NhcGU6Z3JvdXBtb2RlPSJsYXllciIgaWQ9ImxheWVyMyIgaW5rc2NhcGU6bGFiZWw9IkRpYWxvZ3VlIEFjdCIgc3R5bGU9ImRpc3BsYXk6aW5saW5lIiB0cmFuc2Zvcm09InRyYW5zbGF0ZSgtMTMzLjUwNywtODIuNTE3ODkyKSI+JiN4YTsgICAgPGcgc3R5bGU9ImRpc3BsYXk6aW5saW5lIiBpZD0iZzE4NjkiPiYjeGE7ICAgICAgPGVsbGlwc2Ugc3R5bGU9Im9wYWNpdHk6MTtmaWxsOiM5OTk5OTk7ZmlsbC1vcGFjaXR5OjE7c3Ryb2tlOiM5OTk5OTk7c3Ryb2tlLXdpZHRoOjEuNTtzdHJva2UtbWl0ZXJsaW1pdDo0O3N0cm9rZS1kYXNoYXJyYXk6bm9uZTtzdHJva2Utb3BhY2l0eToxO2ZpbHRlcjp1cmwoI2ZpbHRlcjE2ODMpIiBpZD0iZWxsaXBzZTE0ODMiIGN4PSIxNDUuNzA5ODEiIGN5PSI5Ny4wNTA1ODMiIHJ4PSIxMS4xNTAyOTciIHJ5PSIxMS4zMzkyODYiLz4mI3hhOyAgICAgIDxlbGxpcHNlIHJ5PSIxMS4zMzkyODYiIHJ4PSIxMS4xNTAyOTciIGN5PSI5NC42MDcxNzgiIGN4PSIxNDcuMzA5NTEiIGlkPSJwYXRoMTM3OSIgc3R5bGU9Im9wYWNpdHk6MTtmaWxsOnVybCgjbGluZWFyR3JhZGllbnQxODU3KTtmaWxsLW9wYWNpdHk6MTtzdHJva2U6IzY2Mzc2NjtzdHJva2Utd2lkdGg6MS41O3N0cm9rZS1taXRlcmxpbWl0OjQ7c3Ryb2tlLWRhc2hhcnJheTpub25lO3N0cm9rZS1vcGFjaXR5OjEiLz4mI3hhOyAgICA8L2c+JiN4YTsgIDwvZz4mI3hhOyAgPGcgaW5rc2NhcGU6Z3JvdXBtb2RlPSJsYXllciIgaWQ9ImxheWVyMiIgaW5rc2NhcGU6bGFiZWw9Ik11bHRpcGxlIHRvcGljIiBzdHlsZT0iZGlzcGxheTpub25lIiB0cmFuc2Zvcm09InRyYW5zbGF0ZSgtMTMzLjUwNywtODIuNTE3ODkyKSI+JiN4YTsgICAgPHJlY3Qgc3R5bGU9Im9wYWNpdHk6MTtmaWxsOm5vbmU7ZmlsbC1vcGFjaXR5OjE7c3Ryb2tlOiM2NjM3NjY7c3Ryb2tlLXdpZHRoOjEuMzc0ODQ1ODY7c3Ryb2tlLW1pdGVybGltaXQ6NDtzdHJva2UtZGFzaGFycmF5Om5vbmU7c3Ryb2tlLW9wYWNpdHk6MSIgaWQ9InJlY3QxMzY1IiB3aWR0aD0iMTM1Ljk2NzIxIiBoZWlnaHQ9IjgxLjAzMDU2MyIgeD0iMTMuMDc3NjEzIiB5PSIxMzMuMjY0NDciIHJ5PSIxMC42MzI5NyIvPiYjeGE7ICAgIDxyZWN0IHJ5PSI5LjQ0ODA1NjIiIHk9IjEzNy45NzA1NSIgeD0iMTkuNjY0OTY4IiBoZWlnaHQ9IjcyLjAwMDY5NCIgd2lkdGg9IjEyMi43OTI0OSIgaWQ9InJlY3QxMzY3IiBzdHlsZT0ib3BhY2l0eToxO2ZpbGw6bm9uZTtmaWxsLW9wYWNpdHk6MTtzdHJva2U6IzY2Mzc2NjtzdHJva2Utd2lkdGg6MS4zNDI3NTkwMTtzdHJva2UtbWl0ZXJsaW1pdDo0O3N0cm9rZS1kYXNoYXJyYXk6bm9uZTtzdHJva2Utb3BhY2l0eToxIi8+JiN4YTsgIDwvZz4mI3hhOzwvc3ZnPg==" parent="2tFBRqaM1ZA4eUpaGNYp-167" vertex="1">
          <mxGeometry x="64" y="25" width="38.52" height="40" as="geometry" />
        </mxCell>
        <mxCell id="2tFBRqaM1ZA4eUpaGNYp-175" value="&lt;font style=&quot;font-size: 24px&quot;&gt;GT&lt;/font&gt;" style="text;html=1;strokeColor=none;fillColor=none;align=center;verticalAlign=middle;whiteSpace=wrap;rounded=0;shadow=1;fontFamily=Tahoma;fontSize=16;fontColor=#000000;dashed=1;" parent="2tFBRqaM1ZA4eUpaGNYp-163" vertex="1">
          <mxGeometry x="20" y="290" width="35" height="26.25" as="geometry" />
        </mxCell>
        <mxCell id="2tFBRqaM1ZA4eUpaGNYp-192" value="" style="verticalLabelPosition=bottom;verticalAlign=top;html=1;shape=mxgraph.basic.orthogonal_triangle;fillColor=#540054;fontSize=15;fontColor=#540054;direction=north;" parent="2tFBRqaM1ZA4eUpaGNYp-163" vertex="1">
          <mxGeometry x="120" y="280.01" width="40" height="40" as="geometry" />
        </mxCell>
        <mxCell id="2tFBRqaM1ZA4eUpaGNYp-171" value="" style="html=1;shadow=0;dashed=0;align=center;verticalAlign=middle;shape=mxgraph.arrows2.arrow;dy=0.41;dx=40;notch=0;strokeColor=#540054;strokeWidth=3;fillColor=#540054;gradientColor=none;fontFamily=Tahoma;fontSize=16;fontColor=#000000;direction=south;" parent="1" vertex="1">
          <mxGeometry x="160" y="769" width="40" height="20" as="geometry" />
        </mxCell>
        <mxCell id="2tFBRqaM1ZA4eUpaGNYp-172" value="&lt;font style=&quot;font-size: 24px&quot;&gt;I&lt;/font&gt;" style="text;html=1;strokeColor=none;fillColor=none;align=center;verticalAlign=middle;whiteSpace=wrap;rounded=0;shadow=1;fontFamily=Tahoma;fontSize=16;fontColor=#000000;dashed=1;" parent="1" vertex="1">
          <mxGeometry x="190" y="735" width="35" height="26.25" as="geometry" />
        </mxCell>
        <mxCell id="2tFBRqaM1ZA4eUpaGNYp-174" value="" style="endArrow=classic;html=1;shadow=0;strokeColor=#660066;strokeWidth=3;fillColor=#660066;gradientColor=#E69CDC;fontFamily=Tahoma;fontSize=16;fontColor=#000000;exitX=0.807;exitY=1.009;exitDx=0;exitDy=0;exitPerimeter=0;entryX=-0.014;entryY=0.091;entryDx=0;entryDy=0;entryPerimeter=0;" parent="1" source="2tFBRqaM1ZA4eUpaGNYp-164" target="2tFBRqaM1ZA4eUpaGNYp-150" edge="1">
          <mxGeometry width="50" height="50" relative="1" as="geometry">
            <mxPoint x="130" y="1230" as="sourcePoint" />
            <mxPoint x="410" y="1230" as="targetPoint" />
            <Array as="points">
              <mxPoint x="266" y="1220" />
            </Array>
          </mxGeometry>
        </mxCell>
        <mxCell id="2tFBRqaM1ZA4eUpaGNYp-176" value="&lt;font style=&quot;font-size: 24px&quot;&gt;Event [5-100]&lt;/font&gt;" style="text;html=1;strokeColor=none;fillColor=none;align=center;verticalAlign=middle;whiteSpace=wrap;rounded=0;shadow=1;fontFamily=Tahoma;fontSize=16;fontColor=#000000;dashed=1;" parent="1" vertex="1">
          <mxGeometry x="660" y="1156.25" width="160" height="26.25" as="geometry" />
        </mxCell>
        <mxCell id="2tFBRqaM1ZA4eUpaGNYp-177" value="&lt;font style=&quot;font-size: 24px&quot;&gt;Person [5-100]&lt;br&gt;&lt;/font&gt;" style="text;html=1;strokeColor=none;fillColor=none;align=center;verticalAlign=middle;whiteSpace=wrap;rounded=0;shadow=1;fontFamily=Tahoma;fontSize=16;fontColor=#000000;dashed=1;" parent="1" vertex="1">
          <mxGeometry x="1070" y="756.25" width="180" height="26.25" as="geometry" />
        </mxCell>
        <mxCell id="2tFBRqaM1ZA4eUpaGNYp-178" value="&lt;font style=&quot;font-size: 24px&quot;&gt;Service [5-100]&lt;/font&gt;" style="text;html=1;strokeColor=none;fillColor=none;align=center;verticalAlign=middle;whiteSpace=wrap;rounded=0;shadow=1;fontFamily=Tahoma;fontSize=16;fontColor=#000000;dashed=1;" parent="1" vertex="1">
          <mxGeometry x="230" y="756.25" width="170" height="26.25" as="geometry" />
        </mxCell>
        <mxCell id="2tFBRqaM1ZA4eUpaGNYp-180" value="" style="endArrow=classic;startArrow=classic;html=1;shadow=0;strokeColor=#660066;strokeWidth=3;fillColor=#660066;gradientColor=#E69CDC;fontFamily=Tahoma;fontSize=16;fontColor=#000000;exitX=1;exitY=0.088;exitDx=0;exitDy=0;exitPerimeter=0;entryX=0.189;entryY=1.009;entryDx=0;entryDy=0;entryPerimeter=0;" parent="1" source="2tFBRqaM1ZA4eUpaGNYp-150" target="2tFBRqaM1ZA4eUpaGNYp-135" edge="1">
          <mxGeometry width="50" height="50" relative="1" as="geometry">
            <mxPoint x="810" y="1220" as="sourcePoint" />
            <mxPoint x="1090" y="1220" as="targetPoint" />
            <Array as="points">
              <mxPoint x="923" y="1219" />
            </Array>
          </mxGeometry>
        </mxCell>
        <mxCell id="2tFBRqaM1ZA4eUpaGNYp-181" value="" style="endArrow=classic;html=1;shadow=0;strokeColor=#660066;strokeWidth=2;fillColor=#660066;gradientColor=#E69CDC;fontFamily=Tahoma;fontSize=16;fontColor=#000000;shape=link;width=9.310344827586206;exitX=0.5;exitY=1;exitDx=0;exitDy=0;exitPerimeter=0;entryX=0;entryY=0.5;entryDx=0;entryDy=0;entryPerimeter=0;" parent="1" source="2tFBRqaM1ZA4eUpaGNYp-82" target="2tFBRqaM1ZA4eUpaGNYp-182" edge="1">
          <mxGeometry width="50" height="50" relative="1" as="geometry">
            <mxPoint x="585" y="705" as="sourcePoint" />
            <mxPoint x="1160" y="995.6599999999999" as="targetPoint" />
          </mxGeometry>
        </mxCell>
        <mxCell id="2tFBRqaM1ZA4eUpaGNYp-183" value="&lt;font style=&quot;font-size: 24px&quot;&gt;I [12-12]&lt;br&gt;&lt;/font&gt;" style="text;html=1;strokeColor=none;fillColor=none;align=center;verticalAlign=middle;whiteSpace=wrap;rounded=0;shadow=1;fontFamily=Tahoma;fontSize=16;fontColor=#000000;dashed=1;" parent="1" vertex="1">
          <mxGeometry x="615" y="742.75" width="115" height="26.25" as="geometry" />
        </mxCell>
        <mxCell id="2tFBRqaM1ZA4eUpaGNYp-194" value="" style="endArrow=classic;html=1;shadow=0;strokeColor=#660066;strokeWidth=2;fillColor=#660066;gradientColor=#E69CDC;fontFamily=Tahoma;fontSize=16;fontColor=#000000;shape=link;width=9.310344827586206;entryX=0;entryY=0.5;entryDx=0;entryDy=0;entryPerimeter=0;exitX=-0.025;exitY=0.625;exitDx=0;exitDy=0;exitPerimeter=0;" parent="1" source="2tFBRqaM1ZA4eUpaGNYp-192" target="2tFBRqaM1ZA4eUpaGNYp-195" edge="1">
          <mxGeometry width="50" height="50" relative="1" as="geometry">
            <mxPoint x="490" y="1729.6599999999999" as="sourcePoint" />
            <mxPoint x="1049" y="1700" as="targetPoint" />
            <Array as="points">
              <mxPoint x="185" y="1580" />
              <mxPoint x="1025" y="1580" />
            </Array>
          </mxGeometry>
        </mxCell>
        <mxCell id="2tFBRqaM1ZA4eUpaGNYp-195" value="" style="html=1;shadow=0;dashed=0;align=center;verticalAlign=middle;shape=mxgraph.arrows2.arrow;dy=0.41;dx=40;notch=0;strokeColor=#540054;strokeWidth=3;fillColor=#540054;gradientColor=none;fontFamily=Tahoma;fontSize=16;fontColor=#000000;direction=north;" parent="1" vertex="1">
          <mxGeometry x="1005" y="1120" width="40" height="20" as="geometry" />
        </mxCell>
        <mxCell id="2tFBRqaM1ZA4eUpaGNYp-196" value="&lt;font style=&quot;font-size: 24px&quot;&gt;I [1-5]&lt;br&gt;&lt;/font&gt;" style="text;html=1;strokeColor=none;fillColor=none;align=center;verticalAlign=middle;whiteSpace=wrap;rounded=0;shadow=1;fontFamily=Tahoma;fontSize=16;fontColor=#000000;dashed=1;" parent="1" vertex="1">
          <mxGeometry x="540" y="1540" width="85" height="26.25" as="geometry" />
        </mxCell>
        <mxCell id="2tFBRqaM1ZA4eUpaGNYp-198" value="" style="group;fillColor=none;fontSize=15;fontColor=#540054;" parent="1" vertex="1" connectable="0">
          <mxGeometry x="-200" y="1110" width="293" height="40" as="geometry" />
        </mxCell>
        <mxCell id="2tFBRqaM1ZA4eUpaGNYp-199" value="" style="endArrow=classic;html=1;shadow=0;strokeColor=#660066;strokeWidth=2;fillColor=#660066;gradientColor=#E69CDC;fontFamily=Tahoma;fontSize=16;fontColor=#000000;shape=link;width=9.310344827586206;exitX=-0.075;exitY=0.594;exitDx=0;exitDy=0;exitPerimeter=0;" parent="2tFBRqaM1ZA4eUpaGNYp-198" source="2tFBRqaM1ZA4eUpaGNYp-197" edge="1">
          <mxGeometry width="50" height="50" relative="1" as="geometry">
            <mxPoint y="19.659999999999968" as="sourcePoint" />
            <mxPoint x="280" y="19.659999999999968" as="targetPoint" />
            <Array as="points">
              <mxPoint x="1325" y="510" />
              <mxPoint x="280" y="510" />
            </Array>
          </mxGeometry>
        </mxCell>
        <mxCell id="2tFBRqaM1ZA4eUpaGNYp-200" value="" style="html=1;shadow=0;dashed=0;align=center;verticalAlign=middle;shape=mxgraph.arrows2.arrow;dy=0.41;dx=40;notch=0;strokeColor=#540054;strokeWidth=3;fillColor=#540054;gradientColor=none;fontFamily=Tahoma;fontSize=16;fontColor=#000000;direction=north;" parent="2tFBRqaM1ZA4eUpaGNYp-198" vertex="1">
          <mxGeometry x="263" y="10" width="40" height="20" as="geometry" />
        </mxCell>
        <mxCell id="53ckl4FUmNRtyCdvXQQA-1" value="&lt;font style=&quot;font-size: 24px&quot;&gt;I [1-3]&lt;br&gt;&lt;/font&gt;" style="text;html=1;strokeColor=none;fillColor=none;align=center;verticalAlign=middle;whiteSpace=wrap;rounded=0;shadow=1;fontFamily=Tahoma;fontSize=16;fontColor=#000000;dashed=1;" parent="1" vertex="1">
          <mxGeometry x="540" y="1630" width="85" height="26.25" as="geometry" />
        </mxCell>
        <mxCell id="9KjeEe6FVk--jXMcidhR-1" value="" style="endArrow=classic;html=1;shadow=0;strokeColor=#660066;strokeWidth=3;fillColor=#660066;gradientColor=#E69CDC;fontFamily=Tahoma;fontSize=16;fontColor=#000000;exitX=0.129;exitY=-0.003;exitDx=0;exitDy=0;exitPerimeter=0;" parent="1" source="2tFBRqaM1ZA4eUpaGNYp-150" edge="1">
          <mxGeometry width="50" height="50" relative="1" as="geometry">
            <mxPoint x="270" y="1270" as="sourcePoint" />
            <mxPoint x="323" y="1090" as="targetPoint" />
            <Array as="points">
              <mxPoint x="491" y="1090" />
            </Array>
          </mxGeometry>
        </mxCell>
        <mxCell id="iagNMvWWNvAy15W2TZMq-1" value="" style="group" parent="1" vertex="1" connectable="0">
          <mxGeometry x="1780" y="440.88" width="200" height="300" as="geometry" />
        </mxCell>
        <mxCell id="iagNMvWWNvAy15W2TZMq-2" value="" style="group" parent="iagNMvWWNvAy15W2TZMq-1" vertex="1" connectable="0">
          <mxGeometry width="200" height="300" as="geometry" />
        </mxCell>
        <mxCell id="iagNMvWWNvAy15W2TZMq-3" value="" style="group" parent="iagNMvWWNvAy15W2TZMq-2" vertex="1" connectable="0">
          <mxGeometry width="200" height="300" as="geometry" />
        </mxCell>
        <mxCell id="iagNMvWWNvAy15W2TZMq-4" value="" style="shape=card;whiteSpace=wrap;html=1;shadow=1;strokeColor=#540054;strokeWidth=3;fillColor=none;gradientColor=#E69CDC;fontFamily=Tahoma;fontSize=16;fontColor=#000000;align=left;flipH=1;" parent="iagNMvWWNvAy15W2TZMq-3" vertex="1">
          <mxGeometry x="30" y="29" width="170" height="220" as="geometry" />
        </mxCell>
        <mxCell id="iagNMvWWNvAy15W2TZMq-5" value="" style="shape=image;verticalLabelPosition=bottom;verticalAlign=top;imageAspect=0;aspect=fixed;image=data:image/svg+xml,PHN2ZyB4bWxuczpkYz0iaHR0cDovL3B1cmwub3JnL2RjL2VsZW1lbnRzLzEuMS8iIHhtbG5zOmNjPSJodHRwOi8vY3JlYXRpdmVjb21tb25zLm9yZy9ucyMiIHhtbG5zOnJkZj0iaHR0cDovL3d3dy53My5vcmcvMTk5OS8wMi8yMi1yZGYtc3ludGF4LW5zIyIgeG1sbnM6c3ZnPSJodHRwOi8vd3d3LnczLm9yZy8yMDAwL3N2ZyIgeG1sbnM9Imh0dHA6Ly93d3cudzMub3JnLzIwMDAvc3ZnIiB4bWxuczp4bGluaz0iaHR0cDovL3d3dy53My5vcmcvMTk5OS94bGluayIgeG1sbnM6c29kaXBvZGk9Imh0dHA6Ly9zb2RpcG9kaS5zb3VyY2Vmb3JnZS5uZXQvRFREL3NvZGlwb2RpLTAuZHRkIiB4bWxuczppbmtzY2FwZT0iaHR0cDovL3d3dy5pbmtzY2FwZS5vcmcvbmFtZXNwYWNlcy9pbmtzY2FwZSIgd2lkdGg9IjEzNC4zMjQ0bW0iIGhlaWdodD0iMTMyLjg2NTY5bW0iIHZpZXdCb3g9IjAgMCAxMzQuMzI0NCAxMzIuODY1NjkiIHZlcnNpb249IjEuMSIgaWQ9InN2ZzgyMCIgaW5rc2NhcGU6dmVyc2lvbj0iMC45Mi40ICg1ZGE2ODljMzEzLCAyMDE5LTAxLTE0KSIgc29kaXBvZGk6ZG9jbmFtZT0iSW50cm9kdWN0b3J5IGFjdCAtIEdyb3VwIG9mIHRvcGljcy5zdmciPiYjeGE7ICA8ZGVmcyBpZD0iZGVmczgxNCI+JiN4YTsgICAgPGxpbmVhckdyYWRpZW50IGlua3NjYXBlOmNvbGxlY3Q9ImFsd2F5cyIgaWQ9ImxpbmVhckdyYWRpZW50MTgxNSI+JiN4YTsgICAgICA8c3RvcCBzdHlsZT0ic3RvcC1jb2xvcjojNjYzNzY2O3N0b3Atb3BhY2l0eToxIiBvZmZzZXQ9IjAiIGlkPSJzdG9wMTgxMSIvPiYjeGE7ICAgICAgPHN0b3Agc3R5bGU9InN0b3AtY29sb3I6I2FmNzZiZDtzdG9wLW9wYWNpdHk6MSIgb2Zmc2V0PSIxIiBpZD0ic3RvcDE4MTMiLz4mI3hhOyAgICA8L2xpbmVhckdyYWRpZW50PiYjeGE7ICAgIDxmaWx0ZXIgaW5rc2NhcGU6Y29sbGVjdD0iYWx3YXlzIiBzdHlsZT0iY29sb3ItaW50ZXJwb2xhdGlvbi1maWx0ZXJzOnNSR0IiIGlkPSJmaWx0ZXIxNjgzIiB4PSItMC4wNDcxOTY2MTIiIHdpZHRoPSIxLjA5NDM5MzMiIHk9Ii0wLjA0NjQwOTk5OCIgaGVpZ2h0PSIxLjA5MjgyIj4mI3hhOyAgICAgIDxmZUdhdXNzaWFuQmx1ciBpbmtzY2FwZTpjb2xsZWN0PSJhbHdheXMiIHN0ZERldmlhdGlvbj0iMC40Mzg1NDY4NyIgaWQ9ImZlR2F1c3NpYW5CbHVyMTY4NSIvPiYjeGE7ICAgIDwvZmlsdGVyPiYjeGE7ICAgIDxsaW5lYXJHcmFkaWVudCBpbmtzY2FwZTpjb2xsZWN0PSJhbHdheXMiIHhsaW5rOmhyZWY9IiNsaW5lYXJHcmFkaWVudDE4MTUiIGlkPSJsaW5lYXJHcmFkaWVudDE4NTciIHgxPSIxNTEuMzc5NDciIHkxPSI5MS43NTg5MjYiIHgyPSIxNDYuODQzNzUiIHkyPSIxMDUuOTMzMDQiIGdyYWRpZW50VW5pdHM9InVzZXJTcGFjZU9uVXNlIi8+JiN4YTsgIDwvZGVmcz4mI3hhOyAgPHNvZGlwb2RpOm5hbWVkdmlldyBpZD0iYmFzZSIgcGFnZWNvbG9yPSIjZmZmZmZmIiBib3JkZXJjb2xvcj0iIzY2NjY2NiIgYm9yZGVyb3BhY2l0eT0iMS4wIiBpbmtzY2FwZTpwYWdlb3BhY2l0eT0iMC4wIiBpbmtzY2FwZTpwYWdlc2hhZG93PSIyIiBpbmtzY2FwZTp6b29tPSIwLjM1IiBpbmtzY2FwZTpjeD0iODI2LjYzNzc4IiBpbmtzY2FwZTpjeT0iOTM5LjU5NSIgaW5rc2NhcGU6ZG9jdW1lbnQtdW5pdHM9Im1tIiBpbmtzY2FwZTpjdXJyZW50LWxheWVyPSJsYXllcjQiIHNob3dncmlkPSJmYWxzZSIgaW5rc2NhcGU6d2luZG93LXdpZHRoPSIxOTIwIiBpbmtzY2FwZTp3aW5kb3ctaGVpZ2h0PSIxMDEzIiBpbmtzY2FwZTp3aW5kb3cteD0iLTkiIGlua3NjYXBlOndpbmRvdy15PSItOSIgaW5rc2NhcGU6d2luZG93LW1heGltaXplZD0iMSIvPiYjeGE7ICA8bWV0YWRhdGEgaWQ9Im1ldGFkYXRhODE3Ij4mI3hhOyAgICA8cmRmOlJERj4mI3hhOyAgICAgIDxjYzpXb3JrIHJkZjphYm91dD0iIj4mI3hhOyAgICAgICAgPGRjOmZvcm1hdD5pbWFnZS9zdmcreG1sPC9kYzpmb3JtYXQ+JiN4YTsgICAgICAgIDxkYzp0eXBlIHJkZjpyZXNvdXJjZT0iaHR0cDovL3B1cmwub3JnL2RjL2RjbWl0eXBlL1N0aWxsSW1hZ2UiLz4mI3hhOyAgICAgICAgPGRjOnRpdGxlLz4mI3hhOyAgICAgIDwvY2M6V29yaz4mI3hhOyAgICA8L3JkZjpSREY+JiN4YTsgIDwvbWV0YWRhdGE+JiN4YTsgIDxnIGlua3NjYXBlOmxhYmVsPSJUb3BpYyIgaW5rc2NhcGU6Z3JvdXBtb2RlPSJsYXllciIgaWQ9ImxheWVyMSIgc3R5bGU9ImRpc3BsYXk6bm9uZSIgdHJhbnNmb3JtPSJ0cmFuc2xhdGUoLTE0My4zMDkxOCwtMTY0LjkxMTYyKSI+JiN4YTsgICAgPHJlY3Qgcnk9IjEwLjU1NDE1MSIgeT0iMTMzLjU0NSIgeD0iMTIuMzI1MjQ1IiBoZWlnaHQ9IjgwLjQyOTkwOSIgd2lkdGg9IjEzNC44NTg0NiIgaWQ9InJlY3QxMzY5IiBzdHlsZT0ib3BhY2l0eToxO2ZpbGw6bm9uZTtmaWxsLW9wYWNpdHk6MTtzdHJva2U6IzY2Mzc2NjtzdHJva2Utd2lkdGg6MS4zNjQxNDQ0NDtzdHJva2UtbWl0ZXJsaW1pdDo0O3N0cm9rZS1kYXNoYXJyYXk6bm9uZTtzdHJva2Utb3BhY2l0eToxIi8+JiN4YTsgIDwvZz4mI3hhOyAgPGcgaW5rc2NhcGU6Z3JvdXBtb2RlPSJsYXllciIgaWQ9ImxheWVyNiIgaW5rc2NhcGU6bGFiZWw9InRyYW5zaXRpb24gYWN0IiBzdHlsZT0iZGlzcGxheTpub25lIiB0cmFuc2Zvcm09InRyYW5zbGF0ZSgtMTQzLjMwOTE4LC0xNjQuOTExNjIpIj4mI3hhOyAgICA8ZyBzdHlsZT0iZGlzcGxheTppbmxpbmUiIGlkPSJnMTg3OSI+JiN4YTsgICAgICA8ZWxsaXBzZSByeT0iMjAuNjYxMzgxIiByeD0iMjIuMzYyMjc0IiBjeT0iMTQ4LjY0NDM1IiBjeD0iMTYwLjY4NzEyIiBpZD0iY2lyY2xlMTg1OSIgc3R5bGU9Im9wYWNpdHk6MTtmaWxsOiNmZmZmZmY7ZmlsbC1vcGFjaXR5OjE7c3Ryb2tlOiM2NjM3NjY7c3Ryb2tlLXdpZHRoOjAuODYxOTAxNDY7c3Ryb2tlLW1pdGVybGltaXQ6NDtzdHJva2UtZGFzaGFycmF5Om5vbmU7c3Ryb2tlLW9wYWNpdHk6MSIvPiYjeGE7ICAgICAgPHBhdGggaW5rc2NhcGU6Y29ubmVjdG9yLWN1cnZhdHVyZT0iMCIgaWQ9InBhdGgxODYxIiBkPSJtIDE0My44MjcyNCwxNDAuOTQ3MzEgMzQuMzA1ODMsLTAuMTczNDMgMC4yMDc5MiwtMC4wODY2IiBzdHlsZT0iZmlsbDojZmZmZmZmO2ZpbGwtb3BhY2l0eToxO3N0cm9rZTojNjYzNzY2O3N0cm9rZS13aWR0aDoxLjAwNDc3MzAyO3N0cm9rZS1saW5lY2FwOmJ1dHQ7c3Ryb2tlLWxpbmVqb2luOm1pdGVyO3N0cm9rZS1taXRlcmxpbWl0OjQ7c3Ryb2tlLWRhc2hhcnJheTpub25lO3N0cm9rZS1vcGFjaXR5OjEiLz4mI3hhOyAgICAgIDxwYXRoIHN0eWxlPSJmaWxsOiNmZmZmZmY7ZmlsbC1vcGFjaXR5OjE7c3Ryb2tlOiM2NjM3NjY7c3Ryb2tlLXdpZHRoOjEuMDA0NzczMDI7c3Ryb2tlLWxpbmVjYXA6YnV0dDtzdHJva2UtbGluZWpvaW46bWl0ZXI7c3Ryb2tlLW1pdGVybGltaXQ6NDtzdHJva2UtZGFzaGFycmF5Om5vbmU7c3Ryb2tlLW9wYWNpdHk6MSIgZD0ibSAxNDMuNDgyNjMsMTQ5LjEyNjQzIDM0LjMwNTg0LC0wLjE3MzQ0IDAuMjA3OTIsLTAuMDg2NiIgaWQ9InBhdGgxODYzIiBpbmtzY2FwZTpjb25uZWN0b3ItY3VydmF0dXJlPSIwIi8+JiN4YTsgICAgICA8cGF0aCBpbmtzY2FwZTpjb25uZWN0b3ItY3VydmF0dXJlPSIwIiBpZD0icGF0aDE4NjUiIGQ9Im0gMTQzLjY1NDkzLDE1Ny41MjY2IDM0LjMwNTg0LC0wLjE3MzQzIDAuMjA3OTIsLTAuMDg2NiIgc3R5bGU9ImZpbGw6I2ZmZmZmZjtmaWxsLW9wYWNpdHk6MTtzdHJva2U6IzY2Mzc2NjtzdHJva2Utd2lkdGg6MS4wMDQ3NzMwMjtzdHJva2UtbGluZWNhcDpidXR0O3N0cm9rZS1saW5lam9pbjptaXRlcjtzdHJva2UtbWl0ZXJsaW1pdDo0O3N0cm9rZS1kYXNoYXJyYXk6bm9uZTtzdHJva2Utb3BhY2l0eToxIi8+JiN4YTsgICAgPC9nPiYjeGE7ICA8L2c+JiN4YTsgIDxnIGlua3NjYXBlOmdyb3VwbW9kZT0ibGF5ZXIiIGlkPSJsYXllcjUiIGlua3NjYXBlOmxhYmVsPSJJbnRyb18gbXVsdGlwbGUgZ3JvdXBzIG9mIHRvcGljcyIgc3R5bGU9ImRpc3BsYXk6bm9uZSIgdHJhbnNmb3JtPSJ0cmFuc2xhdGUoLTE0My4zMDkxOCwtMTY0LjkxMTYyKSI+JiN4YTsgICAgPGcgc3R5bGU9ImRpc3BsYXk6aW5saW5lIiBpZD0iZzE4ODciIHRyYW5zZm9ybT0ibWF0cml4KDIuNjQwMTIxNCwwLDAsMi42MTE0NTA2LC0yMTQuMzE0MDEsLTM4MC45OTQ3OCkiPiYjeGE7ICAgICAgPGNpcmNsZSByPSIyNC45MzkwNTgiIGN5PSIyMTMuMjc4MjciIGN4PSIxNjEuMjU0MDkiIGlkPSJwYXRoMTc0OSIgc3R5bGU9Im9wYWNpdHk6MTtmaWxsOiNmZmZmZmY7ZmlsbC1vcGFjaXR5OjE7c3Ryb2tlOiM2NjM3NjY7c3Ryb2tlLXdpZHRoOjE7c3Ryb2tlLW1pdGVybGltaXQ6NDtzdHJva2UtZGFzaGFycmF5Om5vbmU7c3Ryb2tlLW9wYWNpdHk6MSIvPiYjeGE7ICAgICAgPGNpcmNsZSBzdHlsZT0ib3BhY2l0eToxO2ZpbGw6I2ZmZmZmZjtmaWxsLW9wYWNpdHk6MTtzdHJva2U6IzY2Mzc2NjtzdHJva2Utd2lkdGg6MC44ODExMzUxNztzdHJva2UtbWl0ZXJsaW1pdDo0O3N0cm9rZS1kYXNoYXJyYXk6bm9uZTtzdHJva2Utb3BhY2l0eToxIiBpZD0iY2lyY2xlMTc1MSIgY3g9IjE2MS4yNTQwOSIgY3k9IjIxMy4yNzgyNyIgcj0iMjEuOTc0NjgyIi8+JiN4YTsgICAgICA8cGF0aCBzb2RpcG9kaTpub2RldHlwZXM9ImNjYyIgaW5rc2NhcGU6Y29ubmVjdG9yLWN1cnZhdHVyZT0iMCIgaWQ9InBhdGgxNzU1IiBkPSJtIDEzOS4wMDA3NCwyMDEuOTM4OTkgYyA5LjgyNDQ3LC0xNy44NTE2OSAzNS42NDQzLC0xNy43MDI0NiA0NC42OTU2OSwwIHoiIHN0eWxlPSJmaWxsOiM2NjM3NjY7ZmlsbC1vcGFjaXR5OjE7c3Ryb2tlOiM2NjM3NjY7c3Ryb2tlLXdpZHRoOjAuMjY0NTgzMzJweDtzdHJva2UtbGluZWNhcDpidXR0O3N0cm9rZS1saW5lam9pbjptaXRlcjtzdHJva2Utb3BhY2l0eToxIi8+JiN4YTsgICAgICA8cGF0aCBpbmtzY2FwZTpjb25uZWN0b3ItY3VydmF0dXJlPSIwIiBpZD0icGF0aDE3NTciIGQ9Im0gMTQ1LjYxNTMyLDIxMC4wNjU0OCAzMS4xODMwNCwtMC4xODg5OSAwLjE4ODk5LC0wLjA5NDUiIHN0eWxlPSJmaWxsOiNmZmZmZmY7ZmlsbC1vcGFjaXR5OjE7c3Ryb2tlOiM2NjM3NjY7c3Ryb2tlLXdpZHRoOjE7c3Ryb2tlLWxpbmVjYXA6YnV0dDtzdHJva2UtbGluZWpvaW46bWl0ZXI7c3Ryb2tlLW1pdGVybGltaXQ6NDtzdHJva2UtZGFzaGFycmF5Om5vbmU7c3Ryb2tlLW9wYWNpdHk6MSIvPiYjeGE7ICAgICAgPHBhdGggc3R5bGU9ImZpbGw6I2ZmZmZmZjtmaWxsLW9wYWNpdHk6MTtzdHJva2U6IzY2Mzc2NjtzdHJva2Utd2lkdGg6MTtzdHJva2UtbGluZWNhcDpidXR0O3N0cm9rZS1saW5lam9pbjptaXRlcjtzdHJva2UtbWl0ZXJsaW1pdDo0O3N0cm9rZS1kYXNoYXJyYXk6bm9uZTtzdHJva2Utb3BhY2l0eToxIiBkPSJtIDE0NS42MTUzMiwyMTYuODY5MDQgMzEuMTgzMDQsLTAuMTg4OTkgMC4xODg5OSwtMC4wOTQ1IiBpZD0icGF0aDE3NTkiIGlua3NjYXBlOmNvbm5lY3Rvci1jdXJ2YXR1cmU9IjAiLz4mI3hhOyAgICAgIDxwYXRoIGlua3NjYXBlOmNvbm5lY3Rvci1jdXJ2YXR1cmU9IjAiIGlkPSJwYXRoMTc2MSIgZD0ibSAxNDUuNDI2MzQsMjIzLjg2MTYxIDMxLjE4MzA0LC0wLjE4ODk5IDAuMTg4OTksLTAuMDk0NSIgc3R5bGU9ImZpbGw6I2ZmZmZmZjtmaWxsLW9wYWNpdHk6MTtzdHJva2U6IzY2Mzc2NjtzdHJva2Utd2lkdGg6MTtzdHJva2UtbGluZWNhcDpidXR0O3N0cm9rZS1saW5lam9pbjptaXRlcjtzdHJva2UtbWl0ZXJsaW1pdDo0O3N0cm9rZS1kYXNoYXJyYXk6bm9uZTtzdHJva2Utb3BhY2l0eToxIi8+JiN4YTsgICAgPC9nPiYjeGE7ICA8L2c+JiN4YTsgIDxnIGlua3NjYXBlOmdyb3VwbW9kZT0ibGF5ZXIiIGlkPSJsYXllcjQiIGlua3NjYXBlOmxhYmVsPSJJbnRyb19Hcm91cCBvZiB0b3BpY3MiIHN0eWxlPSJkaXNwbGF5OmlubGluZSIgdHJhbnNmb3JtPSJ0cmFuc2xhdGUoLTE0My4zMDkxOCwtMTY0LjkxMTYyKSI+JiN4YTsgICAgPGcgc3R5bGU9ImRpc3BsYXk6aW5saW5lIiBpZD0iZzE4OTQiIHRyYW5zZm9ybT0ibWF0cml4KDIuNjQwMTIxNCwwLDAsMi42MTE0NTA2LC0yMTIuNzY0MjIsLTQ3MC4yMjY0MykiPiYjeGE7ICAgICAgPGNpcmNsZSBzdHlsZT0ib3BhY2l0eToxO2ZpbGw6I2ZmZmZmZjtmaWxsLW9wYWNpdHk6MTtzdHJva2U6IzY2Mzc2NjtzdHJva2Utd2lkdGg6MTtzdHJva2UtbWl0ZXJsaW1pdDo0O3N0cm9rZS1kYXNoYXJyYXk6bm9uZTtzdHJva2Utb3BhY2l0eToxIiBpZD0iY2lyY2xlMTc3NyIgY3g9IjE2MC4zMDkxNCIgY3k9IjI2OC42NTE3OSIgcj0iMjQuOTM5MDU4Ii8+JiN4YTsgICAgICA8cGF0aCBzdHlsZT0iZmlsbDojNjYzNzY2O2ZpbGwtb3BhY2l0eToxO3N0cm9rZTojNjYzNzY2O3N0cm9rZS13aWR0aDowLjI2NDU4MzMycHg7c3Ryb2tlLWxpbmVjYXA6YnV0dDtzdHJva2UtbGluZWpvaW46bWl0ZXI7c3Ryb2tlLW9wYWNpdHk6MSIgZD0ibSAxMzguMDU1OCwyNTcuMzEyNSBjIDkuODI0NDcsLTE3Ljg1MTY5IDM1LjY0NDMsLTE3LjcwMjQ2IDQ0LjY5NTY5LDAgeiIgaWQ9InBhdGgxNzgxIiBpbmtzY2FwZTpjb25uZWN0b3ItY3VydmF0dXJlPSIwIiBzb2RpcG9kaTpub2RldHlwZXM9ImNjYyIvPiYjeGE7ICAgICAgPHBhdGggc3R5bGU9ImZpbGw6I2ZmZmZmZjtmaWxsLW9wYWNpdHk6MTtzdHJva2U6IzY2Mzc2NjtzdHJva2Utd2lkdGg6MC45NzI5ODQ2MTtzdHJva2UtbGluZWNhcDpidXR0O3N0cm9rZS1saW5lam9pbjptaXRlcjtzdHJva2UtbWl0ZXJsaW1pdDo0O3N0cm9rZS1kYXNoYXJyYXk6bm9uZTtzdHJva2Utb3BhY2l0eToxIiBkPSJtIDE0MS45NzQwNywyNjUuNjk2ODggMzcuNjI4MjYsLTAuMTQ4MjcgMC4yMjgwNiwtMC4wNzQxIiBpZD0icGF0aDE3ODMiIGlua3NjYXBlOmNvbm5lY3Rvci1jdXJ2YXR1cmU9IjAiLz4mI3hhOyAgICAgIDxwYXRoIGlua3NjYXBlOmNvbm5lY3Rvci1jdXJ2YXR1cmU9IjAiIGlkPSJwYXRoMTc4OSIgZD0ibSAxNDEuNTk2MDksMjcyLjY4OTQ0IDM3LjYyODI2LC0wLjE0ODI3IDAuMjI4MDYsLTAuMDc0MSIgc3R5bGU9ImZpbGw6I2ZmZmZmZjtmaWxsLW9wYWNpdHk6MTtzdHJva2U6IzY2Mzc2NjtzdHJva2Utd2lkdGg6MC45NzI5ODQ2MTtzdHJva2UtbGluZWNhcDpidXR0O3N0cm9rZS1saW5lam9pbjptaXRlcjtzdHJva2UtbWl0ZXJsaW1pdDo0O3N0cm9rZS1kYXNoYXJyYXk6bm9uZTtzdHJva2Utb3BhY2l0eToxIi8+JiN4YTsgICAgICA8cGF0aCBzdHlsZT0iZmlsbDojZmZmZmZmO2ZpbGwtb3BhY2l0eToxO3N0cm9rZTojNjYzNzY2O3N0cm9rZS13aWR0aDowLjk3Mjk4NDYxO3N0cm9rZS1saW5lY2FwOmJ1dHQ7c3Ryb2tlLWxpbmVqb2luOm1pdGVyO3N0cm9rZS1taXRlcmxpbWl0OjQ7c3Ryb2tlLWRhc2hhcnJheTpub25lO3N0cm9rZS1vcGFjaXR5OjEiIGQ9Im0gMTQxLjc4NTA4LDI3OS44NzA5OSAzNy42MjgyNiwtMC4xNDgyNyAwLjIyODA2LC0wLjA3NDEiIGlkPSJwYXRoMTc5MSIgaW5rc2NhcGU6Y29ubmVjdG9yLWN1cnZhdHVyZT0iMCIvPiYjeGE7ICAgIDwvZz4mI3hhOyAgPC9nPiYjeGE7ICA8ZyBpbmtzY2FwZTpncm91cG1vZGU9ImxheWVyIiBpZD0ibGF5ZXIzIiBpbmtzY2FwZTpsYWJlbD0iRGlhbG9ndWUgQWN0IiBzdHlsZT0iZGlzcGxheTpub25lIiB0cmFuc2Zvcm09InRyYW5zbGF0ZSgtMTQzLjMwOTE4LC0xNjQuOTExNjIpIj4mI3hhOyAgICA8ZyBzdHlsZT0iZGlzcGxheTppbmxpbmUiIGlkPSJnMTg2OSI+JiN4YTsgICAgICA8ZWxsaXBzZSBzdHlsZT0ib3BhY2l0eToxO2ZpbGw6Izk5OTk5OTtmaWxsLW9wYWNpdHk6MTtzdHJva2U6Izk5OTk5OTtzdHJva2Utd2lkdGg6MS41O3N0cm9rZS1taXRlcmxpbWl0OjQ7c3Ryb2tlLWRhc2hhcnJheTpub25lO3N0cm9rZS1vcGFjaXR5OjE7ZmlsdGVyOnVybCgjZmlsdGVyMTY4MykiIGlkPSJlbGxpcHNlMTQ4MyIgY3g9IjE0NS43MDk4MSIgY3k9Ijk3LjA1MDU4MyIgcng9IjExLjE1MDI5NyIgcnk9IjExLjMzOTI4NiIvPiYjeGE7ICAgICAgPGVsbGlwc2Ugcnk9IjExLjMzOTI4NiIgcng9IjExLjE1MDI5NyIgY3k9Ijk0LjYwNzE3OCIgY3g9IjE0Ny4zMDk1MSIgaWQ9InBhdGgxMzc5IiBzdHlsZT0ib3BhY2l0eToxO2ZpbGw6dXJsKCNsaW5lYXJHcmFkaWVudDE4NTcpO2ZpbGwtb3BhY2l0eToxO3N0cm9rZTojNjYzNzY2O3N0cm9rZS13aWR0aDoxLjU7c3Ryb2tlLW1pdGVybGltaXQ6NDtzdHJva2UtZGFzaGFycmF5Om5vbmU7c3Ryb2tlLW9wYWNpdHk6MSIvPiYjeGE7ICAgIDwvZz4mI3hhOyAgPC9nPiYjeGE7ICA8ZyBpbmtzY2FwZTpncm91cG1vZGU9ImxheWVyIiBpZD0ibGF5ZXIyIiBpbmtzY2FwZTpsYWJlbD0iTXVsdGlwbGUgdG9waWMiIHN0eWxlPSJkaXNwbGF5Om5vbmUiIHRyYW5zZm9ybT0idHJhbnNsYXRlKC0xNDMuMzA5MTgsLTE2NC45MTE2MikiPiYjeGE7ICAgIDxyZWN0IHN0eWxlPSJvcGFjaXR5OjE7ZmlsbDpub25lO2ZpbGwtb3BhY2l0eToxO3N0cm9rZTojNjYzNzY2O3N0cm9rZS13aWR0aDoxLjM3NDg0NTg2O3N0cm9rZS1taXRlcmxpbWl0OjQ7c3Ryb2tlLWRhc2hhcnJheTpub25lO3N0cm9rZS1vcGFjaXR5OjEiIGlkPSJyZWN0MTM2NSIgd2lkdGg9IjEzNS45NjcyMSIgaGVpZ2h0PSI4MS4wMzA1NjMiIHg9IjEzLjA3NzYxMyIgeT0iMTMzLjI2NDQ3IiByeT0iMTAuNjMyOTciLz4mI3hhOyAgICA8cmVjdCByeT0iOS40NDgwNTYyIiB5PSIxMzcuOTcwNTUiIHg9IjE5LjY2NDk2OCIgaGVpZ2h0PSI3Mi4wMDA2OTQiIHdpZHRoPSIxMjIuNzkyNDkiIGlkPSJyZWN0MTM2NyIgc3R5bGU9Im9wYWNpdHk6MTtmaWxsOm5vbmU7ZmlsbC1vcGFjaXR5OjE7c3Ryb2tlOiM2NjM3NjY7c3Ryb2tlLXdpZHRoOjEuMzQyNzU5MDE7c3Ryb2tlLW1pdGVybGltaXQ6NDtzdHJva2UtZGFzaGFycmF5Om5vbmU7c3Ryb2tlLW9wYWNpdHk6MSIvPiYjeGE7ICA8L2c+JiN4YTs8L3N2Zz4=;shadow=1;strokeColor=#540054;strokeWidth=3;fillColor=none;gradientColor=#E69CDC;fontFamily=Tahoma;fontSize=16;fontColor=#000000;align=left;" parent="iagNMvWWNvAy15W2TZMq-3" vertex="1">
          <mxGeometry width="90.68" height="90" as="geometry" />
        </mxCell>
        <mxCell id="iagNMvWWNvAy15W2TZMq-6" value="&lt;font style=&quot;font-size: 24px&quot;&gt;All News&lt;/font&gt;" style="text;html=1;strokeColor=none;fillColor=none;align=center;verticalAlign=middle;whiteSpace=wrap;rounded=0;shadow=1;fontFamily=Tahoma;fontSize=16;fontColor=#000000;" parent="iagNMvWWNvAy15W2TZMq-3" vertex="1">
          <mxGeometry x="95" y="129" width="40" height="20" as="geometry" />
        </mxCell>
        <mxCell id="iagNMvWWNvAy15W2TZMq-7" value="" style="html=1;shadow=0;dashed=0;align=center;verticalAlign=middle;shape=mxgraph.arrows2.quadArrow;dy=10;dx=20;notch=24;arrowHead=10;strokeColor=#540054;strokeWidth=3;fillColor=#540054;gradientColor=#E69CDC;fontFamily=Tahoma;fontSize=16;fontColor=#000000;" parent="iagNMvWWNvAy15W2TZMq-3" vertex="1">
          <mxGeometry x="-20" y="190" width="110" height="110" as="geometry" />
        </mxCell>
        <mxCell id="iagNMvWWNvAy15W2TZMq-12" value="" style="endArrow=classic;html=1;shadow=0;strokeColor=#660066;strokeWidth=2;fillColor=#660066;gradientColor=#E69CDC;fontFamily=Tahoma;fontSize=16;fontColor=#000000;shape=link;width=9.310344827586206;exitX=0.5;exitY=1;exitDx=0;exitDy=0;exitPerimeter=0;entryX=0;entryY=0.5;entryDx=0;entryDy=0;entryPerimeter=0;" parent="1" source="iagNMvWWNvAy15W2TZMq-4" target="iagNMvWWNvAy15W2TZMq-13" edge="1">
          <mxGeometry width="50" height="50" relative="1" as="geometry">
            <mxPoint x="2100" y="925.54" as="sourcePoint" />
            <mxPoint x="2408.668941979522" y="925.54" as="targetPoint" />
          </mxGeometry>
        </mxCell>
        <mxCell id="iagNMvWWNvAy15W2TZMq-13" value="" style="html=1;shadow=0;dashed=0;align=center;verticalAlign=middle;shape=mxgraph.arrows2.arrow;dy=0.41;dx=40;notch=0;strokeColor=#540054;strokeWidth=3;fillColor=#540054;gradientColor=none;fontFamily=Tahoma;fontSize=16;fontColor=#000000;direction=south;" parent="1" vertex="1">
          <mxGeometry x="1874.996109215017" y="773.8361092150171" width="40" height="22.04778156996587" as="geometry" />
        </mxCell>
        <mxCell id="iagNMvWWNvAy15W2TZMq-14" value="&lt;font style=&quot;font-size: 24px&quot;&gt;I&lt;/font&gt;" style="text;html=1;strokeColor=none;fillColor=none;align=center;verticalAlign=middle;whiteSpace=wrap;rounded=0;shadow=1;fontFamily=Tahoma;fontSize=16;fontColor=#000000;dashed=1;" parent="1" vertex="1">
          <mxGeometry x="1900" y="735.88" width="35" height="26.25" as="geometry" />
        </mxCell>
        <mxCell id="iagNMvWWNvAy15W2TZMq-15" value="" style="group" parent="1" vertex="1" connectable="0">
          <mxGeometry x="1755" y="795" width="280" height="330" as="geometry" />
        </mxCell>
        <mxCell id="iagNMvWWNvAy15W2TZMq-16" value="" style="group" parent="iagNMvWWNvAy15W2TZMq-15" vertex="1" connectable="0">
          <mxGeometry width="280" height="330" as="geometry" />
        </mxCell>
        <mxCell id="iagNMvWWNvAy15W2TZMq-17" value="" style="rounded=0;whiteSpace=wrap;html=1;shadow=1;strokeColor=#540054;strokeWidth=3;fillColor=none;gradientColor=#E69CDC;fontFamily=Tahoma;fontSize=16;fontColor=#000000;align=left;dashed=1;" parent="iagNMvWWNvAy15W2TZMq-16" vertex="1">
          <mxGeometry width="280" height="330" as="geometry" />
        </mxCell>
        <mxCell id="iagNMvWWNvAy15W2TZMq-18" value="" style="rounded=0;whiteSpace=wrap;html=1;shadow=1;strokeColor=#540054;strokeWidth=3;fillColor=none;gradientColor=#E69CDC;fontFamily=Tahoma;fontSize=16;fontColor=#000000;align=left;dashed=1;" parent="iagNMvWWNvAy15W2TZMq-16" vertex="1">
          <mxGeometry x="8.75" y="10" width="262.5" height="310.01" as="geometry" />
        </mxCell>
        <mxCell id="iagNMvWWNvAy15W2TZMq-19" value="" style="group" parent="iagNMvWWNvAy15W2TZMq-16" vertex="1" connectable="0">
          <mxGeometry x="55" y="55" width="170" height="220" as="geometry" />
        </mxCell>
        <mxCell id="iagNMvWWNvAy15W2TZMq-20" value="" style="shape=card;whiteSpace=wrap;html=1;shadow=1;strokeColor=#540054;strokeWidth=3;fillColor=none;gradientColor=#E69CDC;fontFamily=Tahoma;fontSize=16;fontColor=#000000;align=left;flipH=1;" parent="iagNMvWWNvAy15W2TZMq-19" vertex="1">
          <mxGeometry width="170" height="220" as="geometry" />
        </mxCell>
        <mxCell id="iagNMvWWNvAy15W2TZMq-21" value="&lt;font size=&quot;5&quot;&gt;Title&lt;br&gt;+&lt;br&gt;Body&lt;br&gt;+&lt;br&gt;Media&lt;br&gt;&lt;/font&gt;" style="text;html=1;strokeColor=none;fillColor=none;align=center;verticalAlign=middle;whiteSpace=wrap;rounded=0;shadow=1;fontFamily=Tahoma;fontSize=16;fontColor=#000000;" parent="iagNMvWWNvAy15W2TZMq-19" vertex="1">
          <mxGeometry x="20" y="80" width="120" height="120" as="geometry" />
        </mxCell>
        <mxCell id="iagNMvWWNvAy15W2TZMq-22" value="" style="shape=image;verticalLabelPosition=bottom;verticalAlign=top;imageAspect=0;aspect=fixed;image=data:image/svg+xml,PHN2ZyB4bWxuczpkYz0iaHR0cDovL3B1cmwub3JnL2RjL2VsZW1lbnRzLzEuMS8iIHhtbG5zOmNjPSJodHRwOi8vY3JlYXRpdmVjb21tb25zLm9yZy9ucyMiIHhtbG5zOnJkZj0iaHR0cDovL3d3dy53My5vcmcvMTk5OS8wMi8yMi1yZGYtc3ludGF4LW5zIyIgeG1sbnM6c3ZnPSJodHRwOi8vd3d3LnczLm9yZy8yMDAwL3N2ZyIgeG1sbnM9Imh0dHA6Ly93d3cudzMub3JnLzIwMDAvc3ZnIiB4bWxuczp4bGluaz0iaHR0cDovL3d3dy53My5vcmcvMTk5OS94bGluayIgeG1sbnM6c29kaXBvZGk9Imh0dHA6Ly9zb2RpcG9kaS5zb3VyY2Vmb3JnZS5uZXQvRFREL3NvZGlwb2RpLTAuZHRkIiB4bWxuczppbmtzY2FwZT0iaHR0cDovL3d3dy5pbmtzY2FwZS5vcmcvbmFtZXNwYWNlcy9pbmtzY2FwZSIgd2lkdGg9IjI1LjcwMjgwOG1tIiBoZWlnaHQ9IjI2LjkyNDQ5bW0iIHZpZXdCb3g9IjAgMCAyNS43MDI4MDggMjYuOTI0NDg5IiB2ZXJzaW9uPSIxLjEiIGlkPSJzdmc4MjAiIGlua3NjYXBlOnZlcnNpb249IjAuOTIuNCAoNWRhNjg5YzMxMywgMjAxOS0wMS0xNCkiIHNvZGlwb2RpOmRvY25hbWU9IkRpYWxvZ3VlIGFjdC5zdmciPiYjeGE7ICA8ZGVmcyBpZD0iZGVmczgxNCI+JiN4YTsgICAgPGxpbmVhckdyYWRpZW50IGlua3NjYXBlOmNvbGxlY3Q9ImFsd2F5cyIgaWQ9ImxpbmVhckdyYWRpZW50MTgxNSI+JiN4YTsgICAgICA8c3RvcCBzdHlsZT0ic3RvcC1jb2xvcjojNjYzNzY2O3N0b3Atb3BhY2l0eToxIiBvZmZzZXQ9IjAiIGlkPSJzdG9wMTgxMSIvPiYjeGE7ICAgICAgPHN0b3Agc3R5bGU9InN0b3AtY29sb3I6I2FmNzZiZDtzdG9wLW9wYWNpdHk6MSIgb2Zmc2V0PSIxIiBpZD0ic3RvcDE4MTMiLz4mI3hhOyAgICA8L2xpbmVhckdyYWRpZW50PiYjeGE7ICAgIDxmaWx0ZXIgaW5rc2NhcGU6Y29sbGVjdD0iYWx3YXlzIiBzdHlsZT0iY29sb3ItaW50ZXJwb2xhdGlvbi1maWx0ZXJzOnNSR0IiIGlkPSJmaWx0ZXIxNjgzIiB4PSItMC4wNDcxOTY2MTIiIHdpZHRoPSIxLjA5NDM5MzMiIHk9Ii0wLjA0NjQwOTk5OCIgaGVpZ2h0PSIxLjA5MjgyIj4mI3hhOyAgICAgIDxmZUdhdXNzaWFuQmx1ciBpbmtzY2FwZTpjb2xsZWN0PSJhbHdheXMiIHN0ZERldmlhdGlvbj0iMC40Mzg1NDY4NyIgaWQ9ImZlR2F1c3NpYW5CbHVyMTY4NSIvPiYjeGE7ICAgIDwvZmlsdGVyPiYjeGE7ICAgIDxsaW5lYXJHcmFkaWVudCBpbmtzY2FwZTpjb2xsZWN0PSJhbHdheXMiIHhsaW5rOmhyZWY9IiNsaW5lYXJHcmFkaWVudDE4MTUiIGlkPSJsaW5lYXJHcmFkaWVudDE4NTciIHgxPSIxNTEuMzc5NDciIHkxPSI5MS43NTg5MjYiIHgyPSIxNDYuODQzNzUiIHkyPSIxMDUuOTMzMDQiIGdyYWRpZW50VW5pdHM9InVzZXJTcGFjZU9uVXNlIi8+JiN4YTsgIDwvZGVmcz4mI3hhOyAgPHNvZGlwb2RpOm5hbWVkdmlldyBpZD0iYmFzZSIgcGFnZWNvbG9yPSIjZmZmZmZmIiBib3JkZXJjb2xvcj0iIzY2NjY2NiIgYm9yZGVyb3BhY2l0eT0iMS4wIiBpbmtzY2FwZTpwYWdlb3BhY2l0eT0iMC4wIiBpbmtzY2FwZTpwYWdlc2hhZG93PSIyIiBpbmtzY2FwZTp6b29tPSIwLjciIGlua3NjYXBlOmN4PSItMjk1LjY4OTY1IiBpbmtzY2FwZTpjeT0iLTEzMy4wMTA4IiBpbmtzY2FwZTpkb2N1bWVudC11bml0cz0ibW0iIGlua3NjYXBlOmN1cnJlbnQtbGF5ZXI9ImxheWVyMyIgc2hvd2dyaWQ9ImZhbHNlIiBpbmtzY2FwZTp3aW5kb3ctd2lkdGg9IjE5MjAiIGlua3NjYXBlOndpbmRvdy1oZWlnaHQ9IjEwMTMiIGlua3NjYXBlOndpbmRvdy14PSItOSIgaW5rc2NhcGU6d2luZG93LXk9Ii05IiBpbmtzY2FwZTp3aW5kb3ctbWF4aW1pemVkPSIxIi8+JiN4YTsgIDxtZXRhZGF0YSBpZD0ibWV0YWRhdGE4MTciPiYjeGE7ICAgIDxyZGY6UkRGPiYjeGE7ICAgICAgPGNjOldvcmsgcmRmOmFib3V0PSIiPiYjeGE7ICAgICAgICA8ZGM6Zm9ybWF0PmltYWdlL3N2Zyt4bWw8L2RjOmZvcm1hdD4mI3hhOyAgICAgICAgPGRjOnR5cGUgcmRmOnJlc291cmNlPSJodHRwOi8vcHVybC5vcmcvZGMvZGNtaXR5cGUvU3RpbGxJbWFnZSIvPiYjeGE7ICAgICAgICA8ZGM6dGl0bGUvPiYjeGE7ICAgICAgPC9jYzpXb3JrPiYjeGE7ICAgIDwvcmRmOlJERj4mI3hhOyAgPC9tZXRhZGF0YT4mI3hhOyAgPGcgaW5rc2NhcGU6bGFiZWw9IlRvcGljIiBpbmtzY2FwZTpncm91cG1vZGU9ImxheWVyIiBpZD0ibGF5ZXIxIiBzdHlsZT0iZGlzcGxheTpub25lIiB0cmFuc2Zvcm09InRyYW5zbGF0ZSgtMTMzLjUwNywtODIuNTE3ODkyKSI+JiN4YTsgICAgPHJlY3Qgcnk9IjEwLjU1NDE1MSIgeT0iMTMzLjU0NSIgeD0iMTIuMzI1MjQ1IiBoZWlnaHQ9IjgwLjQyOTkwOSIgd2lkdGg9IjEzNC44NTg0NiIgaWQ9InJlY3QxMzY5IiBzdHlsZT0ib3BhY2l0eToxO2ZpbGw6bm9uZTtmaWxsLW9wYWNpdHk6MTtzdHJva2U6IzY2Mzc2NjtzdHJva2Utd2lkdGg6MS4zNjQxNDQ0NDtzdHJva2UtbWl0ZXJsaW1pdDo0O3N0cm9rZS1kYXNoYXJyYXk6bm9uZTtzdHJva2Utb3BhY2l0eToxIi8+JiN4YTsgIDwvZz4mI3hhOyAgPGcgaW5rc2NhcGU6Z3JvdXBtb2RlPSJsYXllciIgaWQ9ImxheWVyNiIgaW5rc2NhcGU6bGFiZWw9InRyYW5zaXRpb24gYWN0IiBzdHlsZT0iZGlzcGxheTpub25lIiB0cmFuc2Zvcm09InRyYW5zbGF0ZSgtMTMzLjUwNywtODIuNTE3ODkyKSI+JiN4YTsgICAgPGcgc3R5bGU9ImRpc3BsYXk6aW5saW5lIiBpZD0iZzE4NzkiPiYjeGE7ICAgICAgPGVsbGlwc2Ugcnk9IjIwLjY2MTM4MSIgcng9IjIyLjM2MjI3NCIgY3k9IjE0OC42NDQzNSIgY3g9IjE2MC42ODcxMiIgaWQ9ImNpcmNsZTE4NTkiIHN0eWxlPSJvcGFjaXR5OjE7ZmlsbDojZmZmZmZmO2ZpbGwtb3BhY2l0eToxO3N0cm9rZTojNjYzNzY2O3N0cm9rZS13aWR0aDowLjg2MTkwMTQ2O3N0cm9rZS1taXRlcmxpbWl0OjQ7c3Ryb2tlLWRhc2hhcnJheTpub25lO3N0cm9rZS1vcGFjaXR5OjEiLz4mI3hhOyAgICAgIDxwYXRoIGlua3NjYXBlOmNvbm5lY3Rvci1jdXJ2YXR1cmU9IjAiIGlkPSJwYXRoMTg2MSIgZD0ibSAxNDMuODI3MjQsMTQwLjk0NzMxIDM0LjMwNTgzLC0wLjE3MzQzIDAuMjA3OTIsLTAuMDg2NiIgc3R5bGU9ImZpbGw6I2ZmZmZmZjtmaWxsLW9wYWNpdHk6MTtzdHJva2U6IzY2Mzc2NjtzdHJva2Utd2lkdGg6MS4wMDQ3NzMwMjtzdHJva2UtbGluZWNhcDpidXR0O3N0cm9rZS1saW5lam9pbjptaXRlcjtzdHJva2UtbWl0ZXJsaW1pdDo0O3N0cm9rZS1kYXNoYXJyYXk6bm9uZTtzdHJva2Utb3BhY2l0eToxIi8+JiN4YTsgICAgICA8cGF0aCBzdHlsZT0iZmlsbDojZmZmZmZmO2ZpbGwtb3BhY2l0eToxO3N0cm9rZTojNjYzNzY2O3N0cm9rZS13aWR0aDoxLjAwNDc3MzAyO3N0cm9rZS1saW5lY2FwOmJ1dHQ7c3Ryb2tlLWxpbmVqb2luOm1pdGVyO3N0cm9rZS1taXRlcmxpbWl0OjQ7c3Ryb2tlLWRhc2hhcnJheTpub25lO3N0cm9rZS1vcGFjaXR5OjEiIGQ9Im0gMTQzLjQ4MjYzLDE0OS4xMjY0MyAzNC4zMDU4NCwtMC4xNzM0NCAwLjIwNzkyLC0wLjA4NjYiIGlkPSJwYXRoMTg2MyIgaW5rc2NhcGU6Y29ubmVjdG9yLWN1cnZhdHVyZT0iMCIvPiYjeGE7ICAgICAgPHBhdGggaW5rc2NhcGU6Y29ubmVjdG9yLWN1cnZhdHVyZT0iMCIgaWQ9InBhdGgxODY1IiBkPSJtIDE0My42NTQ5MywxNTcuNTI2NiAzNC4zMDU4NCwtMC4xNzM0MyAwLjIwNzkyLC0wLjA4NjYiIHN0eWxlPSJmaWxsOiNmZmZmZmY7ZmlsbC1vcGFjaXR5OjE7c3Ryb2tlOiM2NjM3NjY7c3Ryb2tlLXdpZHRoOjEuMDA0NzczMDI7c3Ryb2tlLWxpbmVjYXA6YnV0dDtzdHJva2UtbGluZWpvaW46bWl0ZXI7c3Ryb2tlLW1pdGVybGltaXQ6NDtzdHJva2UtZGFzaGFycmF5Om5vbmU7c3Ryb2tlLW9wYWNpdHk6MSIvPiYjeGE7ICAgIDwvZz4mI3hhOyAgPC9nPiYjeGE7ICA8ZyBpbmtzY2FwZTpncm91cG1vZGU9ImxheWVyIiBpZD0ibGF5ZXI1IiBpbmtzY2FwZTpsYWJlbD0iSW50cm9fIG11bHRpcGxlIGdyb3VwcyBvZiB0b3BpY3MiIHN0eWxlPSJkaXNwbGF5Om5vbmUiIHRyYW5zZm9ybT0idHJhbnNsYXRlKC0xMzMuNTA3LC04Mi41MTc4OTIpIj4mI3hhOyAgICA8ZyBzdHlsZT0iZGlzcGxheTppbmxpbmUiIGlkPSJnMTg4NyI+JiN4YTsgICAgICA8Y2lyY2xlIHI9IjI0LjkzOTA1OCIgY3k9IjIxMy4yNzgyNyIgY3g9IjE2MS4yNTQwOSIgaWQ9InBhdGgxNzQ5IiBzdHlsZT0ib3BhY2l0eToxO2ZpbGw6I2ZmZmZmZjtmaWxsLW9wYWNpdHk6MTtzdHJva2U6IzY2Mzc2NjtzdHJva2Utd2lkdGg6MTtzdHJva2UtbWl0ZXJsaW1pdDo0O3N0cm9rZS1kYXNoYXJyYXk6bm9uZTtzdHJva2Utb3BhY2l0eToxIi8+JiN4YTsgICAgICA8Y2lyY2xlIHN0eWxlPSJvcGFjaXR5OjE7ZmlsbDojZmZmZmZmO2ZpbGwtb3BhY2l0eToxO3N0cm9rZTojNjYzNzY2O3N0cm9rZS13aWR0aDowLjg4MTEzNTE3O3N0cm9rZS1taXRlcmxpbWl0OjQ7c3Ryb2tlLWRhc2hhcnJheTpub25lO3N0cm9rZS1vcGFjaXR5OjEiIGlkPSJjaXJjbGUxNzUxIiBjeD0iMTYxLjI1NDA5IiBjeT0iMjEzLjI3ODI3IiByPSIyMS45NzQ2ODIiLz4mI3hhOyAgICAgIDxwYXRoIHNvZGlwb2RpOm5vZGV0eXBlcz0iY2NjIiBpbmtzY2FwZTpjb25uZWN0b3ItY3VydmF0dXJlPSIwIiBpZD0icGF0aDE3NTUiIGQ9Im0gMTM5LjAwMDc0LDIwMS45Mzg5OSBjIDkuODI0NDcsLTE3Ljg1MTY5IDM1LjY0NDMsLTE3LjcwMjQ2IDQ0LjY5NTY5LDAgeiIgc3R5bGU9ImZpbGw6IzY2Mzc2NjtmaWxsLW9wYWNpdHk6MTtzdHJva2U6IzY2Mzc2NjtzdHJva2Utd2lkdGg6MC4yNjQ1ODMzMnB4O3N0cm9rZS1saW5lY2FwOmJ1dHQ7c3Ryb2tlLWxpbmVqb2luOm1pdGVyO3N0cm9rZS1vcGFjaXR5OjEiLz4mI3hhOyAgICAgIDxwYXRoIGlua3NjYXBlOmNvbm5lY3Rvci1jdXJ2YXR1cmU9IjAiIGlkPSJwYXRoMTc1NyIgZD0ibSAxNDUuNjE1MzIsMjEwLjA2NTQ4IDMxLjE4MzA0LC0wLjE4ODk5IDAuMTg4OTksLTAuMDk0NSIgc3R5bGU9ImZpbGw6I2ZmZmZmZjtmaWxsLW9wYWNpdHk6MTtzdHJva2U6IzY2Mzc2NjtzdHJva2Utd2lkdGg6MTtzdHJva2UtbGluZWNhcDpidXR0O3N0cm9rZS1saW5lam9pbjptaXRlcjtzdHJva2UtbWl0ZXJsaW1pdDo0O3N0cm9rZS1kYXNoYXJyYXk6bm9uZTtzdHJva2Utb3BhY2l0eToxIi8+JiN4YTsgICAgICA8cGF0aCBzdHlsZT0iZmlsbDojZmZmZmZmO2ZpbGwtb3BhY2l0eToxO3N0cm9rZTojNjYzNzY2O3N0cm9rZS13aWR0aDoxO3N0cm9rZS1saW5lY2FwOmJ1dHQ7c3Ryb2tlLWxpbmVqb2luOm1pdGVyO3N0cm9rZS1taXRlcmxpbWl0OjQ7c3Ryb2tlLWRhc2hhcnJheTpub25lO3N0cm9rZS1vcGFjaXR5OjEiIGQ9Im0gMTQ1LjYxNTMyLDIxNi44NjkwNCAzMS4xODMwNCwtMC4xODg5OSAwLjE4ODk5LC0wLjA5NDUiIGlkPSJwYXRoMTc1OSIgaW5rc2NhcGU6Y29ubmVjdG9yLWN1cnZhdHVyZT0iMCIvPiYjeGE7ICAgICAgPHBhdGggaW5rc2NhcGU6Y29ubmVjdG9yLWN1cnZhdHVyZT0iMCIgaWQ9InBhdGgxNzYxIiBkPSJtIDE0NS40MjYzNCwyMjMuODYxNjEgMzEuMTgzMDQsLTAuMTg4OTkgMC4xODg5OSwtMC4wOTQ1IiBzdHlsZT0iZmlsbDojZmZmZmZmO2ZpbGwtb3BhY2l0eToxO3N0cm9rZTojNjYzNzY2O3N0cm9rZS13aWR0aDoxO3N0cm9rZS1saW5lY2FwOmJ1dHQ7c3Ryb2tlLWxpbmVqb2luOm1pdGVyO3N0cm9rZS1taXRlcmxpbWl0OjQ7c3Ryb2tlLWRhc2hhcnJheTpub25lO3N0cm9rZS1vcGFjaXR5OjEiLz4mI3hhOyAgICA8L2c+JiN4YTsgIDwvZz4mI3hhOyAgPGcgaW5rc2NhcGU6Z3JvdXBtb2RlPSJsYXllciIgaWQ9ImxheWVyNCIgaW5rc2NhcGU6bGFiZWw9IkludHJvX0dyb3VwIG9mIHRvcGljcyIgc3R5bGU9ImRpc3BsYXk6bm9uZSIgdHJhbnNmb3JtPSJ0cmFuc2xhdGUoLTEzMy41MDcsLTgyLjUxNzg5MikiPiYjeGE7ICAgIDxnIHN0eWxlPSJkaXNwbGF5OmlubGluZSIgaWQ9ImcxODk0Ij4mI3hhOyAgICAgIDxjaXJjbGUgc3R5bGU9Im9wYWNpdHk6MTtmaWxsOiNmZmZmZmY7ZmlsbC1vcGFjaXR5OjE7c3Ryb2tlOiM2NjM3NjY7c3Ryb2tlLXdpZHRoOjE7c3Ryb2tlLW1pdGVybGltaXQ6NDtzdHJva2UtZGFzaGFycmF5Om5vbmU7c3Ryb2tlLW9wYWNpdHk6MSIgaWQ9ImNpcmNsZTE3NzciIGN4PSIxNjAuMzA5MTQiIGN5PSIyNjguNjUxNzkiIHI9IjI0LjkzOTA1OCIvPiYjeGE7ICAgICAgPHBhdGggc3R5bGU9ImZpbGw6IzY2Mzc2NjtmaWxsLW9wYWNpdHk6MTtzdHJva2U6IzY2Mzc2NjtzdHJva2Utd2lkdGg6MC4yNjQ1ODMzMnB4O3N0cm9rZS1saW5lY2FwOmJ1dHQ7c3Ryb2tlLWxpbmVqb2luOm1pdGVyO3N0cm9rZS1vcGFjaXR5OjEiIGQ9Im0gMTM4LjA1NTgsMjU3LjMxMjUgYyA5LjgyNDQ3LC0xNy44NTE2OSAzNS42NDQzLC0xNy43MDI0NiA0NC42OTU2OSwwIHoiIGlkPSJwYXRoMTc4MSIgaW5rc2NhcGU6Y29ubmVjdG9yLWN1cnZhdHVyZT0iMCIgc29kaXBvZGk6bm9kZXR5cGVzPSJjY2MiLz4mI3hhOyAgICAgIDxwYXRoIHN0eWxlPSJmaWxsOiNmZmZmZmY7ZmlsbC1vcGFjaXR5OjE7c3Ryb2tlOiM2NjM3NjY7c3Ryb2tlLXdpZHRoOjAuOTcyOTg0NjE7c3Ryb2tlLWxpbmVjYXA6YnV0dDtzdHJva2UtbGluZWpvaW46bWl0ZXI7c3Ryb2tlLW1pdGVybGltaXQ6NDtzdHJva2UtZGFzaGFycmF5Om5vbmU7c3Ryb2tlLW9wYWNpdHk6MSIgZD0ibSAxNDEuOTc0MDcsMjY1LjY5Njg4IDM3LjYyODI2LC0wLjE0ODI3IDAuMjI4MDYsLTAuMDc0MSIgaWQ9InBhdGgxNzgzIiBpbmtzY2FwZTpjb25uZWN0b3ItY3VydmF0dXJlPSIwIi8+JiN4YTsgICAgICA8cGF0aCBpbmtzY2FwZTpjb25uZWN0b3ItY3VydmF0dXJlPSIwIiBpZD0icGF0aDE3ODkiIGQ9Im0gMTQxLjU5NjA5LDI3Mi42ODk0NCAzNy42MjgyNiwtMC4xNDgyNyAwLjIyODA2LC0wLjA3NDEiIHN0eWxlPSJmaWxsOiNmZmZmZmY7ZmlsbC1vcGFjaXR5OjE7c3Ryb2tlOiM2NjM3NjY7c3Ryb2tlLXdpZHRoOjAuOTcyOTg0NjE7c3Ryb2tlLWxpbmVjYXA6YnV0dDtzdHJva2UtbGluZWpvaW46bWl0ZXI7c3Ryb2tlLW1pdGVybGltaXQ6NDtzdHJva2UtZGFzaGFycmF5Om5vbmU7c3Ryb2tlLW9wYWNpdHk6MSIvPiYjeGE7ICAgICAgPHBhdGggc3R5bGU9ImZpbGw6I2ZmZmZmZjtmaWxsLW9wYWNpdHk6MTtzdHJva2U6IzY2Mzc2NjtzdHJva2Utd2lkdGg6MC45NzI5ODQ2MTtzdHJva2UtbGluZWNhcDpidXR0O3N0cm9rZS1saW5lam9pbjptaXRlcjtzdHJva2UtbWl0ZXJsaW1pdDo0O3N0cm9rZS1kYXNoYXJyYXk6bm9uZTtzdHJva2Utb3BhY2l0eToxIiBkPSJtIDE0MS43ODUwOCwyNzkuODcwOTkgMzcuNjI4MjYsLTAuMTQ4MjcgMC4yMjgwNiwtMC4wNzQxIiBpZD0icGF0aDE3OTEiIGlua3NjYXBlOmNvbm5lY3Rvci1jdXJ2YXR1cmU9IjAiLz4mI3hhOyAgICA8L2c+JiN4YTsgIDwvZz4mI3hhOyAgPGcgaW5rc2NhcGU6Z3JvdXBtb2RlPSJsYXllciIgaWQ9ImxheWVyMyIgaW5rc2NhcGU6bGFiZWw9IkRpYWxvZ3VlIEFjdCIgc3R5bGU9ImRpc3BsYXk6aW5saW5lIiB0cmFuc2Zvcm09InRyYW5zbGF0ZSgtMTMzLjUwNywtODIuNTE3ODkyKSI+JiN4YTsgICAgPGcgc3R5bGU9ImRpc3BsYXk6aW5saW5lIiBpZD0iZzE4NjkiPiYjeGE7ICAgICAgPGVsbGlwc2Ugc3R5bGU9Im9wYWNpdHk6MTtmaWxsOiM5OTk5OTk7ZmlsbC1vcGFjaXR5OjE7c3Ryb2tlOiM5OTk5OTk7c3Ryb2tlLXdpZHRoOjEuNTtzdHJva2UtbWl0ZXJsaW1pdDo0O3N0cm9rZS1kYXNoYXJyYXk6bm9uZTtzdHJva2Utb3BhY2l0eToxO2ZpbHRlcjp1cmwoI2ZpbHRlcjE2ODMpIiBpZD0iZWxsaXBzZTE0ODMiIGN4PSIxNDUuNzA5ODEiIGN5PSI5Ny4wNTA1ODMiIHJ4PSIxMS4xNTAyOTciIHJ5PSIxMS4zMzkyODYiLz4mI3hhOyAgICAgIDxlbGxpcHNlIHJ5PSIxMS4zMzkyODYiIHJ4PSIxMS4xNTAyOTciIGN5PSI5NC42MDcxNzgiIGN4PSIxNDcuMzA5NTEiIGlkPSJwYXRoMTM3OSIgc3R5bGU9Im9wYWNpdHk6MTtmaWxsOnVybCgjbGluZWFyR3JhZGllbnQxODU3KTtmaWxsLW9wYWNpdHk6MTtzdHJva2U6IzY2Mzc2NjtzdHJva2Utd2lkdGg6MS41O3N0cm9rZS1taXRlcmxpbWl0OjQ7c3Ryb2tlLWRhc2hhcnJheTpub25lO3N0cm9rZS1vcGFjaXR5OjEiLz4mI3hhOyAgICA8L2c+JiN4YTsgIDwvZz4mI3hhOyAgPGcgaW5rc2NhcGU6Z3JvdXBtb2RlPSJsYXllciIgaWQ9ImxheWVyMiIgaW5rc2NhcGU6bGFiZWw9Ik11bHRpcGxlIHRvcGljIiBzdHlsZT0iZGlzcGxheTpub25lIiB0cmFuc2Zvcm09InRyYW5zbGF0ZSgtMTMzLjUwNywtODIuNTE3ODkyKSI+JiN4YTsgICAgPHJlY3Qgc3R5bGU9Im9wYWNpdHk6MTtmaWxsOm5vbmU7ZmlsbC1vcGFjaXR5OjE7c3Ryb2tlOiM2NjM3NjY7c3Ryb2tlLXdpZHRoOjEuMzc0ODQ1ODY7c3Ryb2tlLW1pdGVybGltaXQ6NDtzdHJva2UtZGFzaGFycmF5Om5vbmU7c3Ryb2tlLW9wYWNpdHk6MSIgaWQ9InJlY3QxMzY1IiB3aWR0aD0iMTM1Ljk2NzIxIiBoZWlnaHQ9IjgxLjAzMDU2MyIgeD0iMTMuMDc3NjEzIiB5PSIxMzMuMjY0NDciIHJ5PSIxMC42MzI5NyIvPiYjeGE7ICAgIDxyZWN0IHJ5PSI5LjQ0ODA1NjIiIHk9IjEzNy45NzA1NSIgeD0iMTkuNjY0OTY4IiBoZWlnaHQ9IjcyLjAwMDY5NCIgd2lkdGg9IjEyMi43OTI0OSIgaWQ9InJlY3QxMzY3IiBzdHlsZT0ib3BhY2l0eToxO2ZpbGw6bm9uZTtmaWxsLW9wYWNpdHk6MTtzdHJva2U6IzY2Mzc2NjtzdHJva2Utd2lkdGg6MS4zNDI3NTkwMTtzdHJva2UtbWl0ZXJsaW1pdDo0O3N0cm9rZS1kYXNoYXJyYXk6bm9uZTtzdHJva2Utb3BhY2l0eToxIi8+JiN4YTsgIDwvZz4mI3hhOzwvc3ZnPg==" parent="iagNMvWWNvAy15W2TZMq-19" vertex="1">
          <mxGeometry x="60.74" y="20" width="38.52" height="40" as="geometry" />
        </mxCell>
        <mxCell id="iagNMvWWNvAy15W2TZMq-23" value="" style="verticalLabelPosition=bottom;verticalAlign=top;html=1;shape=mxgraph.basic.orthogonal_triangle;fillColor=#540054;fontSize=15;fontColor=#540054;direction=north;" parent="iagNMvWWNvAy15W2TZMq-16" vertex="1">
          <mxGeometry x="231.25" y="280.01" width="40" height="40" as="geometry" />
        </mxCell>
        <mxCell id="iagNMvWWNvAy15W2TZMq-26" value="" style="endArrow=classic;html=1;shadow=0;strokeColor=#660066;strokeWidth=3;fillColor=#660066;gradientColor=#E69CDC;fontFamily=Tahoma;fontSize=16;fontColor=#000000;exitX=0.5;exitY=1;exitDx=0;exitDy=0;exitPerimeter=0;entryX=0.5;entryY=0;entryDx=0;entryDy=0;entryPerimeter=0;" parent="1" source="2tFBRqaM1ZA4eUpaGNYp-71" target="iagNMvWWNvAy15W2TZMq-4" edge="1">
          <mxGeometry width="50" height="50" relative="1" as="geometry">
            <mxPoint x="1380" y="270" as="sourcePoint" />
            <mxPoint x="1660" y="270" as="targetPoint" />
            <Array as="points">
              <mxPoint x="815" y="360" />
              <mxPoint x="1895" y="360" />
            </Array>
          </mxGeometry>
        </mxCell>
        <mxCell id="iagNMvWWNvAy15W2TZMq-27" value="&lt;font style=&quot;font-size: 24px&quot;&gt;News [1-1000]&lt;br&gt;&lt;/font&gt;" style="text;html=1;strokeColor=none;fillColor=none;align=center;verticalAlign=middle;whiteSpace=wrap;rounded=0;shadow=1;fontFamily=Tahoma;fontSize=16;fontColor=#000000;dashed=1;" parent="1" vertex="1">
          <mxGeometry x="1680" y="756.25" width="180" height="26.25" as="geometry" />
        </mxCell>
        <mxCell id="iagNMvWWNvAy15W2TZMq-28" value="" style="group" parent="1" vertex="1" connectable="0">
          <mxGeometry x="900" y="240" width="670" height="40" as="geometry" />
        </mxCell>
        <mxCell id="iagNMvWWNvAy15W2TZMq-29" value="" style="endArrow=classic;html=1;shadow=0;strokeColor=#660066;strokeWidth=2;fillColor=#660066;gradientColor=#E69CDC;fontFamily=Tahoma;fontSize=16;fontColor=#000000;shape=link;width=9.310344827586206;entryX=0;entryY=0.5;entryDx=0;entryDy=0;entryPerimeter=0;" parent="iagNMvWWNvAy15W2TZMq-28" target="iagNMvWWNvAy15W2TZMq-30" edge="1">
          <mxGeometry width="50" height="50" relative="1" as="geometry">
            <mxPoint y="19.659999999999968" as="sourcePoint" />
            <mxPoint x="640.2730375426621" y="19.659999999999968" as="targetPoint" />
            <Array as="points">
              <mxPoint x="760" y="20" />
              <mxPoint x="760" y="600" />
            </Array>
          </mxGeometry>
        </mxCell>
        <mxCell id="iagNMvWWNvAy15W2TZMq-33" value="&lt;font style=&quot;font-size: 24px&quot;&gt;I [1-5]&lt;br&gt;&lt;/font&gt;" style="text;html=1;strokeColor=none;fillColor=none;align=center;verticalAlign=middle;whiteSpace=wrap;rounded=0;shadow=1;fontFamily=Tahoma;fontSize=16;fontColor=#000000;dashed=1;" parent="iagNMvWWNvAy15W2TZMq-28" vertex="1">
          <mxGeometry x="300" y="-20" width="115" height="26.25" as="geometry" />
        </mxCell>
        <mxCell id="iagNMvWWNvAy15W2TZMq-30" value="" style="html=1;shadow=0;dashed=0;align=center;verticalAlign=middle;shape=mxgraph.arrows2.arrow;dy=0.41;dx=40;notch=0;strokeColor=#540054;strokeWidth=3;fillColor=#540054;gradientColor=none;fontFamily=Tahoma;fontSize=16;fontColor=#000000;" parent="1" vertex="1">
          <mxGeometry x="1719.9959044368602" y="820" width="31.604095563139932" height="40" as="geometry" />
        </mxCell>
        <mxCell id="iagNMvWWNvAy15W2TZMq-34" value="" style="endArrow=classic;html=1;shadow=0;strokeColor=#660066;strokeWidth=3;fillColor=#660066;gradientColor=#E69CDC;fontFamily=Tahoma;fontSize=16;fontColor=#000000;exitX=-0.007;exitY=0.912;exitDx=0;exitDy=0;exitPerimeter=0;entryX=1.007;entryY=0.927;entryDx=0;entryDy=0;entryPerimeter=0;" parent="1" source="iagNMvWWNvAy15W2TZMq-17" target="2tFBRqaM1ZA4eUpaGNYp-135" edge="1">
          <mxGeometry width="50" height="50" relative="1" as="geometry">
            <mxPoint x="1350" y="1240" as="sourcePoint" />
            <mxPoint x="1630" y="1240" as="targetPoint" />
          </mxGeometry>
        </mxCell>
        <mxCell id="iagNMvWWNvAy15W2TZMq-35" value="" style="endArrow=classic;html=1;shadow=0;strokeColor=#660066;strokeWidth=3;fillColor=#660066;gradientColor=#E69CDC;fontFamily=Tahoma;fontSize=16;fontColor=#000000;exitX=0.157;exitY=1.015;exitDx=0;exitDy=0;exitPerimeter=0;entryX=1.011;entryY=0.903;entryDx=0;entryDy=0;entryPerimeter=0;" parent="1" source="iagNMvWWNvAy15W2TZMq-17" target="2tFBRqaM1ZA4eUpaGNYp-150" edge="1">
          <mxGeometry width="50" height="50" relative="1" as="geometry">
            <mxPoint x="1770.54" y="1182.55" as="sourcePoint" />
            <mxPoint x="1169.46" y="1182.4999999999998" as="targetPoint" />
            <Array as="points">
              <mxPoint x="1799" y="1488" />
            </Array>
          </mxGeometry>
        </mxCell>
        <mxCell id="iagNMvWWNvAy15W2TZMq-36" value="" style="endArrow=classic;html=1;shadow=0;strokeColor=#660066;strokeWidth=3;fillColor=#660066;gradientColor=#E69CDC;fontFamily=Tahoma;fontSize=16;fontColor=#000000;exitX=0.3;exitY=1.003;exitDx=0;exitDy=0;exitPerimeter=0;entryX=-0.004;entryY=0.88;entryDx=0;entryDy=0;entryPerimeter=0;" parent="1" source="iagNMvWWNvAy15W2TZMq-17" target="2tFBRqaM1ZA4eUpaGNYp-164" edge="1">
          <mxGeometry width="50" height="50" relative="1" as="geometry">
            <mxPoint x="1840.88" y="1139.9999999999998" as="sourcePoint" />
            <mxPoint x="20" y="1060" as="targetPoint" />
            <Array as="points">
              <mxPoint x="1841" y="1680" />
              <mxPoint y="1680" />
              <mxPoint y="1080" />
            </Array>
          </mxGeometry>
        </mxCell>
      </root>
    </mxGraphModel>
  </diagram>
</mxfile>
